<svg xmlns="http://www.w3.org/2000/svg" xmlns:xlink="http://www.w3.org/1999/xlink" contentStyleType="text/css" data-diagram-type="CLASS" height="843px" preserveAspectRatio="none" style="width:3026px;height:843px;background:#FFFFFF;" version="1.1" viewBox="0 0 3026 843" width="3026px" zoomAndPan="magnify"><title>&#1041;&#1044; + &#1072;&#1076;&#1072;&#1087;&#1090;&#1077;&#1088; + &#1076;&#1077;&#1082;&#1086;&#1088;&#1072;&#1090;&#1086;&#1088;&#1099; (3/3)</title><defs/><g><g class="title" data-source-line="231"><text fill="#000000" font-family="sans-serif" font-size="14" font-weight="bold" lengthAdjust="spacing" textLength="275.6729" x="1368.1636" y="22.9951">&#1041;&#1044; + &#1072;&#1076;&#1072;&#1087;&#1090;&#1077;&#1088; + &#1076;&#1077;&#1082;&#1086;&#1088;&#1072;&#1090;&#1086;&#1088;&#1099; (3/3)</text></g><!--cluster decorators (??????????)--><g class="cluster" data-qualified-name="decorators ............" data-source-line="27" id="ent0002"><rect fill="none" height="304.24" rx="2.5" ry="2.5" style="stroke:#000000;stroke-width:1.5;" width="1388" x="7" y="44.2969"/><text fill="#000000" font-family="sans-serif" font-size="10" font-weight="bold" lengthAdjust="spacing" textLength="144.8633" x="628.5684" y="55.5791">decorators (&#1076;&#1077;&#1082;&#1086;&#1088;&#1072;&#1090;&#1086;&#1088;&#1099;)</text></g><!--cluster files (??????????/?????)--><g class="cluster" data-qualified-name="decorators .............files .................." data-source-line="28" id="ent0003"><rect fill="none" height="78.12" rx="2.5" ry="2.5" style="stroke:#000000;stroke-width:1.5;" width="422" x="949" y="82.2969"/><text fill="#000000" font-family="sans-serif" font-size="10" font-weight="bold" lengthAdjust="spacing" textLength="151.5479" x="1084.2261" y="93.5791">files (&#1076;&#1077;&#1082;&#1086;&#1088;&#1072;&#1090;&#1086;&#1088;&#1099;/&#1092;&#1072;&#1081;&#1083;&#1099;)</text></g><!--cluster db (??????????/??)--><g class="cluster" data-qualified-name="decorators .............db ..............." data-source-line="33" id="ent0007"><rect fill="none" height="78.12" rx="2.5" ry="2.5" style="stroke:#000000;stroke-width:1.5;" width="402" x="523" y="82.2969"/><text fill="#000000" font-family="sans-serif" font-size="10" font-weight="bold" lengthAdjust="spacing" textLength="118.4082" x="664.7959" y="93.5791">db (&#1076;&#1077;&#1082;&#1086;&#1088;&#1072;&#1090;&#1086;&#1088;&#1099;/&#1041;&#1044;)</text></g><!--cluster db (??? ??)--><g class="cluster" data-qualified-name="decorators .............db .... ..." data-source-line="302" id="ent0061"><rect fill="none" height="242.24" rx="2.5" ry="2.5" style="stroke:#000000;stroke-width:1.5;" width="218" x="31" y="82.2969"/><text fill="#000000" font-family="sans-serif" font-size="10" font-weight="bold" lengthAdjust="spacing" textLength="68.7695" x="105.6152" y="93.5791">db (&#1076;&#1083;&#1103; &#1041;&#1044;)</text></g><!--cluster files (??? ??????)--><g class="cluster" data-qualified-name="decorators .............files .... ......." data-source-line="319" id="ent0065"><rect fill="none" height="242.24" rx="2.5" ry="2.5" style="stroke:#000000;stroke-width:1.5;" width="226" x="273" y="82.2969"/><text fill="#000000" font-family="sans-serif" font-size="10" font-weight="bold" lengthAdjust="spacing" textLength="106.0645" x="332.9678" y="93.5791">files (&#1076;&#1083;&#1103; &#1092;&#1072;&#1081;&#1083;&#1086;&#1074;)</text></g><!--cluster repos (???????????)--><g class="cluster" data-qualified-name="repos ............." data-source-line="40" id="ent0011"><rect fill="none" height="266.24" rx="2.5" ry="2.5" style="stroke:#000000;stroke-width:1.5;" width="746" x="1739" y="208.4169"/><text fill="#000000" font-family="sans-serif" font-size="10" font-weight="bold" lengthAdjust="spacing" textLength="118.6914" x="2052.6543" y="219.6991">repos (&#1088;&#1077;&#1087;&#1086;&#1079;&#1080;&#1090;&#1086;&#1088;&#1080;&#1080;)</text></g><!--cluster base (???????????/????)--><g class="cluster" data-qualified-name="repos ..............base .................." data-source-line="41" id="ent0012"><rect fill="none" height="78.12" rx="2.5" ry="2.5" style="stroke:#000000;stroke-width:1.5;" width="159" x="1763" y="246.4169"/><text fill="#000000" font-family="sans-serif" font-size="10" font-weight="bold" lengthAdjust="spacing" textLength="143.5791" x="1770.7104" y="257.6991">base (&#1088;&#1077;&#1087;&#1086;&#1079;&#1080;&#1090;&#1086;&#1088;&#1080;&#1080;/&#1073;&#1072;&#1079;&#1072;)</text></g><!--cluster files (???????????/?????)--><g class="cluster" data-qualified-name="repos ..............files ..................." data-source-line="44" id="ent0014"><rect fill="none" height="74" rx="2.5" ry="2.5" style="stroke:#000000;stroke-width:1.5;" width="243" x="1945" y="374.5969"/><text fill="#000000" font-family="sans-serif" font-size="10" font-weight="bold" lengthAdjust="spacing" textLength="154.6338" x="1989.1831" y="385.8791">files (&#1088;&#1077;&#1087;&#1086;&#1079;&#1080;&#1090;&#1086;&#1088;&#1080;&#1080;/&#1092;&#1072;&#1081;&#1083;&#1099;)</text></g><!--cluster adapter (???????)--><g class="cluster" data-qualified-name="repos ..............adapter ........." data-source-line="48" id="ent0017"><rect fill="none" height="78.12" rx="2.5" ry="2.5" style="stroke:#000000;stroke-width:1.5;" width="158" x="1763" y="372.5369"/><text fill="#000000" font-family="sans-serif" font-size="10" font-weight="bold" lengthAdjust="spacing" textLength="105.1465" x="1789.4268" y="383.8191">adapter (&#1072;&#1076;&#1072;&#1087;&#1090;&#1077;&#1088;)</text></g><!--cluster base (????)--><g class="cluster" data-qualified-name="repos ..............base ......" data-source-line="163" id="ent0044"><rect fill="none" height="78.12" rx="2.5" ry="2.5" style="stroke:#000000;stroke-width:1.5;" width="136" x="1946" y="246.4169"/><text fill="#000000" font-family="sans-serif" font-size="10" font-weight="bold" lengthAdjust="spacing" textLength="65.5518" x="1981.2241" y="257.6991">base (&#1073;&#1072;&#1079;&#1072;)</text></g><!--cluster files (?????)--><g class="cluster" data-qualified-name="repos ..............files ......." data-source-line="192" id="ent0046"><rect fill="none" height="74" rx="2.5" ry="2.5" style="stroke:#000000;stroke-width:1.5;" width="243" x="2106" y="248.4769"/><text fill="#000000" font-family="sans-serif" font-size="10" font-weight="bold" lengthAdjust="spacing" textLength="76.6064" x="2189.1968" y="259.7591">files (&#1092;&#1072;&#1081;&#1083;&#1099;)</text></g><!--cluster db (???? ??????)--><g class="cluster" data-qualified-name="db ..... ......." data-source-line="53" id="ent0019"><rect fill="none" height="152.11" rx="2.5" ry="2.5" style="stroke:#000000;stroke-width:1.5;" width="234" x="1453" y="498.6569"/><text fill="#000000" font-family="sans-serif" font-size="10" font-weight="bold" lengthAdjust="spacing" textLength="100.8447" x="1519.5776" y="509.9391">db (&#1073;&#1072;&#1079;&#1072; &#1076;&#1072;&#1085;&#1085;&#1099;&#1093;)</text></g><!--cluster domain (?????)--><g class="cluster" data-qualified-name="domain ......." data-source-line="59" id="ent0023"><rect fill="none" height="142.23" rx="2.5" ry="2.5" style="stroke:#000000;stroke-width:1.5;" width="110" x="2430" y="572.6569"/><text fill="#000000" font-family="sans-serif" font-size="10" font-weight="bold" lengthAdjust="spacing" textLength="91.1768" x="2439.4116" y="583.9391">domain (&#1076;&#1086;&#1084;&#1077;&#1085;)</text></g><!--cluster repos--><g class="cluster" data-qualified-name="repos" data-source-line="280" id="ent0060"><rect fill="none" height="140.12" rx="2.5" ry="2.5" style="stroke:#000000;stroke-width:1.5;" width="206" x="2814" y="44.2969"/><text fill="#000000" font-family="sans-serif" font-size="10" font-weight="bold" lengthAdjust="spacing" textLength="31.6943" x="2901.1528" y="55.5791">repos</text></g><!--cluster adapter (???????)--><g class="cluster" data-qualified-name="repos.adapter ........." data-source-line="278" id="ent0058"><rect fill="none" height="78.12" rx="2.5" ry="2.5" style="stroke:#000000;stroke-width:1.5;" width="158" x="2838" y="82.2969"/><text fill="#000000" font-family="sans-serif" font-size="10" font-weight="bold" lengthAdjust="spacing" textLength="105.1465" x="2864.4268" y="93.5791">adapter (&#1072;&#1076;&#1072;&#1087;&#1090;&#1077;&#1088;)</text></g><!--class ClientsRepFileFilterSortDecorator--><g class="entity" data-qualified-name="decorators .............files ...................ClientsRepFileFilterSortDecorator" data-source-line="29" id="ent0004"><rect fill="#F1F1F1" height="32.1172" rx="2.5" ry="2.5" style="stroke:#181818;stroke-width:0.5;" width="178.2271" x="964.89" y="112.2969"/><ellipse cx="977.89" cy="128.3555" fill="#ADD1B2" rx="9" ry="9" style="stroke:#181818;stroke-width:1;"/><path d="M979.1713,131.6523 Q978.8275,131.8242 978.4525,131.9023 Q978.0775,131.9961 977.6556,131.9961 Q976.1869,131.9961 975.4056,131.0273 Q974.64,130.0586 974.64,128.2148 Q974.64,126.3711 975.4056,125.4023 Q976.1869,124.4336 977.6556,124.4336 Q978.0775,124.4336 978.4525,124.5273 Q978.8431,124.6055 979.1713,124.7773 L979.1713,126.3867 Q978.7963,126.043 978.4369,125.8867 Q978.0931,125.7305 977.7338,125.7305 Q976.9369,125.7305 976.5306,126.3555 Q976.1244,126.9805 976.1244,128.2148 Q976.1244,129.4492 976.5306,130.0742 Q976.9369,130.6992 977.7338,130.6992 Q978.0931,130.6992 978.4369,130.543 Q978.7963,130.3867 979.1713,130.043 L979.1713,131.6523 Z " fill="#000000"/><text fill="#000000" font-family="sans-serif" font-size="10" font-style="italic" lengthAdjust="spacing" textLength="60.7422" x="1034.6324" y="126.5791">&#171;decorator&#187;</text><text fill="#000000" font-family="sans-serif" font-size="9" lengthAdjust="spacing" textLength="150.2271" x="989.89" y="137.2915">ClientsRepFileFilterSortDecorator</text></g><!--class SortSpecFile--><g class="entity" data-qualified-name="decorators .............files ...................SortSpecFile" data-source-line="30" id="ent0005"><rect fill="#F1F1F1" height="28" rx="2.5" ry="2.5" style="stroke:#181818;stroke-width:0.5;" width="84.0742" x="1160.96" y="114.3569"/><ellipse cx="1173.96" cy="128.3569" fill="#ADD1B2" rx="9" ry="9" style="stroke:#181818;stroke-width:1;"/><path d="M1175.2413,131.6538 Q1174.8975,131.8256 1174.5225,131.9038 Q1174.1475,131.9975 1173.7256,131.9975 Q1172.2569,131.9975 1171.4756,131.0288 Q1170.71,130.06 1170.71,128.2163 Q1170.71,126.3725 1171.4756,125.4038 Q1172.2569,124.435 1173.7256,124.435 Q1174.1475,124.435 1174.5225,124.5288 Q1174.9131,124.6069 1175.2413,124.7788 L1175.2413,126.3881 Q1174.8663,126.0444 1174.5069,125.8881 Q1174.1631,125.7319 1173.8038,125.7319 Q1173.0069,125.7319 1172.6006,126.3569 Q1172.1944,126.9819 1172.1944,128.2163 Q1172.1944,129.4506 1172.6006,130.0756 Q1173.0069,130.7006 1173.8038,130.7006 Q1174.1631,130.7006 1174.5069,130.5444 Q1174.8663,130.3881 1175.2413,130.0444 L1175.2413,131.6538 Z " fill="#000000"/><text fill="#000000" font-family="sans-serif" font-size="9" lengthAdjust="spacing" textLength="56.0742" x="1185.96" y="131.4726">SortSpecFile</text></g><!--class FileClientFilter--><g class="entity" data-qualified-name="decorators .............files ...................FileClientFilter" data-source-line="31" id="ent0006"><rect fill="#F1F1F1" height="28" rx="2.5" ry="2.5" style="stroke:#181818;stroke-width:0.5;" width="92.7139" x="1262.64" y="114.3569"/><ellipse cx="1275.64" cy="128.3569" fill="#ADD1B2" rx="9" ry="9" style="stroke:#181818;stroke-width:1;"/><path d="M1276.9213,131.6538 Q1276.5775,131.8256 1276.2025,131.9038 Q1275.8275,131.9975 1275.4056,131.9975 Q1273.9369,131.9975 1273.1556,131.0288 Q1272.39,130.06 1272.39,128.2163 Q1272.39,126.3725 1273.1556,125.4038 Q1273.9369,124.435 1275.4056,124.435 Q1275.8275,124.435 1276.2025,124.5288 Q1276.5931,124.6069 1276.9213,124.7788 L1276.9213,126.3881 Q1276.5463,126.0444 1276.1869,125.8881 Q1275.8431,125.7319 1275.4838,125.7319 Q1274.6869,125.7319 1274.2806,126.3569 Q1273.8744,126.9819 1273.8744,128.2163 Q1273.8744,129.4506 1274.2806,130.0756 Q1274.6869,130.7006 1275.4838,130.7006 Q1275.8431,130.7006 1276.1869,130.5444 Q1276.5463,130.3881 1276.9213,130.0444 L1276.9213,131.6538 Z " fill="#000000"/><text fill="#000000" font-family="sans-serif" font-size="9" lengthAdjust="spacing" textLength="64.7139" x="1287.64" y="131.4726">FileClientFilter</text></g><!--class ClientsRepDBFilterSortDecorator--><g class="entity" data-qualified-name="decorators .............db ................ClientsRepDBFilterSortDecorator" data-source-line="34" id="ent0008"><rect fill="#F1F1F1" height="32.1172" rx="2.5" ry="2.5" style="stroke:#181818;stroke-width:0.5;" width="175.6167" x="539.19" y="112.2969"/><ellipse cx="552.19" cy="128.3555" fill="#ADD1B2" rx="9" ry="9" style="stroke:#181818;stroke-width:1;"/><path d="M553.4713,131.6523 Q553.1275,131.8242 552.7525,131.9023 Q552.3775,131.9961 551.9556,131.9961 Q550.4869,131.9961 549.7056,131.0273 Q548.94,130.0586 548.94,128.2148 Q548.94,126.3711 549.7056,125.4023 Q550.4869,124.4336 551.9556,124.4336 Q552.3775,124.4336 552.7525,124.5273 Q553.1431,124.6055 553.4713,124.7773 L553.4713,126.3867 Q553.0963,126.043 552.7369,125.8867 Q552.3931,125.7305 552.0338,125.7305 Q551.2369,125.7305 550.8306,126.3555 Q550.4244,126.9805 550.4244,128.2148 Q550.4244,129.4492 550.8306,130.0742 Q551.2369,130.6992 552.0338,130.6992 Q552.3931,130.6992 552.7369,130.543 Q553.0963,130.3867 553.4713,130.043 L553.4713,131.6523 Z " fill="#000000"/><text fill="#000000" font-family="sans-serif" font-size="10" font-style="italic" lengthAdjust="spacing" textLength="60.7422" x="607.6273" y="126.5791">&#171;decorator&#187;</text><text fill="#000000" font-family="sans-serif" font-size="9" lengthAdjust="spacing" textLength="147.6167" x="564.19" y="137.2915">ClientsRepDBFilterSortDecorator</text></g><!--class SortSpecDB--><g class="entity" data-qualified-name="decorators .............db ................SortSpecDB" data-source-line="35" id="ent0009"><rect fill="#F1F1F1" height="28" rx="2.5" ry="2.5" style="stroke:#181818;stroke-width:0.5;" width="81.4639" x="733.27" y="114.3569"/><ellipse cx="746.27" cy="128.3569" fill="#ADD1B2" rx="9" ry="9" style="stroke:#181818;stroke-width:1;"/><path d="M747.5513,131.6538 Q747.2075,131.8256 746.8325,131.9038 Q746.4575,131.9975 746.0356,131.9975 Q744.5669,131.9975 743.7856,131.0288 Q743.02,130.06 743.02,128.2163 Q743.02,126.3725 743.7856,125.4038 Q744.5669,124.435 746.0356,124.435 Q746.4575,124.435 746.8325,124.5288 Q747.2231,124.6069 747.5513,124.7788 L747.5513,126.3881 Q747.1763,126.0444 746.8169,125.8881 Q746.4731,125.7319 746.1138,125.7319 Q745.3169,125.7319 744.9106,126.3569 Q744.5044,126.9819 744.5044,128.2163 Q744.5044,129.4506 744.9106,130.0756 Q745.3169,130.7006 746.1138,130.7006 Q746.4731,130.7006 746.8169,130.5444 Q747.1763,130.3881 747.5513,130.0444 L747.5513,131.6538 Z " fill="#000000"/><text fill="#000000" font-family="sans-serif" font-size="9" lengthAdjust="spacing" textLength="53.4639" x="758.27" y="131.4726">SortSpecDB</text></g><!--class ClientFilter--><g class="entity" data-qualified-name="decorators .............db ................ClientFilter" data-source-line="36" id="ent0010"><rect fill="#F1F1F1" height="28" rx="2.5" ry="2.5" style="stroke:#181818;stroke-width:0.5;" width="76.999" x="832.5" y="114.3569"/><ellipse cx="845.5" cy="128.3569" fill="#ADD1B2" rx="9" ry="9" style="stroke:#181818;stroke-width:1;"/><path d="M846.7813,131.6538 Q846.4375,131.8256 846.0625,131.9038 Q845.6875,131.9975 845.2656,131.9975 Q843.7969,131.9975 843.0156,131.0288 Q842.25,130.06 842.25,128.2163 Q842.25,126.3725 843.0156,125.4038 Q843.7969,124.435 845.2656,124.435 Q845.6875,124.435 846.0625,124.5288 Q846.4531,124.6069 846.7813,124.7788 L846.7813,126.3881 Q846.4063,126.0444 846.0469,125.8881 Q845.7031,125.7319 845.3438,125.7319 Q844.5469,125.7319 844.1406,126.3569 Q843.7344,126.9819 843.7344,128.2163 Q843.7344,129.4506 844.1406,130.0756 Q844.5469,130.7006 845.3438,130.7006 Q845.7031,130.7006 846.0469,130.5444 Q846.4063,130.3881 846.7813,130.0444 L846.7813,131.6538 Z " fill="#000000"/><text fill="#000000" font-family="sans-serif" font-size="9" lengthAdjust="spacing" textLength="48.999" x="857.5" y="131.4726">ClientFilter</text></g><!--class ClientFilter--><g class="entity" data-qualified-name="decorators .............db .... ....ClientFilter" data-source-line="303" id="ent0062"><rect fill="#F1F1F1" height="32.1172" rx="2.5" ry="2.5" style="stroke:#181818;stroke-width:0.5;" width="83.585" x="47.21" y="112.2969"/><ellipse cx="60.21" cy="128.3555" fill="#ADD1B2" rx="9" ry="9" style="stroke:#181818;stroke-width:1;"/><path d="M61.4913,131.6523 Q61.1475,131.8242 60.7725,131.9023 Q60.3975,131.9961 59.9756,131.9961 Q58.5069,131.9961 57.7256,131.0273 Q56.96,130.0586 56.96,128.2148 Q56.96,126.3711 57.7256,125.4023 Q58.5069,124.4336 59.9756,124.4336 Q60.3975,124.4336 60.7725,124.5273 Q61.1631,124.6055 61.4913,124.7773 L61.4913,126.3867 Q61.1163,126.043 60.7569,125.8867 Q60.4131,125.7305 60.0538,125.7305 Q59.2569,125.7305 58.8506,126.3555 Q58.4444,126.9805 58.4444,128.2148 Q58.4444,129.4492 58.8506,130.0742 Q59.2569,130.6992 60.0538,130.6992 Q60.4131,130.6992 60.7569,130.543 Q61.1163,130.3867 61.4913,130.043 L61.4913,131.6523 Z " fill="#000000"/><text fill="#000000" font-family="sans-serif" font-size="10" font-style="italic" lengthAdjust="spacing" textLength="59.585" x="70.21" y="126.5791">&#171;dataclass&#187;</text><text fill="#000000" font-family="sans-serif" font-size="9" lengthAdjust="spacing" textLength="48.999" x="75.503" y="137.2915">ClientFilter</text></g><!--class SortSpecDB--><g class="entity" data-qualified-name="decorators .............db .... ....SortSpecDB" data-source-line="304" id="ent0063"><rect fill="#F1F1F1" height="32.1172" rx="2.5" ry="2.5" style="stroke:#181818;stroke-width:0.5;" width="83.585" x="149.21" y="112.2969"/><ellipse cx="162.21" cy="128.3555" fill="#ADD1B2" rx="9" ry="9" style="stroke:#181818;stroke-width:1;"/><path d="M163.4913,131.6523 Q163.1475,131.8242 162.7725,131.9023 Q162.3975,131.9961 161.9756,131.9961 Q160.5069,131.9961 159.7256,131.0273 Q158.96,130.0586 158.96,128.2148 Q158.96,126.3711 159.7256,125.4023 Q160.5069,124.4336 161.9756,124.4336 Q162.3975,124.4336 162.7725,124.5273 Q163.1631,124.6055 163.4913,124.7773 L163.4913,126.3867 Q163.1163,126.043 162.7569,125.8867 Q162.4131,125.7305 162.0538,125.7305 Q161.2569,125.7305 160.8506,126.3555 Q160.4444,126.9805 160.4444,128.2148 Q160.4444,129.4492 160.8506,130.0742 Q161.2569,130.6992 162.0538,130.6992 Q162.4131,130.6992 162.7569,130.543 Q163.1163,130.3867 163.4913,130.043 L163.4913,131.6523 Z " fill="#000000"/><text fill="#000000" font-family="sans-serif" font-size="10" font-style="italic" lengthAdjust="spacing" textLength="59.585" x="172.21" y="126.5791">&#171;dataclass&#187;</text><text fill="#000000" font-family="sans-serif" font-size="9" lengthAdjust="spacing" textLength="53.4639" x="175.2705" y="137.2915">SortSpecDB</text></g><!--class ClientsRepDBFilterSortDecorator--><g class="entity" data-qualified-name="decorators .............db .... ....ClientsRepDBFilterSortDecorator" data-source-line="306" id="ent0064"><rect fill="#F1F1F1" height="32.1172" rx="2.5" ry="2.5" style="stroke:#181818;stroke-width:0.5;" width="175.6167" x="47.19" y="276.4169"/><ellipse cx="60.19" cy="292.4755" fill="#ADD1B2" rx="9" ry="9" style="stroke:#181818;stroke-width:1;"/><path d="M61.4713,295.7723 Q61.1275,295.9442 60.7525,296.0223 Q60.3775,296.1161 59.9556,296.1161 Q58.4869,296.1161 57.7056,295.1473 Q56.94,294.1786 56.94,292.3348 Q56.94,290.4911 57.7056,289.5223 Q58.4869,288.5536 59.9556,288.5536 Q60.3775,288.5536 60.7525,288.6473 Q61.1431,288.7255 61.4713,288.8973 L61.4713,290.5067 Q61.0963,290.163 60.7369,290.0067 Q60.3931,289.8505 60.0338,289.8505 Q59.2369,289.8505 58.8306,290.4755 Q58.4244,291.1005 58.4244,292.3348 Q58.4244,293.5692 58.8306,294.1942 Q59.2369,294.8192 60.0338,294.8192 Q60.3931,294.8192 60.7369,294.663 Q61.0963,294.5067 61.4713,294.163 L61.4713,295.7723 Z " fill="#000000"/><text fill="#000000" font-family="sans-serif" font-size="10" font-style="italic" lengthAdjust="spacing" textLength="60.7422" x="115.6273" y="290.6991">&#171;decorator&#187;</text><text fill="#000000" font-family="sans-serif" font-size="9" lengthAdjust="spacing" textLength="147.6167" x="72.19" y="301.4115">ClientsRepDBFilterSortDecorator</text></g><!--class FileClientFilter--><g class="entity" data-qualified-name="decorators .............files .... ........FileClientFilter" data-source-line="320" id="ent0066"><rect fill="#F1F1F1" height="32.1172" rx="2.5" ry="2.5" style="stroke:#181818;stroke-width:0.5;" width="92.7139" x="288.64" y="112.2969"/><ellipse cx="301.64" cy="128.3555" fill="#ADD1B2" rx="9" ry="9" style="stroke:#181818;stroke-width:1;"/><path d="M302.9213,131.6523 Q302.5775,131.8242 302.2025,131.9023 Q301.8275,131.9961 301.4056,131.9961 Q299.9369,131.9961 299.1556,131.0273 Q298.39,130.0586 298.39,128.2148 Q298.39,126.3711 299.1556,125.4023 Q299.9369,124.4336 301.4056,124.4336 Q301.8275,124.4336 302.2025,124.5273 Q302.5931,124.6055 302.9213,124.7773 L302.9213,126.3867 Q302.5463,126.043 302.1869,125.8867 Q301.8431,125.7305 301.4838,125.7305 Q300.6869,125.7305 300.2806,126.3555 Q299.8744,126.9805 299.8744,128.2148 Q299.8744,129.4492 300.2806,130.0742 Q300.6869,130.6992 301.4838,130.6992 Q301.8431,130.6992 302.1869,130.543 Q302.5463,130.3867 302.9213,130.043 L302.9213,131.6523 Z " fill="#000000"/><text fill="#000000" font-family="sans-serif" font-size="10" font-style="italic" lengthAdjust="spacing" textLength="59.585" x="316.2045" y="126.5791">&#171;dataclass&#187;</text><text fill="#000000" font-family="sans-serif" font-size="9" lengthAdjust="spacing" textLength="64.7139" x="313.64" y="137.2915">FileClientFilter</text></g><!--class SortSpecFile--><g class="entity" data-qualified-name="decorators .............files .... ........SortSpecFile" data-source-line="321" id="ent0067"><rect fill="#F1F1F1" height="32.1172" rx="2.5" ry="2.5" style="stroke:#181818;stroke-width:0.5;" width="84.0742" x="398.96" y="112.2969"/><ellipse cx="411.96" cy="128.3555" fill="#ADD1B2" rx="9" ry="9" style="stroke:#181818;stroke-width:1;"/><path d="M413.2413,131.6523 Q412.8975,131.8242 412.5225,131.9023 Q412.1475,131.9961 411.7256,131.9961 Q410.2569,131.9961 409.4756,131.0273 Q408.71,130.0586 408.71,128.2148 Q408.71,126.3711 409.4756,125.4023 Q410.2569,124.4336 411.7256,124.4336 Q412.1475,124.4336 412.5225,124.5273 Q412.9131,124.6055 413.2413,124.7773 L413.2413,126.3867 Q412.8663,126.043 412.5069,125.8867 Q412.1631,125.7305 411.8038,125.7305 Q411.0069,125.7305 410.6006,126.3555 Q410.1944,126.9805 410.1944,128.2148 Q410.1944,129.4492 410.6006,130.0742 Q411.0069,130.6992 411.8038,130.6992 Q412.1631,130.6992 412.5069,130.543 Q412.8663,130.3867 413.2413,130.043 L413.2413,131.6523 Z " fill="#000000"/><text fill="#000000" font-family="sans-serif" font-size="10" font-style="italic" lengthAdjust="spacing" textLength="59.585" x="422.2046" y="126.5791">&#171;dataclass&#187;</text><text fill="#000000" font-family="sans-serif" font-size="9" lengthAdjust="spacing" textLength="56.0742" x="423.96" y="137.2915">SortSpecFile</text></g><!--class ClientsRepFileFilterSortDecorator--><g class="entity" data-qualified-name="decorators .............files .... ........ClientsRepFileFilterSortDecorator" data-source-line="323" id="ent0068"><rect fill="#F1F1F1" height="32.1172" rx="2.5" ry="2.5" style="stroke:#181818;stroke-width:0.5;" width="178.2271" x="288.89" y="276.4169"/><ellipse cx="301.89" cy="292.4755" fill="#ADD1B2" rx="9" ry="9" style="stroke:#181818;stroke-width:1;"/><path d="M303.1713,295.7723 Q302.8275,295.9442 302.4525,296.0223 Q302.0775,296.1161 301.6556,296.1161 Q300.1869,296.1161 299.4056,295.1473 Q298.64,294.1786 298.64,292.3348 Q298.64,290.4911 299.4056,289.5223 Q300.1869,288.5536 301.6556,288.5536 Q302.0775,288.5536 302.4525,288.6473 Q302.8431,288.7255 303.1713,288.8973 L303.1713,290.5067 Q302.7963,290.163 302.4369,290.0067 Q302.0931,289.8505 301.7338,289.8505 Q300.9369,289.8505 300.5306,290.4755 Q300.1244,291.1005 300.1244,292.3348 Q300.1244,293.5692 300.5306,294.1942 Q300.9369,294.8192 301.7338,294.8192 Q302.0931,294.8192 302.4369,294.663 Q302.7963,294.5067 303.1713,294.163 L303.1713,295.7723 Z " fill="#000000"/><text fill="#000000" font-family="sans-serif" font-size="10" font-style="italic" lengthAdjust="spacing" textLength="60.7422" x="358.6324" y="290.6991">&#171;decorator&#187;</text><text fill="#000000" font-family="sans-serif" font-size="9" lengthAdjust="spacing" textLength="150.2271" x="313.89" y="301.4115">ClientsRepFileFilterSortDecorator</text></g><!--class BaseClientsRepo--><g class="entity" data-qualified-name="repos ..............BaseClientsRepo" data-source-line="208" id="ent0049"><rect fill="#F1F1F1" height="28" rx="2.5" ry="2.5" style="stroke:#181818;stroke-width:0.5;" width="103.6694" x="2365.17" y="278.4769"/><ellipse cx="2378.17" cy="292.4769" fill="#ADD1B2" rx="9" ry="9" style="stroke:#181818;stroke-width:1;"/><path d="M2379.4513,295.7738 Q2379.1075,295.9456 2378.7325,296.0238 Q2378.3575,296.1175 2377.9356,296.1175 Q2376.4669,296.1175 2375.6856,295.1488 Q2374.92,294.18 2374.92,292.3363 Q2374.92,290.4925 2375.6856,289.5238 Q2376.4669,288.555 2377.9356,288.555 Q2378.3575,288.555 2378.7325,288.6488 Q2379.1231,288.7269 2379.4513,288.8988 L2379.4513,290.5081 Q2379.0763,290.1644 2378.7169,290.0081 Q2378.3731,289.8519 2378.0138,289.8519 Q2377.2169,289.8519 2376.8106,290.4769 Q2376.4044,291.1019 2376.4044,292.3363 Q2376.4044,293.5706 2376.8106,294.1956 Q2377.2169,294.8206 2378.0138,294.8206 Q2378.3731,294.8206 2378.7169,294.6644 Q2379.0763,294.5081 2379.4513,294.1644 L2379.4513,295.7738 Z " fill="#000000"/><text fill="#000000" font-family="sans-serif" font-size="9" lengthAdjust="spacing" textLength="75.6694" x="2390.17" y="295.5926">BaseClientsRepo</text></g><!--class ClientsRepJson--><g class="entity" data-qualified-name="repos ..............ClientsRepJson" data-source-line="208" id="ent0050"><rect fill="#F1F1F1" height="28" rx="2.5" ry="2.5" style="stroke:#181818;stroke-width:0.5;" width="94.8013" x="2203.6" y="404.5969"/><ellipse cx="2216.6" cy="418.5969" fill="#ADD1B2" rx="9" ry="9" style="stroke:#181818;stroke-width:1;"/><path d="M2217.8813,421.8938 Q2217.5375,422.0656 2217.1625,422.1438 Q2216.7875,422.2375 2216.3656,422.2375 Q2214.8969,422.2375 2214.1156,421.2688 Q2213.35,420.3 2213.35,418.4563 Q2213.35,416.6125 2214.1156,415.6438 Q2214.8969,414.675 2216.3656,414.675 Q2216.7875,414.675 2217.1625,414.7688 Q2217.5531,414.8469 2217.8813,415.0188 L2217.8813,416.6281 Q2217.5063,416.2844 2217.1469,416.1281 Q2216.8031,415.9719 2216.4438,415.9719 Q2215.6469,415.9719 2215.2406,416.5969 Q2214.8344,417.2219 2214.8344,418.4563 Q2214.8344,419.6906 2215.2406,420.3156 Q2215.6469,420.9406 2216.4438,420.9406 Q2216.8031,420.9406 2217.1469,420.7844 Q2217.5063,420.6281 2217.8813,420.2844 L2217.8813,421.8938 Z " fill="#000000"/><text fill="#000000" font-family="sans-serif" font-size="9" lengthAdjust="spacing" textLength="66.8013" x="2228.6" y="421.7126">ClientsRepJson</text></g><!--class ClientsRepYaml--><g class="entity" data-qualified-name="repos ..............ClientsRepYaml" data-source-line="209" id="ent0052"><rect fill="#F1F1F1" height="28" rx="2.5" ry="2.5" style="stroke:#181818;stroke-width:0.5;" width="98.5278" x="2316.74" y="404.5969"/><ellipse cx="2329.74" cy="418.5969" fill="#ADD1B2" rx="9" ry="9" style="stroke:#181818;stroke-width:1;"/><path d="M2331.0213,421.8938 Q2330.6775,422.0656 2330.3025,422.1438 Q2329.9275,422.2375 2329.5056,422.2375 Q2328.0369,422.2375 2327.2556,421.2688 Q2326.49,420.3 2326.49,418.4563 Q2326.49,416.6125 2327.2556,415.6438 Q2328.0369,414.675 2329.5056,414.675 Q2329.9275,414.675 2330.3025,414.7688 Q2330.6931,414.8469 2331.0213,415.0188 L2331.0213,416.6281 Q2330.6463,416.2844 2330.2869,416.1281 Q2329.9431,415.9719 2329.5838,415.9719 Q2328.7869,415.9719 2328.3806,416.5969 Q2327.9744,417.2219 2327.9744,418.4563 Q2327.9744,419.6906 2328.3806,420.3156 Q2328.7869,420.9406 2329.5838,420.9406 Q2329.9431,420.9406 2330.2869,420.7844 Q2330.6463,420.6281 2331.0213,420.2844 L2331.0213,421.8938 Z " fill="#000000"/><text fill="#000000" font-family="sans-serif" font-size="9" lengthAdjust="spacing" textLength="70.5278" x="2341.74" y="421.7126">ClientsRepYaml</text></g><!--class BaseClientsRepo--><g class="entity" data-qualified-name="repos ..............base ...................BaseClientsRepo" data-source-line="42" id="ent0013"><rect fill="#F1F1F1" height="32.1172" rx="2.5" ry="2.5" style="stroke:#181818;stroke-width:0.5;" width="103.6694" x="1802.17" y="276.4169"/><ellipse cx="1815.17" cy="292.4755" fill="#A9DCDF" rx="9" ry="9" style="stroke:#181818;stroke-width:1;"/><path d="M1814.6856,289.7567 L1813.9981,292.7411 L1815.3575,292.7411 L1814.6856,289.7567 Z M1813.795,288.4286 L1815.5606,288.4286 L1817.5294,295.7255 L1816.0919,295.7255 L1815.6388,293.9286 L1813.7169,293.9286 L1813.2794,295.7255 L1811.8263,295.7255 L1813.795,288.4286 Z " fill="#000000"/><text fill="#000000" font-family="sans-serif" font-size="10" font-style="italic" lengthAdjust="spacing" textLength="53.501" x="1838.2542" y="290.6991">&#171;abstract&#187;</text><text fill="#000000" font-family="sans-serif" font-size="9" font-style="italic" lengthAdjust="spacing" textLength="75.6694" x="1827.17" y="301.4115">BaseClientsRepo</text></g><!--class ClientsRepJson--><g class="entity" data-qualified-name="repos ..............files ....................ClientsRepJson" data-source-line="45" id="ent0015"><rect fill="#F1F1F1" height="28" rx="2.5" ry="2.5" style="stroke:#181818;stroke-width:0.5;" width="94.8013" x="1960.6" y="404.5969"/><ellipse cx="1973.6" cy="418.5969" fill="#ADD1B2" rx="9" ry="9" style="stroke:#181818;stroke-width:1;"/><path d="M1974.8813,421.8938 Q1974.5375,422.0656 1974.1625,422.1438 Q1973.7875,422.2375 1973.3656,422.2375 Q1971.8969,422.2375 1971.1156,421.2688 Q1970.35,420.3 1970.35,418.4563 Q1970.35,416.6125 1971.1156,415.6438 Q1971.8969,414.675 1973.3656,414.675 Q1973.7875,414.675 1974.1625,414.7688 Q1974.5531,414.8469 1974.8813,415.0188 L1974.8813,416.6281 Q1974.5063,416.2844 1974.1469,416.1281 Q1973.8031,415.9719 1973.4438,415.9719 Q1972.6469,415.9719 1972.2406,416.5969 Q1971.8344,417.2219 1971.8344,418.4563 Q1971.8344,419.6906 1972.2406,420.3156 Q1972.6469,420.9406 1973.4438,420.9406 Q1973.8031,420.9406 1974.1469,420.7844 Q1974.5063,420.6281 1974.8813,420.2844 L1974.8813,421.8938 Z " fill="#000000"/><text fill="#000000" font-family="sans-serif" font-size="9" lengthAdjust="spacing" textLength="66.8013" x="1985.6" y="421.7126">ClientsRepJson</text></g><!--class ClientsRepYaml--><g class="entity" data-qualified-name="repos ..............files ....................ClientsRepYaml" data-source-line="46" id="ent0016"><rect fill="#F1F1F1" height="28" rx="2.5" ry="2.5" style="stroke:#181818;stroke-width:0.5;" width="98.5278" x="2073.74" y="404.5969"/><ellipse cx="2086.74" cy="418.5969" fill="#ADD1B2" rx="9" ry="9" style="stroke:#181818;stroke-width:1;"/><path d="M2088.0213,421.8938 Q2087.6775,422.0656 2087.3025,422.1438 Q2086.9275,422.2375 2086.5056,422.2375 Q2085.0369,422.2375 2084.2556,421.2688 Q2083.49,420.3 2083.49,418.4563 Q2083.49,416.6125 2084.2556,415.6438 Q2085.0369,414.675 2086.5056,414.675 Q2086.9275,414.675 2087.3025,414.7688 Q2087.6931,414.8469 2088.0213,415.0188 L2088.0213,416.6281 Q2087.6463,416.2844 2087.2869,416.1281 Q2086.9431,415.9719 2086.5838,415.9719 Q2085.7869,415.9719 2085.3806,416.5969 Q2084.9744,417.2219 2084.9744,418.4563 Q2084.9744,419.6906 2085.3806,420.3156 Q2085.7869,420.9406 2086.5838,420.9406 Q2086.9431,420.9406 2087.2869,420.7844 Q2087.6463,420.6281 2088.0213,420.2844 L2088.0213,421.8938 Z " fill="#000000"/><text fill="#000000" font-family="sans-serif" font-size="9" lengthAdjust="spacing" textLength="70.5278" x="2098.74" y="421.7126">ClientsRepYaml</text></g><!--class ClientsRepDBAdapter--><g class="entity" data-qualified-name="repos ..............adapter ..........ClientsRepDBAdapter" data-source-line="49" id="ent0018"><rect fill="#F1F1F1" height="32.1172" rx="2.5" ry="2.5" style="stroke:#181818;stroke-width:0.5;" width="125.2158" x="1779.39" y="402.5369"/><ellipse cx="1792.39" cy="418.5955" fill="#ADD1B2" rx="9" ry="9" style="stroke:#181818;stroke-width:1;"/><path d="M1793.6713,421.8923 Q1793.3275,422.0642 1792.9525,422.1423 Q1792.5775,422.2361 1792.1556,422.2361 Q1790.6869,422.2361 1789.9056,421.2673 Q1789.14,420.2986 1789.14,418.4548 Q1789.14,416.6111 1789.9056,415.6423 Q1790.6869,414.6736 1792.1556,414.6736 Q1792.5775,414.6736 1792.9525,414.7673 Q1793.3431,414.8455 1793.6713,415.0173 L1793.6713,416.6267 Q1793.2963,416.283 1792.9369,416.1267 Q1792.5931,415.9705 1792.2338,415.9705 Q1791.4369,415.9705 1791.0306,416.5955 Q1790.6244,417.2205 1790.6244,418.4548 Q1790.6244,419.6892 1791.0306,420.3142 Q1791.4369,420.9392 1792.2338,420.9392 Q1792.5931,420.9392 1792.9369,420.783 Q1793.2963,420.6267 1793.6713,420.283 L1793.6713,421.8923 Z " fill="#000000"/><text fill="#000000" font-family="sans-serif" font-size="10" font-style="italic" lengthAdjust="spacing" textLength="51.3721" x="1827.3119" y="416.8191">&#171;adapter&#187;</text><text fill="#000000" font-family="sans-serif" font-size="9" lengthAdjust="spacing" textLength="97.2158" x="1804.39" y="427.5315">ClientsRepDBAdapter</text></g><!--class BaseClientsRepo--><g class="entity" data-qualified-name="repos ..............base .......BaseClientsRepo" data-source-line="164" id="ent0045"><rect fill="#F1F1F1" height="32.1172" rx="2.5" ry="2.5" style="stroke:#181818;stroke-width:0.5;" width="103.6694" x="1962.17" y="276.4169"/><ellipse cx="1975.17" cy="292.4755" fill="#A9DCDF" rx="9" ry="9" style="stroke:#181818;stroke-width:1;"/><path d="M1974.6856,289.7567 L1973.9981,292.7411 L1975.3575,292.7411 L1974.6856,289.7567 Z M1973.795,288.4286 L1975.5606,288.4286 L1977.5294,295.7255 L1976.0919,295.7255 L1975.6388,293.9286 L1973.7169,293.9286 L1973.2794,295.7255 L1971.8263,295.7255 L1973.795,288.4286 Z " fill="#000000"/><text fill="#000000" font-family="sans-serif" font-size="10" font-style="italic" lengthAdjust="spacing" textLength="53.501" x="1998.2542" y="290.6991">&#171;abstract&#187;</text><text fill="#000000" font-family="sans-serif" font-size="9" font-style="italic" lengthAdjust="spacing" textLength="75.6694" x="1987.17" y="301.4115">BaseClientsRepo</text></g><!--class ClientsRepJson--><g class="entity" data-qualified-name="repos ..............files ........ClientsRepJson" data-source-line="193" id="ent0047"><rect fill="#F1F1F1" height="28" rx="2.5" ry="2.5" style="stroke:#181818;stroke-width:0.5;" width="94.8013" x="2121.6" y="278.4769"/><ellipse cx="2134.6" cy="292.4769" fill="#ADD1B2" rx="9" ry="9" style="stroke:#181818;stroke-width:1;"/><path d="M2135.8813,295.7738 Q2135.5375,295.9456 2135.1625,296.0238 Q2134.7875,296.1175 2134.3656,296.1175 Q2132.8969,296.1175 2132.1156,295.1488 Q2131.35,294.18 2131.35,292.3363 Q2131.35,290.4925 2132.1156,289.5238 Q2132.8969,288.555 2134.3656,288.555 Q2134.7875,288.555 2135.1625,288.6488 Q2135.5531,288.7269 2135.8813,288.8988 L2135.8813,290.5081 Q2135.5063,290.1644 2135.1469,290.0081 Q2134.8031,289.8519 2134.4438,289.8519 Q2133.6469,289.8519 2133.2406,290.4769 Q2132.8344,291.1019 2132.8344,292.3363 Q2132.8344,293.5706 2133.2406,294.1956 Q2133.6469,294.8206 2134.4438,294.8206 Q2134.8031,294.8206 2135.1469,294.6644 Q2135.5063,294.5081 2135.8813,294.1644 L2135.8813,295.7738 Z " fill="#000000"/><text fill="#000000" font-family="sans-serif" font-size="9" lengthAdjust="spacing" textLength="66.8013" x="2146.6" y="295.5926">ClientsRepJson</text></g><!--class ClientsRepYaml--><g class="entity" data-qualified-name="repos ..............files ........ClientsRepYaml" data-source-line="200" id="ent0048"><rect fill="#F1F1F1" height="28" rx="2.5" ry="2.5" style="stroke:#181818;stroke-width:0.5;" width="98.5278" x="2234.74" y="278.4769"/><ellipse cx="2247.74" cy="292.4769" fill="#ADD1B2" rx="9" ry="9" style="stroke:#181818;stroke-width:1;"/><path d="M2249.0213,295.7738 Q2248.6775,295.9456 2248.3025,296.0238 Q2247.9275,296.1175 2247.5056,296.1175 Q2246.0369,296.1175 2245.2556,295.1488 Q2244.49,294.18 2244.49,292.3363 Q2244.49,290.4925 2245.2556,289.5238 Q2246.0369,288.555 2247.5056,288.555 Q2247.9275,288.555 2248.3025,288.6488 Q2248.6931,288.7269 2249.0213,288.8988 L2249.0213,290.5081 Q2248.6463,290.1644 2248.2869,290.0081 Q2247.9431,289.8519 2247.5838,289.8519 Q2246.7869,289.8519 2246.3806,290.4769 Q2245.9744,291.1019 2245.9744,292.3363 Q2245.9744,293.5706 2246.3806,294.1956 Q2246.7869,294.8206 2247.5838,294.8206 Q2247.9431,294.8206 2248.2869,294.6644 Q2248.6463,294.5081 2249.0213,294.1644 L2249.0213,295.7738 Z " fill="#000000"/><text fill="#000000" font-family="sans-serif" font-size="9" lengthAdjust="spacing" textLength="70.5278" x="2259.74" y="295.5926">ClientsRepYaml</text></g><!--class PgDB--><g class="entity" data-qualified-name="db ..... ........PgDB" data-source-line="54" id="ent0020"><rect fill="#F1F1F1" height="32.1172" rx="2.5" ry="2.5" style="stroke:#181818;stroke-width:0.5;" width="82.2178" x="1468.89" y="602.6569"/><ellipse cx="1481.89" cy="618.7155" fill="#ADD1B2" rx="9" ry="9" style="stroke:#181818;stroke-width:1;"/><path d="M1483.1713,622.0123 Q1482.8275,622.1842 1482.4525,622.2623 Q1482.0775,622.3561 1481.6556,622.3561 Q1480.1869,622.3561 1479.4056,621.3873 Q1478.64,620.4186 1478.64,618.5748 Q1478.64,616.7311 1479.4056,615.7623 Q1480.1869,614.7936 1481.6556,614.7936 Q1482.0775,614.7936 1482.4525,614.8873 Q1482.8431,614.9655 1483.1713,615.1373 L1483.1713,616.7467 Q1482.7963,616.403 1482.4369,616.2467 Q1482.0931,616.0905 1481.7338,616.0905 Q1480.9369,616.0905 1480.5306,616.7155 Q1480.1244,617.3405 1480.1244,618.5748 Q1480.1244,619.8092 1480.5306,620.4342 Q1480.9369,621.0592 1481.7338,621.0592 Q1482.0931,621.0592 1482.4369,620.903 Q1482.7963,620.7467 1483.1713,620.403 L1483.1713,622.0123 Z " fill="#000000"/><text fill="#000000" font-family="sans-serif" font-size="10" font-style="italic" lengthAdjust="spacing" textLength="58.2178" x="1491.89" y="616.9391">&#171;singleton&#187;</text><text fill="#000000" font-family="sans-serif" font-size="9" lengthAdjust="spacing" textLength="24.2446" x="1508.8766" y="627.6515">PgDB</text></g><!--class ClientsRepDB--><g class="entity" data-qualified-name="db ..... ........ClientsRepDB" data-source-line="55" id="ent0021"><rect fill="#F1F1F1" height="28" rx="2.5" ry="2.5" style="stroke:#181818;stroke-width:0.5;" width="89.3521" x="1581.32" y="528.6569"/><ellipse cx="1594.32" cy="542.6569" fill="#ADD1B2" rx="9" ry="9" style="stroke:#181818;stroke-width:1;"/><path d="M1595.6013,545.9538 Q1595.2575,546.1256 1594.8825,546.2038 Q1594.5075,546.2975 1594.0856,546.2975 Q1592.6169,546.2975 1591.8356,545.3288 Q1591.07,544.36 1591.07,542.5163 Q1591.07,540.6725 1591.8356,539.7038 Q1592.6169,538.735 1594.0856,538.735 Q1594.5075,538.735 1594.8825,538.8288 Q1595.2731,538.9069 1595.6013,539.0788 L1595.6013,540.6881 Q1595.2263,540.3444 1594.8669,540.1881 Q1594.5231,540.0319 1594.1638,540.0319 Q1593.3669,540.0319 1592.9606,540.6569 Q1592.5544,541.2819 1592.5544,542.5163 Q1592.5544,543.7506 1592.9606,544.3756 Q1593.3669,545.0006 1594.1638,545.0006 Q1594.5231,545.0006 1594.8669,544.8444 Q1595.2263,544.6881 1595.6013,544.3444 L1595.6013,545.9538 Z " fill="#000000"/><text fill="#000000" font-family="sans-serif" font-size="9" lengthAdjust="spacing" textLength="61.3521" x="1606.32" y="545.7726">ClientsRepDB</text></g><!--class ImportSummary--><g class="entity" data-qualified-name="db ..... ........ImportSummary" data-source-line="56" id="ent0022"><rect fill="#F1F1F1" height="32.1172" rx="2.5" ry="2.5" style="stroke:#181818;stroke-width:0.5;" width="101.3623" x="1569.32" y="602.6569"/><ellipse cx="1582.32" cy="618.7155" fill="#ADD1B2" rx="9" ry="9" style="stroke:#181818;stroke-width:1;"/><path d="M1583.6013,622.0123 Q1583.2575,622.1842 1582.8825,622.2623 Q1582.5075,622.3561 1582.0856,622.3561 Q1580.6169,622.3561 1579.8356,621.3873 Q1579.07,620.4186 1579.07,618.5748 Q1579.07,616.7311 1579.8356,615.7623 Q1580.6169,614.7936 1582.0856,614.7936 Q1582.5075,614.7936 1582.8825,614.8873 Q1583.2731,614.9655 1583.6013,615.1373 L1583.6013,616.7467 Q1583.2263,616.403 1582.8669,616.2467 Q1582.5231,616.0905 1582.1638,616.0905 Q1581.3669,616.0905 1580.9606,616.7155 Q1580.5544,617.3405 1580.5544,618.5748 Q1580.5544,619.8092 1580.9606,620.4342 Q1581.3669,621.0592 1582.1638,621.0592 Q1582.5231,621.0592 1582.8669,620.903 Q1583.2263,620.7467 1583.6013,620.403 L1583.6013,622.0123 Z " fill="#000000"/><text fill="#000000" font-family="sans-serif" font-size="10" font-style="italic" lengthAdjust="spacing" textLength="50.5957" x="1605.7033" y="616.9391">&#171;typedef&#187;</text><text fill="#000000" font-family="sans-serif" font-size="9" lengthAdjust="spacing" textLength="73.3623" x="1594.32" y="627.6515">ImportSummary</text></g><!--class ClientShort--><g class="entity" data-qualified-name="domain ........ClientShort" data-source-line="60" id="ent0024"><rect fill="#F1F1F1" height="32.1172" rx="2.5" ry="2.5" style="stroke:#181818;stroke-width:0.5;" width="78.2075" x="2445.9" y="602.6569"/><ellipse cx="2458.9" cy="618.7155" fill="#ADD1B2" rx="9" ry="9" style="stroke:#181818;stroke-width:1;"/><path d="M2460.1813,622.0123 Q2459.8375,622.1842 2459.4625,622.2623 Q2459.0875,622.3561 2458.6656,622.3561 Q2457.1969,622.3561 2456.4156,621.3873 Q2455.65,620.4186 2455.65,618.5748 Q2455.65,616.7311 2456.4156,615.7623 Q2457.1969,614.7936 2458.6656,614.7936 Q2459.0875,614.7936 2459.4625,614.8873 Q2459.8531,614.9655 2460.1813,615.1373 L2460.1813,616.7467 Q2459.8063,616.403 2459.4469,616.2467 Q2459.1031,616.0905 2458.7438,616.0905 Q2457.9469,616.0905 2457.5406,616.7155 Q2457.1344,617.3405 2457.1344,618.5748 Q2457.1344,619.8092 2457.5406,620.4342 Q2457.9469,621.0592 2458.7438,621.0592 Q2459.1031,621.0592 2459.4469,620.903 Q2459.8063,620.7467 2460.1813,620.403 L2460.1813,622.0123 Z " fill="#000000"/><text fill="#000000" font-family="sans-serif" font-size="10" font-style="italic" lengthAdjust="spacing" textLength="41.2646" x="2475.3714" y="616.9391">&#171;entity&#187;</text><text fill="#000000" font-family="sans-serif" font-size="9" lengthAdjust="spacing" textLength="50.2075" x="2470.9" y="627.6515">ClientShort</text></g><!--class Client--><g class="entity" data-qualified-name="domain ........Client" data-source-line="61" id="ent0025"><rect fill="#F1F1F1" height="32.1172" rx="2.5" ry="2.5" style="stroke:#181818;stroke-width:0.5;" width="65.2646" x="2455.37" y="666.7669"/><ellipse cx="2468.37" cy="682.8255" fill="#ADD1B2" rx="9" ry="9" style="stroke:#181818;stroke-width:1;"/><path d="M2469.6513,686.1223 Q2469.3075,686.2942 2468.9325,686.3723 Q2468.5575,686.4661 2468.1356,686.4661 Q2466.6669,686.4661 2465.8856,685.4973 Q2465.12,684.5286 2465.12,682.6848 Q2465.12,680.8411 2465.8856,679.8723 Q2466.6669,678.9036 2468.1356,678.9036 Q2468.5575,678.9036 2468.9325,678.9973 Q2469.3231,679.0755 2469.6513,679.2473 L2469.6513,680.8567 Q2469.2763,680.513 2468.9169,680.3567 Q2468.5731,680.2005 2468.2138,680.2005 Q2467.4169,680.2005 2467.0106,680.8255 Q2466.6044,681.4505 2466.6044,682.6848 Q2466.6044,683.9192 2467.0106,684.5442 Q2467.4169,685.1692 2468.2138,685.1692 Q2468.5731,685.1692 2468.9169,685.013 Q2469.2763,684.8567 2469.6513,684.513 L2469.6513,686.1223 Z " fill="#000000"/><text fill="#000000" font-family="sans-serif" font-size="10" font-style="italic" lengthAdjust="spacing" textLength="41.2646" x="2478.37" y="681.0491">&#171;entity&#187;</text><text fill="#000000" font-family="sans-serif" font-size="9" lengthAdjust="spacing" textLength="26.0552" x="2485.9747" y="691.7615">Client</text></g><!--class ClientsRepDBAdapter--><g class="entity" data-qualified-name="repos.adapter ..........ClientsRepDBAdapter" data-source-line="280" id="ent0059"><rect fill="#F1F1F1" height="32.1172" rx="2.5" ry="2.5" style="stroke:#181818;stroke-width:0.5;" width="125.2158" x="2854.39" y="112.2969"/><ellipse cx="2867.39" cy="128.3555" fill="#ADD1B2" rx="9" ry="9" style="stroke:#181818;stroke-width:1;"/><path d="M2868.6713,131.6523 Q2868.3275,131.8242 2867.9525,131.9023 Q2867.5775,131.9961 2867.1556,131.9961 Q2865.6869,131.9961 2864.9056,131.0273 Q2864.14,130.0586 2864.14,128.2148 Q2864.14,126.3711 2864.9056,125.4023 Q2865.6869,124.4336 2867.1556,124.4336 Q2867.5775,124.4336 2867.9525,124.5273 Q2868.3431,124.6055 2868.6713,124.7773 L2868.6713,126.3867 Q2868.2963,126.043 2867.9369,125.8867 Q2867.5931,125.7305 2867.2338,125.7305 Q2866.4369,125.7305 2866.0306,126.3555 Q2865.6244,126.9805 2865.6244,128.2148 Q2865.6244,129.4492 2866.0306,130.0742 Q2866.4369,130.6992 2867.2338,130.6992 Q2867.5931,130.6992 2867.9369,130.543 Q2868.2963,130.3867 2868.6713,130.043 L2868.6713,131.6523 Z " fill="#000000"/><text fill="#000000" font-family="sans-serif" font-size="10" font-style="italic" lengthAdjust="spacing" textLength="51.3721" x="2902.3119" y="126.5791">&#171;adapter&#187;</text><text fill="#000000" font-family="sans-serif" font-size="9" lengthAdjust="spacing" textLength="97.2158" x="2879.39" y="137.2915">ClientsRepDBAdapter</text></g><!--class BaseClientsRepo--><g class="entity" data-qualified-name="BaseClientsRepo" data-source-line="339" id="ent0069"><rect fill="#F1F1F1" height="28" rx="2.5" ry="2.5" style="stroke:#181818;stroke-width:0.5;" width="103.6694" x="1605.17" y="278.4769"/><ellipse cx="1618.17" cy="292.4769" fill="#ADD1B2" rx="9" ry="9" style="stroke:#181818;stroke-width:1;"/><path d="M1619.4513,295.7738 Q1619.1075,295.9456 1618.7325,296.0238 Q1618.3575,296.1175 1617.9356,296.1175 Q1616.4669,296.1175 1615.6856,295.1488 Q1614.92,294.18 1614.92,292.3363 Q1614.92,290.4925 1615.6856,289.5238 Q1616.4669,288.555 1617.9356,288.555 Q1618.3575,288.555 1618.7325,288.6488 Q1619.1231,288.7269 1619.4513,288.8988 L1619.4513,290.5081 Q1619.0763,290.1644 1618.7169,290.0081 Q1618.3731,289.8519 1618.0138,289.8519 Q1617.2169,289.8519 1616.8106,290.4769 Q1616.4044,291.1019 1616.4044,292.3363 Q1616.4044,293.5706 1616.8106,294.1956 Q1617.2169,294.8206 1618.0138,294.8206 Q1618.3731,294.8206 1618.7169,294.6644 Q1619.0763,294.5081 1619.4513,294.1644 L1619.4513,295.7738 Z " fill="#000000"/><text fill="#000000" font-family="sans-serif" font-size="9" lengthAdjust="spacing" textLength="75.6694" x="1630.17" y="295.5926">BaseClientsRepo</text></g><!--class ClientsRepDBAdapter--><g class="entity" data-qualified-name="ClientsRepDBAdapter" data-source-line="339" id="ent0070"><rect fill="#F1F1F1" height="28" rx="2.5" ry="2.5" style="stroke:#181818;stroke-width:0.5;" width="125.2158" x="1559.39" y="404.5969"/><ellipse cx="1572.39" cy="418.5969" fill="#ADD1B2" rx="9" ry="9" style="stroke:#181818;stroke-width:1;"/><path d="M1573.6713,421.8938 Q1573.3275,422.0656 1572.9525,422.1438 Q1572.5775,422.2375 1572.1556,422.2375 Q1570.6869,422.2375 1569.9056,421.2688 Q1569.14,420.3 1569.14,418.4563 Q1569.14,416.6125 1569.9056,415.6438 Q1570.6869,414.675 1572.1556,414.675 Q1572.5775,414.675 1572.9525,414.7688 Q1573.3431,414.8469 1573.6713,415.0188 L1573.6713,416.6281 Q1573.2963,416.2844 1572.9369,416.1281 Q1572.5931,415.9719 1572.2338,415.9719 Q1571.4369,415.9719 1571.0306,416.5969 Q1570.6244,417.2219 1570.6244,418.4563 Q1570.6244,419.6906 1571.0306,420.3156 Q1571.4369,420.9406 1572.2338,420.9406 Q1572.5931,420.9406 1572.9369,420.7844 Q1573.2963,420.6281 1573.6713,420.2844 L1573.6713,421.8938 Z " fill="#000000"/><text fill="#000000" font-family="sans-serif" font-size="9" lengthAdjust="spacing" textLength="97.2158" x="1584.39" y="421.7126">ClientsRepDBAdapter</text></g><!--class ClientsRepDBFilterSortDecorator--><g class="entity" data-qualified-name="ClientsRepDBFilterSortDecorator" data-source-line="342" id="ent0073"><rect fill="#F1F1F1" height="28" rx="2.5" ry="2.5" style="stroke:#181818;stroke-width:0.5;" width="175.6167" x="1411.19" y="278.4769"/><ellipse cx="1424.19" cy="292.4769" fill="#ADD1B2" rx="9" ry="9" style="stroke:#181818;stroke-width:1;"/><path d="M1425.4713,295.7738 Q1425.1275,295.9456 1424.7525,296.0238 Q1424.3775,296.1175 1423.9556,296.1175 Q1422.4869,296.1175 1421.7056,295.1488 Q1420.94,294.18 1420.94,292.3363 Q1420.94,290.4925 1421.7056,289.5238 Q1422.4869,288.555 1423.9556,288.555 Q1424.3775,288.555 1424.7525,288.6488 Q1425.1431,288.7269 1425.4713,288.8988 L1425.4713,290.5081 Q1425.0963,290.1644 1424.7369,290.0081 Q1424.3931,289.8519 1424.0338,289.8519 Q1423.2369,289.8519 1422.8306,290.4769 Q1422.4244,291.1019 1422.4244,292.3363 Q1422.4244,293.5706 1422.8306,294.1956 Q1423.2369,294.8206 1424.0338,294.8206 Q1424.3931,294.8206 1424.7369,294.6644 Q1425.0963,294.5081 1425.4713,294.1644 L1425.4713,295.7738 Z " fill="#000000"/><text fill="#000000" font-family="sans-serif" font-size="9" lengthAdjust="spacing" textLength="147.6167" x="1436.19" y="295.5926">ClientsRepDBFilterSortDecorator</text></g><!--class ClientsRepFileFilterSortDecorator--><g class="entity" data-qualified-name="ClientsRepFileFilterSortDecorator" data-source-line="345" id="ent0076"><rect fill="#F1F1F1" height="28" rx="2.5" ry="2.5" style="stroke:#181818;stroke-width:0.5;" width="178.2271" x="2619.89" y="114.3569"/><ellipse cx="2632.89" cy="128.3569" fill="#ADD1B2" rx="9" ry="9" style="stroke:#181818;stroke-width:1;"/><path d="M2634.1713,131.6538 Q2633.8275,131.8256 2633.4525,131.9038 Q2633.0775,131.9975 2632.6556,131.9975 Q2631.1869,131.9975 2630.4056,131.0288 Q2629.64,130.06 2629.64,128.2163 Q2629.64,126.3725 2630.4056,125.4038 Q2631.1869,124.435 2632.6556,124.435 Q2633.0775,124.435 2633.4525,124.5288 Q2633.8431,124.6069 2634.1713,124.7788 L2634.1713,126.3881 Q2633.7963,126.0444 2633.4369,125.8881 Q2633.0931,125.7319 2632.7338,125.7319 Q2631.9369,125.7319 2631.5306,126.3569 Q2631.1244,126.9819 2631.1244,128.2163 Q2631.1244,129.4506 2631.5306,130.0756 Q2631.9369,130.7006 2632.7338,130.7006 Q2633.0931,130.7006 2633.4369,130.5444 Q2633.7963,130.3881 2634.1713,130.0444 L2634.1713,131.6538 Z " fill="#000000"/><text fill="#000000" font-family="sans-serif" font-size="9" lengthAdjust="spacing" textLength="150.2271" x="2644.89" y="131.4726">ClientsRepFileFilterSortDecorator</text></g><!--reverse link ClientShort to Client--><g class="link" data-entity-1="ent0024" data-entity-2="ent0025" data-link-type="extension" data-source-line="64" id="lnk26"><path codeLine="64" d="M2477.12,653.2269 C2477.12,662.8669 2477.12,656.9969 2477.12,666.5969" fill="none" id="ClientShort-backto-Client" style="stroke:#181818;stroke-width:1;"/><polygon fill="none" points="2477.12,635.2269,2471.12,653.2269,2483.12,653.2269,2477.12,635.2269" style="stroke:#181818;stroke-width:1;"/></g><!--reverse link ClientShort to Client--><g class="link" data-entity-1="ent0024" data-entity-2="ent0025" data-link-type="extension" data-source-line="158" id="lnk43"><path codeLine="158" d="M2498.88,653.2269 C2498.88,662.8669 2498.88,656.9969 2498.88,666.5969" fill="none" id="ClientShort-backto-Client-1" style="stroke:#181818;stroke-width:1;"/><polygon fill="none" points="2498.88,635.2269,2492.88,653.2269,2504.88,653.2269,2498.88,635.2269" style="stroke:#181818;stroke-width:1;"/><text fill="#000000" font-family="sans-serif" font-size="9" lengthAdjust="spacing" textLength="67.4561" x="2430.88" y="648.2609">&#1085;&#1072;&#1089;&#1083;&#1077;&#1076;&#1086;&#1074;&#1072;&#1085;&#1080;&#1077;</text></g><!--reverse link BaseClientsRepo to ClientsRepJson--><g class="link" data-entity-1="ent0013" data-entity-2="ent0015" data-link-type="extension" data-source-line="65" id="lnk27"><path codeLine="65" d="M1924.16,284.8869 C1945.34,284.8869 1946.91,284.8869 1946.91,284.8869 C1946.91,284.8869 1946.91,418.8869 1946.91,418.8869 C1946.91,418.8869 1952.44,418.8869 1960.16,418.8869" fill="none" id="BaseClientsRepo-backto-ClientsRepJson" style="stroke:#181818;stroke-width:1;"/><polygon fill="none" points="1906.16,284.8869,1924.16,290.8869,1924.16,278.8869,1906.16,284.8869" style="stroke:#181818;stroke-width:1;"/></g><!--reverse link BaseClientsRepo to ClientsRepYaml--><g class="link" data-entity-1="ent0013" data-entity-2="ent0016" data-link-type="extension" data-source-line="66" id="lnk28"><path codeLine="66" d="M1870.46,326.9569 C1870.46,351.2669 1870.46,375.8869 1870.46,375.8869 C1870.46,375.8869 2097.67,375.8869 2097.67,375.8869 C2097.67,375.8869 2097.67,391.7469 2097.67,404.1369" fill="none" id="BaseClientsRepo-backto-ClientsRepYaml" style="stroke:#181818;stroke-width:1;"/><polygon fill="none" points="1870.46,308.9569,1864.46,326.9569,1876.46,326.9569,1870.46,308.9569" style="stroke:#181818;stroke-width:1;"/></g><!--reverse link BaseClientsRepo to ClientsRepDBAdapter--><g class="link" data-entity-1="ent0013" data-entity-2="ent0018" data-link-type="extension" data-source-line="67" id="lnk29"><path codeLine="67" d="M1836.31,326.9669 C1836.31,351.1369 1836.31,377.9269 1836.31,402.1069" fill="none" id="BaseClientsRepo-backto-ClientsRepDBAdapter" style="stroke:#181818;stroke-width:1;"/><polygon fill="none" points="1836.31,308.9669,1830.31,326.9669,1842.31,326.9669,1836.31,308.9669" style="stroke:#181818;stroke-width:1;"/></g><!--reverse link ClientsRepDBAdapter to ClientsRepDB--><g class="link" data-entity-1="ent0018" data-entity-2="ent0021" data-link-type="composition" data-source-line="69" id="lnk30"><path codeLine="69" d="M1873.3,447.1169 C1873.3,478.9969 1873.3,533.8869 1873.3,533.8869 C1873.3,533.8869 1742.4,533.8869 1671.07,533.8869" fill="none" id="ClientsRepDBAdapter-backto-ClientsRepDB" style="stroke:#181818;stroke-width:1;"/><polygon fill="#181818" points="1873.3,435.1169,1869.3,441.1169,1873.3,447.1169,1877.3,441.1169,1873.3,435.1169" style="stroke:#181818;stroke-width:1;"/><text fill="#000000" font-family="sans-serif" font-size="9" lengthAdjust="spacing" textLength="64.9204" x="1756.58" y="531.2409">&#1074;&#1083;&#1072;&#1076;&#1077;&#1077;&#1090; (_db)</text></g><!--link ClientsRepDB to PgDB--><g class="link" data-entity-1="ent0021" data-entity-2="ent0020" data-link-type="dependency" data-source-line="71" id="lnk31"><path codeLine="71" d="M1581.15,538.8869 C1548.51,538.8869 1510,538.8869 1510,538.8869 C1510,538.8869 1510,572.7869 1510,596.1669" fill="none" id="ClientsRepDB-to-PgDB" style="stroke:#181818;stroke-width:1;stroke-dasharray:7,7;"/><polygon fill="#181818" points="1510,602.1669,1514,593.1669,1510,597.1669,1506,593.1669,1510,602.1669" style="stroke:#181818;stroke-width:1;"/></g><!--link ClientsRepDB to PgDB--><g class="link" data-entity-1="ent0021" data-entity-2="ent0020" data-link-type="dependency" data-source-line="274" id="lnk56"><path codeLine="274" d="M1581.07,547.8869 C1556.32,547.8869 1530.55,547.8869 1530.55,547.8869 C1530.55,547.8869 1530.55,575.3669 1530.55,596.2869" fill="none" id="ClientsRepDB-to-PgDB-1" style="stroke:#181818;stroke-width:1;stroke-dasharray:7,7;"/><polygon fill="#181818" points="1530.55,602.2869,1534.55,593.2869,1530.55,597.2869,1526.55,593.2869,1530.55,602.2869" style="stroke:#181818;stroke-width:1;"/><text fill="#000000" font-family="sans-serif" font-size="9" lengthAdjust="spacing" textLength="105.9038" x="1424.55" y="547.1809">&#1080;&#1089;&#1087;&#1086;&#1083;&#1100;&#1079;&#1091;&#1077;&#1090; PgDB.get()</text></g><!--link ClientsRepDB to ImportSummary--><g class="link" data-entity-1="ent0021" data-entity-2="ent0022" data-link-type="dependency" data-source-line="72" id="lnk32"><path codeLine="72" d="M1611.11,556.9569 C1611.11,569.8669 1611.11,582.8469 1611.11,596.3569" fill="none" id="ClientsRepDB-to-ImportSummary" style="stroke:#181818;stroke-width:1;stroke-dasharray:7,7;"/><polygon fill="#181818" points="1611.11,602.3569,1615.11,593.3569,1611.11,597.3569,1607.11,593.3569,1611.11,602.3569" style="stroke:#181818;stroke-width:1;"/></g><!--link ClientsRepDB to ImportSummary--><g class="link" data-entity-1="ent0021" data-entity-2="ent0022" data-link-type="dependency" data-source-line="275" id="lnk57"><path codeLine="275" d="M1640.89,556.9569 C1640.89,569.8669 1640.89,582.8469 1640.89,596.3569" fill="none" id="ClientsRepDB-to-ImportSummary-1" style="stroke:#181818;stroke-width:1;stroke-dasharray:7,7;"/><polygon fill="#181818" points="1640.89,602.3569,1644.89,593.3569,1640.89,597.3569,1636.89,593.3569,1640.89,602.3569" style="stroke:#181818;stroke-width:1;"/></g><!--reverse link ClientsRepDBFilterSortDecorator to ClientsRepDBAdapter--><g class="link" data-entity-1="ent0008" data-entity-2="ent0018" data-link-type="aggregation" data-source-line="74" id="lnk33"><path codeLine="74" d="M627,156.8469 C627,210.2369 627,362.8869 627,362.8869 C627,362.8869 1790.78,362.8869 1790.78,362.8869 C1790.78,362.8869 1790.78,385.7469 1790.78,402.1769" fill="none" id="ClientsRepDBFilterSortDecorator-backto-ClientsRepDBAdapter" style="stroke:#181818;stroke-width:1;"/><polygon fill="none" points="627,144.8469,623,150.8469,627,156.8469,631,150.8469,627,144.8469" style="stroke:#181818;stroke-width:1;"/></g><!--link ClientsRepDBFilterSortDecorator to PgDB--><g class="link" data-entity-1="ent0008" data-entity-2="ent0020" data-link-type="dependency" data-source-line="75" id="lnk34"><path codeLine="75" d="M583.1,144.6769 C583.1,229.7969 583.1,618.8869 583.1,618.8869 C583.1,618.8869 1282.8,618.8869 1462.67,618.8869" fill="none" id="ClientsRepDBFilterSortDecorator-to-PgDB" style="stroke:#181818;stroke-width:1;stroke-dasharray:7,7;"/><polygon fill="#181818" points="1468.67,618.8869,1459.67,614.8869,1463.67,618.8869,1459.67,622.8869,1468.67,618.8869" style="stroke:#181818;stroke-width:1;"/></g><!--reverse link ClientsRepFileFilterSortDecorator to BaseClientsRepo--><g class="link" data-entity-1="ent0004" data-entity-2="ent0013" data-link-type="aggregation" data-source-line="76" id="lnk35"><path codeLine="76" d="M1098.56,156.6669 C1098.56,180.7169 1098.56,210.8869 1098.56,210.8869 C1098.56,210.8869 1854,210.8869 1854,210.8869 C1854,210.8869 1854,252.1269 1854,275.9669" fill="none" id="ClientsRepFileFilterSortDecorator-backto-BaseClientsRepo" style="stroke:#181818;stroke-width:1;"/><polygon fill="none" points="1098.56,144.6669,1094.56,150.6669,1098.56,156.6669,1102.56,150.6669,1098.56,144.6669" style="stroke:#181818;stroke-width:1;"/></g><!--link BaseClientsRepo to Client--><g class="link" data-entity-1="ent0013" data-entity-2="ent0025" data-link-type="dependency" data-source-line="78" id="lnk36"><path codeLine="78" d="M1906.27,300.8869 C1914.05,300.8869 1919.53,300.8869 1919.53,300.8869 C1919.53,300.8869 1919.53,677.8869 1919.53,677.8869 C1919.53,677.8869 2327.65,677.8869 2448.98,677.8869" fill="none" id="BaseClientsRepo-to-Client" style="stroke:#181818;stroke-width:1;stroke-dasharray:7,7;"/><polygon fill="#181818" points="2454.98,677.8869,2445.98,673.8869,2449.98,677.8869,2445.98,681.8869,2454.98,677.8869" style="stroke:#181818;stroke-width:1;"/></g><!--link BaseClientsRepo to ClientShort--><g class="link" data-entity-1="ent0013" data-entity-2="ent0024" data-link-type="dependency" data-source-line="79" id="lnk37"><path codeLine="79" d="M1905.96,292.8869 C1920.89,292.8869 1933.22,292.8869 1933.22,292.8869 C1933.22,292.8869 1933.22,618.8869 1933.22,618.8869 C1933.22,618.8869 2313.7,618.8869 2439.76,618.8869" fill="none" id="BaseClientsRepo-to-ClientShort" style="stroke:#181818;stroke-width:1;stroke-dasharray:7,7;"/><polygon fill="#181818" points="2445.76,618.8869,2436.76,614.8869,2440.76,618.8869,2436.76,622.8869,2445.76,618.8869" style="stroke:#181818;stroke-width:1;"/></g><!--link ClientsRepDB to Client--><g class="link" data-entity-1="ent0021" data-entity-2="ent0025" data-link-type="dependency" data-source-line="80" id="lnk38"><path codeLine="80" d="M1671.02,547.8869 C1734.32,547.8869 1842,547.8869 1842,547.8869 C1842,547.8869 1842,682.8869 1842,682.8869 C1842,682.8869 2317.43,682.8869 2449.08,682.8869" fill="none" id="ClientsRepDB-to-Client" style="stroke:#181818;stroke-width:1;stroke-dasharray:7,7;"/><polygon fill="#181818" points="2455.08,682.8869,2446.08,678.8869,2450.08,682.8869,2446.08,686.8869,2455.08,682.8869" style="stroke:#181818;stroke-width:1;"/></g><!--link ClientsRepDB to Client--><g class="link" data-entity-1="ent0021" data-entity-2="ent0025" data-link-type="dependency" data-source-line="347" id="lnk78"><path codeLine="347" d="M1670.71,552.8869 C1725.37,552.8869 1810.7,552.8869 1810.7,552.8869 C1810.7,552.8869 1810.7,688.8869 1810.7,688.8869 C1810.7,688.8869 2312.89,688.8869 2448.87,688.8869" fill="none" id="ClientsRepDB-to-Client-1" style="stroke:#181818;stroke-width:1;stroke-dasharray:7,7;"/><polygon fill="#181818" points="2454.87,688.8869,2445.87,684.8869,2449.87,688.8869,2445.87,692.8869,2454.87,688.8869" style="stroke:#181818;stroke-width:1;"/></g><!--link ClientsRepDB to ClientShort--><g class="link" data-entity-1="ent0021" data-entity-2="ent0024" data-link-type="dependency" data-source-line="81" id="lnk39"><path codeLine="81" d="M1671.02,538.8869 C1843.48,538.8869 2452.45,538.8869 2452.45,538.8869 C2452.45,538.8869 2452.45,572.7869 2452.45,596.1669" fill="none" id="ClientsRepDB-to-ClientShort" style="stroke:#181818;stroke-width:1;stroke-dasharray:7,7;"/><polygon fill="#181818" points="2452.45,602.1669,2456.45,593.1669,2452.45,597.1669,2448.45,593.1669,2452.45,602.1669" style="stroke:#181818;stroke-width:1;"/></g><!--link ClientsRepDB to ClientShort--><g class="link" data-entity-1="ent0021" data-entity-2="ent0024" data-link-type="dependency" data-source-line="348" id="lnk79"><path codeLine="348" d="M1671.14,542.8869 C1843.31,542.8869 2449.17,542.8869 2449.17,542.8869 C2449.17,542.8869 2449.17,573.9569 2449.17,596.2569" fill="none" id="ClientsRepDB-to-ClientShort-1" style="stroke:#181818;stroke-width:1;stroke-dasharray:7,7;"/><polygon fill="#181818" points="2449.17,602.2569,2453.17,593.2569,2449.17,597.2569,2445.17,593.2569,2449.17,602.2569" style="stroke:#181818;stroke-width:1;"/></g><!--link ClientsRepDBFilterSortDecorator to ClientShort--><g class="link" data-entity-1="ent0008" data-entity-2="ent0024" data-link-type="dependency" data-source-line="82" id="lnk40"><path codeLine="82" d="M670.9,144.5769 C670.9,195.5069 670.9,348.8869 670.9,348.8869 C670.9,348.8869 2455.73,348.8869 2455.73,348.8869 C2455.73,348.8869 2455.73,537.6569 2455.73,596.2369" fill="none" id="ClientsRepDBFilterSortDecorator-to-ClientShort" style="stroke:#181818;stroke-width:1;stroke-dasharray:7,7;"/><polygon fill="#181818" points="2455.73,602.2369,2459.73,593.2369,2455.73,597.2369,2451.73,593.2369,2455.73,602.2369" style="stroke:#181818;stroke-width:1;"/></g><!--link ClientsRepFileFilterSortDecorator to ClientShort--><g class="link" data-entity-1="ent0004" data-entity-2="ent0024" data-link-type="dependency" data-source-line="83" id="lnk41"><path codeLine="83" d="M1054,144.6469 C1054,193.5669 1054,335.8869 1054,335.8869 C1054,335.8869 2459,335.8869 2459,335.8869 C2459,335.8869 2459,535.9169 2459,596.2869" fill="none" id="ClientsRepFileFilterSortDecorator-to-ClientShort" style="stroke:#181818;stroke-width:1;stroke-dasharray:7,7;"/><polygon fill="#181818" points="2459,602.2869,2463,593.2869,2459,597.2869,2455,593.2869,2459,602.2869" style="stroke:#181818;stroke-width:1;"/></g><!--link ClientsRepFileFilterSortDecorator to Client--><g class="link" data-entity-1="ent0004" data-entity-2="ent0025" data-link-type="dependency" data-source-line="84" id="lnk42"><path codeLine="84" d="M1009.44,144.6769 C1009.44,237.3969 1009.44,693.8869 1009.44,693.8869 C1009.44,693.8869 2230.89,693.8869 2449.05,693.8869" fill="none" id="ClientsRepFileFilterSortDecorator-to-Client" style="stroke:#181818;stroke-width:1;stroke-dasharray:7,7;"/><polygon fill="#181818" points="2455.05,693.8869,2446.05,689.8869,2450.05,693.8869,2446.05,697.8869,2455.05,693.8869" style="stroke:#181818;stroke-width:1;"/></g><!--reverse link BaseClientsRepo to ClientsRepJson--><g class="link" data-entity-1="ent0049" data-entity-2="ent0050" data-link-type="extension" data-source-line="208" id="lnk51"><path codeLine="208" d="M2381.86,324.8469 C2381.86,351.9469 2381.86,389.8869 2381.86,389.8869 C2381.86,389.8869 2266.57,389.8869 2266.57,389.8869 C2266.57,389.8869 2266.57,397.0669 2266.57,404.2369" fill="none" id="BaseClientsRepo-backto-ClientsRepJson-1" style="stroke:#181818;stroke-width:1;"/><polygon fill="none" points="2381.86,306.8469,2375.86,324.8469,2387.86,324.8469,2381.86,306.8469" style="stroke:#181818;stroke-width:1;"/></g><!--reverse link BaseClientsRepo to ClientsRepYaml--><g class="link" data-entity-1="ent0049" data-entity-2="ent0052" data-link-type="extension" data-source-line="209" id="lnk53"><path codeLine="209" d="M2398.56,324.9469 C2398.56,349.2669 2398.56,380.0769 2398.56,404.2969" fill="none" id="BaseClientsRepo-backto-ClientsRepYaml-1" style="stroke:#181818;stroke-width:1;"/><polygon fill="none" points="2398.56,306.9469,2392.56,324.9469,2404.56,324.9469,2398.56,306.9469" style="stroke:#181818;stroke-width:1;"/></g><!--link BaseClientsRepo to Client--><g class="link" data-entity-1="ent0049" data-entity-2="ent0025" data-link-type="dependency" data-source-line="210" id="lnk54"><path codeLine="210" d="M2430.58,306.9269 C2430.58,376.4069 2430.58,672.8869 2430.58,672.8869 C2430.58,672.8869 2436.17,672.8869 2448.93,672.8869" fill="none" id="BaseClientsRepo-to-Client-1" style="stroke:#181818;stroke-width:1;stroke-dasharray:7,7;"/><polygon fill="#181818" points="2454.93,672.8869,2445.93,668.8869,2449.93,672.8869,2445.93,676.8869,2454.93,672.8869" style="stroke:#181818;stroke-width:1;"/></g><!--link BaseClientsRepo to ClientShort--><g class="link" data-entity-1="ent0049" data-entity-2="ent0024" data-link-type="dependency" data-source-line="211" id="lnk55"><path codeLine="211" d="M2465.56,306.9169 C2465.56,360.1869 2465.56,539.5369 2465.56,596.1569" fill="none" id="BaseClientsRepo-to-ClientShort-1" style="stroke:#181818;stroke-width:1;stroke-dasharray:7,7;"/><polygon fill="#181818" points="2465.56,602.1569,2469.56,593.1569,2465.56,597.1569,2461.56,593.1569,2465.56,602.1569" style="stroke:#181818;stroke-width:1;"/></g><!--reverse link BaseClientsRepo to ClientsRepDBAdapter--><g class="link" data-entity-1="ent0069" data-entity-2="ent0070" data-link-type="extension" data-source-line="339" id="lnk71"><path codeLine="339" d="M1644.89,324.9469 C1644.89,349.2669 1644.89,380.0769 1644.89,404.2969" fill="none" id="BaseClientsRepo-backto-ClientsRepDBAdapter-1" style="stroke:#181818;stroke-width:1;"/><polygon fill="none" points="1644.89,306.9469,1638.89,324.9469,1650.89,324.9469,1644.89,306.9469" style="stroke:#181818;stroke-width:1;"/></g><!--reverse link ClientsRepDBAdapter to ClientsRepDB--><g class="link" data-entity-1="ent0070" data-entity-2="ent0021" data-link-type="composition" data-source-line="340" id="lnk72"><path codeLine="340" d="M1626,444.8269 C1626,468.6269 1626,504.2569 1626,528.2069" fill="none" id="ClientsRepDBAdapter-backto-ClientsRepDB-1" style="stroke:#181818;stroke-width:1;"/><polygon fill="#181818" points="1626,432.8269,1622,438.8269,1626,444.8269,1630,438.8269,1626,432.8269" style="stroke:#181818;stroke-width:1;"/><text fill="#000000" font-family="sans-serif" font-size="9" lengthAdjust="spacing" textLength="64.9204" x="1561" y="477.8709">&#1074;&#1083;&#1072;&#1076;&#1077;&#1077;&#1090; (_db)</text></g><!--reverse link ClientsRepDBFilterSortDecorator to ClientsRepDBAdapter--><g class="link" data-entity-1="ent0073" data-entity-2="ent0070" data-link-type="aggregation" data-source-line="342" id="lnk74"><path codeLine="342" d="M1568.53,318.9469 C1568.53,343.2669 1568.53,380.0769 1568.53,404.2969" fill="none" id="ClientsRepDBFilterSortDecorator-backto-ClientsRepDBAdapter-1" style="stroke:#181818;stroke-width:1;"/><polygon fill="none" points="1568.53,306.9469,1564.53,312.9469,1568.53,318.9469,1572.53,312.9469,1568.53,306.9469" style="stroke:#181818;stroke-width:1;"/><text fill="#000000" font-family="sans-serif" font-size="9" lengthAdjust="spacing" textLength="60.5566" x="1507.53" y="352.9709">&#1086;&#1073;&#1086;&#1088;&#1072;&#1095;&#1080;&#1074;&#1072;&#1077;&#1090;</text></g><!--link ClientsRepDBFilterSortDecorator to PgDB--><g class="link" data-entity-1="ent0073" data-entity-2="ent0020" data-link-type="dependency" data-source-line="343" id="lnk75"><path codeLine="343" d="M1489.45,306.9169 C1489.45,360.1869 1489.45,539.5369 1489.45,596.1569" fill="none" id="ClientsRepDBFilterSortDecorator-to-PgDB-1" style="stroke:#181818;stroke-width:1;stroke-dasharray:7,7;"/><polygon fill="#181818" points="1489.45,602.1569,1493.45,593.1569,1489.45,597.1569,1485.45,593.1569,1489.45,602.1569" style="stroke:#181818;stroke-width:1;"/><text fill="#000000" font-family="sans-serif" font-size="9" lengthAdjust="spacing" textLength="68.7744" x="1420.45" y="451.8909">SQL &#1085;&#1072;&#1087;&#1088;&#1103;&#1084;&#1091;&#1102;</text></g><!--reverse link ClientsRepFileFilterSortDecorator to BaseClientsRepo--><g class="link" data-entity-1="ent0076" data-entity-2="ent0069" data-link-type="aggregation" data-source-line="345" id="lnk77"><path codeLine="345" d="M2607.76,123.8869 C2353.75,123.8869 1657,123.8869 1657,123.8869 C1657,123.8869 1657,237.3369 1657,278.1069" fill="none" id="ClientsRepFileFilterSortDecorator-backto-BaseClientsRepo-1" style="stroke:#181818;stroke-width:1;"/><polygon fill="none" points="2619.76,123.8869,2613.76,119.8869,2607.76,123.8869,2613.76,127.8869,2619.76,123.8869" style="stroke:#181818;stroke-width:1;"/><text fill="#000000" font-family="sans-serif" font-size="9" lengthAdjust="spacing" textLength="60.5566" x="2000.27" y="121.2409">&#1086;&#1073;&#1086;&#1088;&#1072;&#1095;&#1080;&#1074;&#1072;&#1077;&#1090;</text></g><!--link ClientsRepDBFilterSortDecorator to ClientShort--><g class="link" data-entity-1="ent0073" data-entity-2="ent0024" data-link-type="dependency" data-source-line="349" id="lnk80"><path codeLine="349" d="M1577.67,306.9669 C1577.67,314.7969 1577.67,322.8869 1577.67,322.8869 C1577.67,322.8869 2462.28,322.8869 2462.28,322.8869 C2462.28,322.8869 2462.28,534.3669 2462.28,596.3869" fill="none" id="ClientsRepDBFilterSortDecorator-to-ClientShort-1" style="stroke:#181818;stroke-width:1;stroke-dasharray:7,7;"/><polygon fill="#181818" points="2462.28,602.3869,2466.28,593.3869,2462.28,597.3869,2458.28,593.3869,2462.28,602.3869" style="stroke:#181818;stroke-width:1;"/></g><!--link ClientsRepFileFilterSortDecorator to Client--><g class="link" data-entity-1="ent0076" data-entity-2="ent0025" data-link-type="dependency" data-source-line="350" id="lnk81"><path codeLine="350" d="M2709,142.6269 C2709,229.4169 2709,682.8869 2709,682.8869 C2709,682.8869 2588.74,682.8869 2527.09,682.8869" fill="none" id="ClientsRepFileFilterSortDecorator-to-Client-1" style="stroke:#181818;stroke-width:1;stroke-dasharray:7,7;"/><polygon fill="#181818" points="2521.09,682.8869,2530.09,686.8869,2526.09,682.8869,2530.09,678.8869,2521.09,682.8869" style="stroke:#181818;stroke-width:1;"/></g><!--link ClientsRepFileFilterSortDecorator to ClientShort--><g class="link" data-entity-1="ent0076" data-entity-2="ent0024" data-link-type="dependency" data-source-line="351" id="lnk82"><path codeLine="351" d="M2619.48,133.8869 C2561.4,133.8869 2496.47,133.8869 2496.47,133.8869 C2496.47,133.8869 2496.47,511.6169 2496.47,596.3069" fill="none" id="ClientsRepFileFilterSortDecorator-to-ClientShort-1" style="stroke:#181818;stroke-width:1;stroke-dasharray:7,7;"/><polygon fill="#181818" points="2496.47,602.3069,2500.47,593.3069,2496.47,597.3069,2492.47,593.3069,2496.47,602.3069" style="stroke:#181818;stroke-width:1;"/></g><g class="legend" data-source-line="19"><rect fill="#DDDDDD" height="91.4844" rx="7.5" ry="7.5" style="stroke:#000000;stroke-width:1;" width="433.4043" x="2566.5957" y="731.8869"/><text fill="#000000" font-family="sans-serif" font-size="14" font-weight="bold" lengthAdjust="spacing" textLength="188.3711" x="2571.5957" y="749.882">&#1059;&#1089;&#1083;&#1086;&#1074;&#1085;&#1099;&#1077; &#1086;&#1073;&#1086;&#1079;&#1085;&#1072;&#1095;&#1077;&#1085;&#1080;&#1103;</text><text fill="#000000" font-family="sans-serif" font-size="14" lengthAdjust="spacing" textLength="139.8291" x="2571.5957" y="766.1789">&#8212;|&gt; &#1085;&#1072;&#1089;&#1083;&#1077;&#1076;&#1086;&#1074;&#1072;&#1085;&#1080;&#1077;</text><ellipse cx="2577.0957" cy="778.2775" fill="#000000" rx="2.5" ry="2.5"/><text fill="#000000" font-family="sans-serif" font-size="14" lengthAdjust="spacing" textLength="240.6523" x="2583.5957" y="782.4757">-- &#1082;&#1086;&#1084;&#1087;&#1086;&#1079;&#1080;&#1094;&#1080;&#1103; (&#1093;&#1088;&#1072;&#1085;&#1080;&#1090; &#1082;&#1072;&#1082; &#1087;&#1086;&#1083;&#1077;)</text><text fill="#000000" font-family="sans-serif" font-size="14" lengthAdjust="spacing" textLength="200.1563" x="2571.5957" y="798.7726">o-- &#1076;&#1077;&#1082;&#1086;&#1088;&#1072;&#1090;&#1086;&#1088; &#1086;&#1073;&#1086;&#1088;&#1072;&#1095;&#1080;&#1074;&#1072;&#1077;&#1090;</text><text fill="#000000" font-family="sans-serif" font-size="14" lengthAdjust="spacing" textLength="423.4043" x="2571.5957" y="815.0695">..&gt; &#1079;&#1072;&#1074;&#1080;&#1089;&#1080;&#1084;&#1086;&#1089;&#1090;&#1100; (&#1080;&#1089;&#1087;&#1086;&#1083;&#1100;&#1079;&#1091;&#1077;&#1090; &#1090;&#1080;&#1087; / &#1089;&#1086;&#1079;&#1076;&#1072;&#1105;&#1090; / &#1074;&#1086;&#1079;&#1074;&#1088;&#1072;&#1097;&#1072;&#1077;&#1090;)</text></g><!--SRC=[vLfVRznO5N_tfxWQ7khPf4cJi092Kwcb52r2Q26yy6JTiU_Cc7XihtsdwT2DbAQK5UgAjb8GWcMNPU6Dbr0sQkdVhs1_1Ju9ltElxR4zzimatPMg9LKdutFFEVVyzpdtvWBRQVinBh3th_xeXsnZVOlzz_2O9PybZv8_ulDphBHJ6PxeIoO35hc3eMIE6mbRke5ln7kk7_A8ZvZd-a9EGi62I0w3qa8yv4wmx_e3rkTUB4ehjiVZ-AgKaTiRI_6U7VYxxgy5krH22RcznmTYLquymMXJxW-yCWy_S4GiGhRvRWaOSN-FW5jbe2FwVEp96u4lrJOR6wN5gr4Kx1TBtpCCwKhic1mdJvEJvD_f8JvVuDy9IvubpvEJz4vw9tcLFDvc-FnNyYHvbHuoW0_JUydJz2WvJPwbH-bTFDzd9epTDOoXwmWs4gEUY68ow43uZhQdmTZbtfNaxs3vd9WcBzFxoQdc_0gyNuBnHs3v4gmVN5xlNG41dFVX5QQMYEeq-L9HdX1ISWg4TovU95bVGUZNYilJzBT4pypqdbA7k1qHoadoZ2aSiEc2CY3ABqa5qWeR76djb3WAy17seBrEqoFWhwr1a2TuV0oETx3q0cXteFx7p5GGnJlzE7cItYKI1ePFazTidIaRFi5U9-aZmDSPM13WiThbTtg7hW53QNCPHXOFhEC8EuYu3A8Ocym8czxlTjXjo5RWzrrFjA2kfx_1Jl-1Y3aLqw79Vk2vmfVnpqLu0-JuBqMqY_Y-dc_EBbyk1BbofKH9MBkXi8ck1AP7pLGpmz91MKgdro8YilIuLRZhryuZslLhCynAGXsKR1s9C83j8D1f4KjACBZnQTtGFHwBDjnrHD09XKgX2k_5CkAspCIu1kAfNW5qo16K2WSD7ctPQGcV_ZX60MjQ-2KVUVNTkCD3s0RkEQ5uJLvJagU7StnoDQE03lfRfaBPiihVcKsOulkIaZ-zb_7LNDyVNBy6Dh5BjKy6lc8qks41V6yKae_7en6F9Y2aiepg1xBAti68kxwADoeIA2-LJJNdtI4uWGM-kd8oit5v1RmhD1-YZ6Y0CUFMwLhXY0KuoYSBS0gRvv9K7V5E3PbjKxrvhXnwgWgJQJczRfLOLJTom2oqOkOgLLC-1YsoBg9h4A2j6j4MDHiPCqOZVYr-cIuf7ywgdD6rm6U9slHfnczJwqqe3FnSMDmFRURzq35weRyaVqW-PIii-KVoCFbJyadoJsJ9Nx7mIV9fybbtVgSaWv0QfLuWPJ1wApkbImsTqkRSJkbINPHIfxHC3vNL5vWqBylKhAWcfxbyCtDJzKoBYjM2QfNLvjknvDAr3zXAFmf6rju-ZmQnwN39j-4WMtRrhoRSNw4qcLBSajiCxw4vY5Y5uyo8xolCLGQhgcyxdUztSZf5k69PhkzAopBZO1pPOkUdWI-g-AiiZ4HVH1OSBV7oonR28J0xguhBzCTrjfdhoumDh24jdu-4fj70lXirG4UkWxwg3gvn3s5TAdDMB29Nn6NwOiaVKrFRpgFd8j0jsBkolTAc311miJS5T3DpPVhb3-PDxes50i6iXAXNgefhM4rl3QohhQ4r6JKmrx04Adka0h4efKjWyh6BDDOW3PD17YVT4gP5G8H30Jimsb-pRtb8anYPEojnMOk8RqwKhZBkE968utR6IsTs7l5DsZIkvBcW_JZDXIQT6rTQ6HHQw-Ufqlgvh7C5qi0mZn3n0U8Za4D1AxqWy8gSw8yzhoanA5s6IjjbawQb0QLEhsrIFjkWCplflCb8ar4mTZ7aSbYg5EMKAfOg1aMsvdoGhmx2uQQmWh6q2DqaqQo249axxlVTMpcNt8WL7j-o8i4TYqSHdrJszDnODg7lHwuKTVnLQZs2o8ardGftAIVQuNK5Yd9ZA_jOy3VL5DFUplnMAJAmYPRGyqmPU0AjYzHyTsvGkmHaEGwpSHl8MhxOvo62I1APbSbcvdQg97f9q9rVH6DHCLJ6ZPW4UwQMjz3n7EmYuSDd5WLS9CrWBsSbq4D51UERhjZFAeHAX4wt6YC38QtUnC9BKQBmuY6hkIXAdXViMoZT5bf9huUGhOfIiHHHxbb-bcoqjRcNyV6pt_EgLYL4LcBY0Q6A4c_os8QsIE2g28eefqBviBHLrKkisNvPHr-OCFIuBLeCqC0bZv8g6qTWfcxZqYI5DbtPTdOmXjpTQPjoaDUZcSEAvKubYhfmxiHUMIARLzuWXIjPeOFMhCRkMPFYm6WzY_d_D4TcacNEJXPYPITQSuu2vYtggVjWoL5wAn-b7oN7D4G_n03u4EFp5vYgFoV0CRxycQuS0Fv2_Vv6pTSRtssQhpU_llawitFbN9803UV8pDogpTLp3o3dd43Ep27KhPWmd6yfQUDoQaonK2wfKAhph69yyc5DivkDR4BQGmk4Plo1boMWPgY7mjAuak5IFz26MwJtYhWbRBYs5REOC3D450mvZdngEnS8KfhMMWzUCskXevNSAu-pFXfvASeJBlmTWefUjNtFfNTj2HlTTMKSBjUOfi4nEwAxNPlIXa4iTpeRczzPkuH_6pILGEwTTx-zjOatPu_UsZiTRsplJIodLpzm64DalFl1Oe2ElwCdh7rKIEAuXMS-HYCtSWSHHgcyh9KcWPh3XH-F8_HfzX13Xbb1lQYcCTKMEjPeP4tmOphTVAs0AGnEpitNa2W4pFhAa4-yW3iceDMnjQr_gZH8Ns5xL6zpgit84XrDZM1ExpAhmaoNikAgSBNKi6zxWllwR80-rBjgfvCrkdfrZHOwz3vKOYhNAjKH47WfkqwSUxjwCbwPpMgdwZIPDLqHqjgQAXPDb5N-CnFSshpB6cF9kveiQH1dlUtgDSlRb4pdQuXQsY7Zt6tGWdmwoppoDQRRmgdYx3D50uzp3XHpylHi8zNC7UCoD-KDbz3FqmUizTfPNxhG7JDieXPQxfXhAEUzlvwUb5WKuaRnL2lzyryQYdpiUewrFnIHCFkUh2yWn15PlOb9HkyQPnYH-qg7_3IVIa3HvIyvEa-zN-Arp5YPUQjykLBpMlqF3nPwZWYMyTrIVnXHyzxsx2Nb77VIgplBujYiMkoYPLEzKwP5AsKE-GJ-4CBnHFcCaH1v67eJIzirFx-1ppnPvwWHoNzJD1KBjHEBjoWY3cWkI_wMF4uVq97byjVaNzaj-HdkkzbssryIBNiH3WwxF_k9Ej75c_qGIhz8xwQ_DyvtGTukpzjt_Ntsk_B_0G00]--></g></svg>