<svg xmlns="http://www.w3.org/2000/svg" xmlns:xlink="http://www.w3.org/1999/xlink" contentStyleType="text/css" data-diagram-type="SEQUENCE" height="698px" preserveAspectRatio="none" style="width:1371px;height:698px;background:#FFFFFF;" version="1.1" viewBox="0 0 1371 698" width="1371px" zoomAndPan="magnify"><title>CRUD: CREATE</title><defs/><g><text fill="#000000" font-family="sans-serif" font-size="14" font-weight="bold" lengthAdjust="spacing" textLength="115.083" x="627.3318" y="27.9951">CRUD: CREATE</text><g class="participant-lifeline" data-entity-uid="part1" data-qualified-name="U" id="part1-lifeline"><g><title>User</title><rect fill="#000000" fill-opacity="0.00000" height="482.9922" width="8" x="19.9551" y="120.8906"/><line style="stroke:#181818;stroke-width:0.5;stroke-dasharray:5,5;" x1="23" x2="23" y1="120.8906" y2="603.8828"/></g></g><g class="participant-lifeline" data-entity-uid="part2" data-qualified-name="P" id="part2-lifeline"><g><title>Popup .client.add</title><rect fill="#000000" fill-opacity="0.00000" height="482.9922" width="8" x="234.3403" y="120.8906"/><line style="stroke:#181818;stroke-width:0.5;stroke-dasharray:5,5;" x1="238.1689" x2="238.1689" y1="120.8906" y2="603.8828"/></g></g><g class="participant-lifeline" data-entity-uid="part3" data-qualified-name="A" id="part3-lifeline"><g><title>AddClientController</title><rect fill="#000000" fill-opacity="0.00000" height="482.9922" width="8" x="548.3965" y="120.8906"/><line style="stroke:#181818;stroke-width:0.5;stroke-dasharray:5,5;" x1="551.8696" x2="551.8696" y1="120.8906" y2="603.8828"/></g></g><g class="participant-lifeline" data-entity-uid="part4" data-qualified-name="OR" id="part4-lifeline"><g><title>ObservableClientsRepo</title><rect fill="#000000" fill-opacity="0.00000" height="482.9922" width="8" x="722.6436" y="120.8906"/><line style="stroke:#181818;stroke-width:0.5;stroke-dasharray:5,5;" x1="725.9233" x2="725.9233" y1="120.8906" y2="603.8828"/></g></g><g class="participant-lifeline" data-entity-uid="part5" data-qualified-name="AD" id="part5-lifeline"><g><title>ClientsRepDBAdapter</title><rect fill="#000000" fill-opacity="0.00000" height="482.9922" width="8" x="1012.3921" y="120.8906"/><line style="stroke:#181818;stroke-width:0.5;stroke-dasharray:5,5;" x1="1015.7798" x2="1015.7798" y1="120.8906" y2="603.8828"/></g></g><g class="participant-lifeline" data-entity-uid="part6" data-qualified-name="DB" id="part6-lifeline"><g><title>PostgreSQL</title><rect fill="#000000" fill-opacity="0.00000" height="482.9922" width="8" x="1191.7764" y="120.8906"/><line style="stroke:#181818;stroke-width:0.5;stroke-dasharray:5,5;" x1="1195.3999" x2="1195.3999" y1="120.8906" y2="603.8828"/></g></g><g class="participant-lifeline" data-entity-uid="part7" data-qualified-name="C" id="part7-lifeline"><g><title>MainController</title><rect fill="#000000" fill-opacity="0.00000" height="482.9922" width="8" x="1303.4497" y="120.8906"/><line style="stroke:#181818;stroke-width:0.5;stroke-dasharray:5,5;" x1="1307.1528" x2="1307.1528" y1="120.8906" y2="603.8828"/></g></g><g class="participant participant-head" data-entity-uid="part1" data-qualified-name="U" id="part1-head"><text fill="#000000" font-family="sans-serif" font-size="14" lengthAdjust="spacing" textLength="31.9102" x="5" y="117.5889">User</text><ellipse cx="23.9551" cy="53.0938" fill="#E2E2F0" rx="8" ry="8" style="stroke:#181818;stroke-width:0.5;"/><path d="M23.9551,61.0938 L23.9551,88.0938 M10.9551,69.0938 L36.9551,69.0938 M23.9551,88.0938 L10.9551,103.0938 M23.9551,88.0938 L36.9551,103.0938" fill="none" style="stroke:#181818;stroke-width:0.5;"/></g><g class="participant participant-tail" data-entity-uid="part1" data-qualified-name="U" id="part1-tail"><text fill="#000000" font-family="sans-serif" font-size="14" lengthAdjust="spacing" textLength="31.9102" x="5" y="615.8779">User</text><ellipse cx="23.9551" cy="627.6797" fill="#E2E2F0" rx="8" ry="8" style="stroke:#181818;stroke-width:0.5;"/><path d="M23.9551,635.6797 L23.9551,662.6797 M10.9551,643.6797 L36.9551,643.6797 M23.9551,662.6797 L10.9551,677.6797 M23.9551,662.6797 L36.9551,677.6797" fill="none" style="stroke:#181818;stroke-width:0.5;"/></g><g class="participant participant-head" data-entity-uid="part2" data-qualified-name="P" id="part2-head"><rect fill="#E2E2F0" height="30.2969" rx="2.5" ry="2.5" style="stroke:#181818;stroke-width:0.5;" width="136.3428" x="170.1689" y="89.5938"/><text fill="#000000" font-family="sans-serif" font-size="14" lengthAdjust="spacing" textLength="122.3428" x="177.1689" y="109.5889">Popup /client/add</text></g><g class="participant participant-tail" data-entity-uid="part2" data-qualified-name="P" id="part2-tail"><rect fill="#E2E2F0" height="30.2969" rx="2.5" ry="2.5" style="stroke:#181818;stroke-width:0.5;" width="136.3428" x="170.1689" y="602.8828"/><text fill="#000000" font-family="sans-serif" font-size="14" lengthAdjust="spacing" textLength="122.3428" x="177.1689" y="622.8779">Popup /client/add</text></g><g class="participant participant-head" data-entity-uid="part3" data-qualified-name="A" id="part3-head"><rect fill="#E2E2F0" height="30.2969" rx="2.5" ry="2.5" style="stroke:#181818;stroke-width:0.5;" width="151.0537" x="476.8696" y="89.5938"/><text fill="#000000" font-family="sans-serif" font-size="14" lengthAdjust="spacing" textLength="137.0537" x="483.8696" y="109.5889">AddClientController</text></g><g class="participant participant-tail" data-entity-uid="part3" data-qualified-name="A" id="part3-tail"><rect fill="#E2E2F0" height="30.2969" rx="2.5" ry="2.5" style="stroke:#181818;stroke-width:0.5;" width="151.0537" x="476.8696" y="602.8828"/><text fill="#000000" font-family="sans-serif" font-size="14" lengthAdjust="spacing" textLength="137.0537" x="483.8696" y="622.8779">AddClientController</text></g><g class="participant participant-head" data-entity-uid="part4" data-qualified-name="OR" id="part4-head"><rect fill="#E2E2F0" height="46.5938" rx="2.5" ry="2.5" style="stroke:#181818;stroke-width:0.5;" width="177.4404" x="637.9233" y="73.2969"/><text fill="#000000" font-family="sans-serif" font-size="14" lengthAdjust="spacing" textLength="163.4404" x="644.9233" y="93.292">ObservableClientsRepo</text><text fill="#000000" font-family="sans-serif" font-size="14" lengthAdjust="spacing" textLength="63.2598" x="695.0137" y="109.5889">(Subject)</text></g><g class="participant participant-tail" data-entity-uid="part4" data-qualified-name="OR" id="part4-tail"><rect fill="#E2E2F0" height="46.5938" rx="2.5" ry="2.5" style="stroke:#181818;stroke-width:0.5;" width="177.4404" x="637.9233" y="602.8828"/><text fill="#000000" font-family="sans-serif" font-size="14" lengthAdjust="spacing" textLength="163.4404" x="644.9233" y="622.8779">ObservableClientsRepo</text><text fill="#000000" font-family="sans-serif" font-size="14" lengthAdjust="spacing" textLength="63.2598" x="695.0137" y="639.1748">(Subject)</text></g><g class="participant participant-head" data-entity-uid="part5" data-qualified-name="AD" id="part5-head"><rect fill="#E2E2F0" height="30.2969" rx="2.5" ry="2.5" style="stroke:#181818;stroke-width:0.5;" width="165.2246" x="933.7798" y="89.5938"/><text fill="#000000" font-family="sans-serif" font-size="14" lengthAdjust="spacing" textLength="151.2246" x="940.7798" y="109.5889">ClientsRepDBAdapter</text></g><g class="participant participant-tail" data-entity-uid="part5" data-qualified-name="AD" id="part5-tail"><rect fill="#E2E2F0" height="30.2969" rx="2.5" ry="2.5" style="stroke:#181818;stroke-width:0.5;" width="165.2246" x="933.7798" y="602.8828"/><text fill="#000000" font-family="sans-serif" font-size="14" lengthAdjust="spacing" textLength="151.2246" x="940.7798" y="622.8779">ClientsRepDBAdapter</text></g><g class="participant participant-head" data-entity-uid="part6" data-qualified-name="DB" id="part6-head"><text fill="#000000" font-family="sans-serif" font-size="14" lengthAdjust="spacing" textLength="80.7529" x="1152.3999" y="101.292">PostgreSQL</text><text fill="#000000" font-family="sans-serif" font-size="14" lengthAdjust="spacing" textLength="48.6377" x="1168.4575" y="117.5889">(PgDB)</text><path d="M1177.7764,52.2969 C1177.7764,42.2969 1195.7764,42.2969 1195.7764,42.2969 C1195.7764,42.2969 1213.7764,42.2969 1213.7764,52.2969 L1213.7764,78.2969 C1213.7764,88.2969 1195.7764,88.2969 1195.7764,88.2969 C1195.7764,88.2969 1177.7764,88.2969 1177.7764,78.2969 L1177.7764,52.2969" fill="#E2E2F0" style="stroke:#181818;stroke-width:0.5;"/><path d="M1177.7764,52.2969 C1177.7764,62.2969 1195.7764,62.2969 1195.7764,62.2969 C1195.7764,62.2969 1213.7764,62.2969 1213.7764,52.2969" fill="none" style="stroke:#181818;stroke-width:0.5;"/></g><g class="participant participant-tail" data-entity-uid="part6" data-qualified-name="DB" id="part6-tail"><text fill="#000000" font-family="sans-serif" font-size="14" lengthAdjust="spacing" textLength="80.7529" x="1152.3999" y="615.8779">PostgreSQL</text><text fill="#000000" font-family="sans-serif" font-size="14" lengthAdjust="spacing" textLength="48.6377" x="1168.4575" y="632.1748">(PgDB)</text><path d="M1177.7764,645.4766 C1177.7764,635.4766 1195.7764,635.4766 1195.7764,635.4766 C1195.7764,635.4766 1213.7764,635.4766 1213.7764,645.4766 L1213.7764,671.4766 C1213.7764,681.4766 1195.7764,681.4766 1195.7764,681.4766 C1195.7764,681.4766 1177.7764,681.4766 1177.7764,671.4766 L1177.7764,645.4766" fill="#E2E2F0" style="stroke:#181818;stroke-width:0.5;"/><path d="M1177.7764,645.4766 C1177.7764,655.4766 1195.7764,655.4766 1195.7764,655.4766 C1195.7764,655.4766 1213.7764,655.4766 1213.7764,645.4766" fill="none" style="stroke:#181818;stroke-width:0.5;"/></g><g class="participant participant-head" data-entity-uid="part7" data-qualified-name="C" id="part7-head"><rect fill="#E2E2F0" height="46.5938" rx="2.5" ry="2.5" style="stroke:#181818;stroke-width:0.5;" width="116.5938" x="1249.1528" y="73.2969"/><text fill="#000000" font-family="sans-serif" font-size="14" lengthAdjust="spacing" textLength="102.5938" x="1256.1528" y="93.292">MainController</text><text fill="#000000" font-family="sans-serif" font-size="14" lengthAdjust="spacing" textLength="75.1475" x="1269.876" y="109.5889">(Observer)</text></g><g class="participant participant-tail" data-entity-uid="part7" data-qualified-name="C" id="part7-tail"><rect fill="#E2E2F0" height="46.5938" rx="2.5" ry="2.5" style="stroke:#181818;stroke-width:0.5;" width="116.5938" x="1249.1528" y="602.8828"/><text fill="#000000" font-family="sans-serif" font-size="14" lengthAdjust="spacing" textLength="102.5938" x="1256.1528" y="622.8779">MainController</text><text fill="#000000" font-family="sans-serif" font-size="14" lengthAdjust="spacing" textLength="75.1475" x="1269.876" y="639.1748">(Observer)</text></g><g class="message" data-entity-1="part1" data-entity-2="part2" id="msg1"><polygon fill="#181818" points="226.3403,148.0234,236.3403,152.0234,226.3403,156.0234,230.3403,152.0234" style="stroke:#181818;stroke-width:1;"/><line style="stroke:#181818;stroke-width:1;" x1="23.9551" x2="232.3403" y1="152.0234" y2="152.0234"/><text fill="#000000" font-family="sans-serif" font-size="13" lengthAdjust="spacing" textLength="99.2964" x="30.9551" y="146.9575">GET /client/add</text></g><g class="message" data-entity-1="part2" data-entity-2="part3" id="msg2"><polygon fill="#181818" points="540.3965,177.1563,550.3965,181.1563,540.3965,185.1563,544.3965,181.1563" style="stroke:#181818;stroke-width:1;"/><line style="stroke:#181818;stroke-width:1;" x1="238.3403" x2="546.3965" y1="181.1563" y2="181.1563"/><text fill="#000000" font-family="sans-serif" font-size="13" lengthAdjust="spacing" textLength="71.6523" x="245.3403" y="176.0903">add_form()</text></g><g class="message" data-entity-1="part3" data-entity-2="part2" id="msg3"><polygon fill="#181818" points="249.3403,206.2891,239.3403,210.2891,249.3403,214.2891,245.3403,210.2891" style="stroke:#181818;stroke-width:1;"/><line style="stroke:#181818;stroke-width:1;stroke-dasharray:2,2;" x1="243.3403" x2="551.3965" y1="210.2891" y2="210.2891"/><text fill="#000000" font-family="sans-serif" font-size="13" lengthAdjust="spacing" textLength="245.6543" x="255.3403" y="205.2231">HTML (ClientFormView.render create)</text></g><g class="message" data-entity-1="part1" data-entity-2="part2" id="msg4"><polygon fill="#181818" points="226.3403,235.4219,236.3403,239.4219,226.3403,243.4219,230.3403,239.4219" style="stroke:#181818;stroke-width:1;"/><line style="stroke:#181818;stroke-width:1;" x1="23.9551" x2="232.3403" y1="239.4219" y2="239.4219"/><text fill="#000000" font-family="sans-serif" font-size="13" lengthAdjust="spacing" textLength="190.3853" x="30.9551" y="234.356">POST /client/create (payload)</text></g><g class="message" data-entity-1="part2" data-entity-2="part3" id="msg5"><polygon fill="#181818" points="540.3965,264.5547,550.3965,268.5547,540.3965,272.5547,544.3965,268.5547" style="stroke:#181818;stroke-width:1;"/><line style="stroke:#181818;stroke-width:1;" x1="238.3403" x2="546.3965" y1="268.5547" y2="268.5547"/><text fill="#000000" font-family="sans-serif" font-size="13" lengthAdjust="spacing" textLength="103.3906" x="245.3403" y="263.4888">create(payload)</text></g><g class="message" data-entity-1="part3" data-entity-2="part4" id="msg6"><polygon fill="#181818" points="714.6436,293.6875,724.6436,297.6875,714.6436,301.6875,718.6436,297.6875" style="stroke:#181818;stroke-width:1;"/><line style="stroke:#181818;stroke-width:1;" x1="552.3965" x2="720.6436" y1="297.6875" y2="297.6875"/><text fill="#000000" font-family="sans-serif" font-size="13" lengthAdjust="spacing" textLength="128.5146" x="559.3965" y="292.6216">add_client(payload)</text></g><g class="message" data-entity-1="part4" data-entity-2="part5" id="msg7"><polygon fill="#181818" points="1004.3921,322.8203,1014.3921,326.8203,1004.3921,330.8203,1008.3921,326.8203" style="stroke:#181818;stroke-width:1;"/><line style="stroke:#181818;stroke-width:1;" x1="726.6436" x2="1010.3921" y1="326.8203" y2="326.8203"/><text fill="#000000" font-family="sans-serif" font-size="13" lengthAdjust="spacing" textLength="128.5146" x="733.6436" y="321.7544">add_client(payload)</text></g><g class="message" data-entity-1="part5" data-entity-2="part6" id="msg8"><polygon fill="#181818" points="1183.7764,351.9531,1193.7764,355.9531,1183.7764,359.9531,1187.7764,355.9531" style="stroke:#181818;stroke-width:1;"/><line style="stroke:#181818;stroke-width:1;" x1="1016.3921" x2="1189.7764" y1="355.9531" y2="355.9531"/><text fill="#000000" font-family="sans-serif" font-size="13" lengthAdjust="spacing" textLength="155.3843" x="1023.3921" y="350.8872">INSERT ... RETURNING *</text></g><g class="message" data-entity-1="part6" data-entity-2="part5" id="msg9"><polygon fill="#181818" points="1027.3921,381.0859,1017.3921,385.0859,1027.3921,389.0859,1023.3921,385.0859" style="stroke:#181818;stroke-width:1;"/><line style="stroke:#181818;stroke-width:1;stroke-dasharray:2,2;" x1="1021.3921" x2="1194.7764" y1="385.0859" y2="385.0859"/><text fill="#000000" font-family="sans-serif" font-size="13" lengthAdjust="spacing" textLength="85.4141" x="1033.3921" y="380.02">row -&gt; Client</text></g><g class="message" data-entity-1="part5" data-entity-2="part4" id="msg10"><polygon fill="#181818" points="737.6436,410.2188,727.6436,414.2188,737.6436,418.2188,733.6436,414.2188" style="stroke:#181818;stroke-width:1;"/><line style="stroke:#181818;stroke-width:1;stroke-dasharray:2,2;" x1="731.6436" x2="1015.3921" y1="414.2188" y2="414.2188"/><text fill="#000000" font-family="sans-serif" font-size="13" lengthAdjust="spacing" textLength="97.5825" x="743.6436" y="409.1528">Client(created)</text></g><g class="message" data-entity-1="part4" data-entity-2="part4" id="msg11"><line style="stroke:#181818;stroke-width:1;" x1="726.6436" x2="768.6436" y1="443.3516" y2="443.3516"/><line style="stroke:#181818;stroke-width:1;" x1="768.6436" x2="768.6436" y1="443.3516" y2="456.3516"/><line style="stroke:#181818;stroke-width:1;" x1="727.6436" x2="768.6436" y1="456.3516" y2="456.3516"/><polygon fill="#181818" points="737.6436,452.3516,727.6436,456.3516,737.6436,460.3516,733.6436,456.3516" style="stroke:#181818;stroke-width:1;"/><text fill="#000000" font-family="sans-serif" font-size="13" lengthAdjust="spacing" textLength="183.2886" x="733.6436" y="438.2856">notify('client_added', Client)</text></g><g class="message" data-entity-1="part4" data-entity-2="part4" id="msg12"><line style="stroke:#181818;stroke-width:1;" x1="726.6436" x2="768.6436" y1="485.4844" y2="485.4844"/><line style="stroke:#181818;stroke-width:1;" x1="768.6436" x2="768.6436" y1="485.4844" y2="498.4844"/><line style="stroke:#181818;stroke-width:1;" x1="727.6436" x2="768.6436" y1="498.4844" y2="498.4844"/><polygon fill="#181818" points="737.6436,494.4844,727.6436,498.4844,737.6436,502.4844,733.6436,498.4844" style="stroke:#181818;stroke-width:1;"/><text fill="#000000" font-family="sans-serif" font-size="13" lengthAdjust="spacing" textLength="275.7485" x="733.6436" y="480.4185">list_all_short() + notify('list_ready', shorts)</text></g><g class="message" data-entity-1="part4" data-entity-2="part7" id="msg13"><polygon fill="#181818" points="1295.4497,523.6172,1305.4497,527.6172,1295.4497,531.6172,1299.4497,527.6172" style="stroke:#181818;stroke-width:1;"/><line style="stroke:#181818;stroke-width:1;" x1="726.6436" x2="1301.4497" y1="527.6172" y2="527.6172"/><text fill="#000000" font-family="sans-serif" font-size="13" lengthAdjust="spacing" textLength="191.9214" x="733.6436" y="522.5513">update('client_added', Client)</text></g><g class="message" data-entity-1="part4" data-entity-2="part7" id="msg14"><polygon fill="#181818" points="1295.4497,552.75,1305.4497,556.75,1295.4497,560.75,1299.4497,556.75" style="stroke:#181818;stroke-width:1;"/><line style="stroke:#181818;stroke-width:1;" x1="726.6436" x2="1301.4497" y1="556.75" y2="556.75"/><text fill="#000000" font-family="sans-serif" font-size="13" lengthAdjust="spacing" textLength="174.3892" x="733.6436" y="551.6841">update('list_ready', shorts)</text></g><g class="message" data-entity-1="part3" data-entity-2="part2" id="msg15"><polygon fill="#181818" points="249.3403,581.8828,239.3403,585.8828,249.3403,589.8828,245.3403,585.8828" style="stroke:#181818;stroke-width:1;"/><line style="stroke:#181818;stroke-width:1;stroke-dasharray:2,2;" x1="243.3403" x2="551.3965" y1="585.8828" y2="585.8828"/><text fill="#000000" font-family="sans-serif" font-size="13" lengthAdjust="spacing" textLength="290.0562" x="255.3403" y="580.8169">success_and_close(event='client_added', id)</text></g><!--SRC=[VP7TJuCm5CNV-rVS-2BuCTz9D06A7uaEPE2JoTBHgzPKIjfEi__Ubiwn6UCBQUxvdNDkYnLM8kHrInFtBTAc88HrLcbe3MfW1beoC6r59mRMMpYgrB0UuAAJ0djxmJW_yb1r2AMSvoEGgzvg9INg4KiFiNBbEZxPIcAWJOs3UkwZnNhrZfsDHqzP7vecb6OfPuFzoQQ4CyjMpA3VqjXNZOl7UnTNlT8iPD7iCEk1YNvQqQ5X8zG1pmbfuVmAgWHkYcR_qgJoypG1Trw-AFqHnII5yy3UDW_t48Kzhvts9F1hfh7dxa4xZSnYF0LNvM9A3Yf40zj8nNYygmd2D4_zlAn3Vp1FObcFBlgtcbAlqYo1k_cYg1kOpMPG5qrRp-_cDt12Q3PUnFkr-l9mkChetDQ6IHJMSg7RJY_roegNJNGSUfTk1UJ7Prj7l0TAOPmivTAyAMsZ64vttb5osNpZdADiTXrv0kk1-zVulsAF-pjkzx_CkklGc2Nh_MifWn5-kg3Bt_c2nzy0]--></g></svg>