<svg xmlns="http://www.w3.org/2000/svg" xmlns:xlink="http://www.w3.org/1999/xlink" contentStyleType="text/css" data-diagram-type="SEQUENCE" height="1005px" preserveAspectRatio="none" style="width:1382px;height:1005px;background:#FFFFFF;" version="1.1" viewBox="0 0 1382 1005" width="1382px" zoomAndPan="magnify"><title>READ (&#1076;&#1077;&#1090;&#1072;&#1083;&#1100;&#1085;&#1072;&#1103; &#1082;&#1072;&#1088;&#1090;&#1086;&#1095;&#1082;&#1072;): select() -&gt; detail() &#1089; &#1082;&#1101;&#1096;&#1077;&#1084;</title><defs/><g><text fill="#000000" font-family="sans-serif" font-size="14" font-weight="bold" lengthAdjust="spacing" textLength="453.5645" x="465.6584" y="27.9951">READ (&#1076;&#1077;&#1090;&#1072;&#1083;&#1100;&#1085;&#1072;&#1103; &#1082;&#1072;&#1088;&#1090;&#1086;&#1095;&#1082;&#1072;): select() -&gt; detail() &#1089; &#1082;&#1101;&#1096;&#1077;&#1084;</text><rect fill="none" height="365.3984" style="stroke:#000000;stroke-width:1.5;" width="1213.396" x="162.4854" y="528.6172"/><g class="participant-lifeline" data-entity-uid="part1" data-qualified-name="U" id="part1-lifeline"><g><title>User</title><rect fill="#000000" fill-opacity="0.00000" height="790.125" width="8" x="19.9551" y="120.8906"/><line style="stroke:#181818;stroke-width:0.5;stroke-dasharray:5,5;" x1="23" x2="23" y1="120.8906" y2="911.0156"/></g></g><g class="participant-lifeline" data-entity-uid="part2" data-qualified-name="B" id="part2-lifeline"><g><title>Browser</title><rect fill="#000000" fill-opacity="0.00000" height="790.125" width="8" x="204.0049" y="120.8906"/><line style="stroke:#181818;stroke-width:0.5;stroke-dasharray:5,5;" x1="207.4854" x2="207.4854" y1="120.8906" y2="911.0156"/></g></g><g class="participant-lifeline" data-entity-uid="part3" data-qualified-name="C" id="part3-lifeline"><g><title>MainController</title><rect fill="#000000" fill-opacity="0.00000" height="790.125" width="8" x="418.9297" y="120.8906"/><line style="stroke:#181818;stroke-width:0.5;stroke-dasharray:5,5;" x1="422.6328" x2="422.6328" y1="120.8906" y2="911.0156"/></g></g><g class="participant-lifeline" data-entity-uid="part4" data-qualified-name="OR" id="part4-lifeline"><g><title>ObservableClientsRepo</title><rect fill="#000000" fill-opacity="0.00000" height="790.125" width="8" x="649.0063" y="120.8906"/><line style="stroke:#181818;stroke-width:0.5;stroke-dasharray:5,5;" x1="652.2861" x2="652.2861" y1="120.8906" y2="911.0156"/></g></g><g class="participant-lifeline" data-entity-uid="part5" data-qualified-name="AD" id="part5-lifeline"><g><title>ClientsRepDBAdapter</title><rect fill="#000000" fill-opacity="0.00000" height="790.125" width="8" x="860.4502" y="120.8906"/><line style="stroke:#181818;stroke-width:0.5;stroke-dasharray:5,5;" x1="863.8379" x2="863.8379" y1="120.8906" y2="911.0156"/></g></g><g class="participant-lifeline" data-entity-uid="part6" data-qualified-name="DB" id="part6-lifeline"><g><title>PostgreSQL</title><rect fill="#000000" fill-opacity="0.00000" height="790.125" width="8" x="1128.3779" y="120.8906"/><line style="stroke:#181818;stroke-width:0.5;stroke-dasharray:5,5;" x1="1132.0015" x2="1132.0015" y1="120.8906" y2="911.0156"/></g></g><g class="participant-lifeline" data-entity-uid="part7" data-qualified-name="V" id="part7-lifeline"><g><title>WebViews.detail_view..</title><rect fill="#000000" fill-opacity="0.00000" height="790.125" width="8" x="1271.8179" y="120.8906"/><line style="stroke:#181818;stroke-width:0.5;stroke-dasharray:5,5;" x1="1275.7544" x2="1275.7544" y1="120.8906" y2="911.0156"/></g></g><g class="participant participant-head" data-entity-uid="part1" data-qualified-name="U" id="part1-head"><text fill="#000000" font-family="sans-serif" font-size="14" lengthAdjust="spacing" textLength="31.9102" x="5" y="117.5889">User</text><ellipse cx="23.9551" cy="53.0938" fill="#E2E2F0" rx="8" ry="8" style="stroke:#181818;stroke-width:0.5;"/><path d="M23.9551,61.0938 L23.9551,88.0938 M10.9551,69.0938 L36.9551,69.0938 M23.9551,88.0938 L10.9551,103.0938 M23.9551,88.0938 L36.9551,103.0938" fill="none" style="stroke:#181818;stroke-width:0.5;"/></g><g class="participant participant-tail" data-entity-uid="part1" data-qualified-name="U" id="part1-tail"><text fill="#000000" font-family="sans-serif" font-size="14" lengthAdjust="spacing" textLength="31.9102" x="5" y="923.0107">User</text><ellipse cx="23.9551" cy="934.8125" fill="#E2E2F0" rx="8" ry="8" style="stroke:#181818;stroke-width:0.5;"/><path d="M23.9551,942.8125 L23.9551,969.8125 M10.9551,950.8125 L36.9551,950.8125 M23.9551,969.8125 L10.9551,984.8125 M23.9551,969.8125 L36.9551,984.8125" fill="none" style="stroke:#181818;stroke-width:0.5;"/></g><g class="participant participant-head" data-entity-uid="part2" data-qualified-name="B" id="part2-head"><rect fill="#E2E2F0" height="30.2969" rx="2.5" ry="2.5" style="stroke:#181818;stroke-width:0.5;" width="71.0391" x="172.4854" y="89.5938"/><text fill="#000000" font-family="sans-serif" font-size="14" lengthAdjust="spacing" textLength="57.0391" x="179.4854" y="109.5889">Browser</text></g><g class="participant participant-tail" data-entity-uid="part2" data-qualified-name="B" id="part2-tail"><rect fill="#E2E2F0" height="30.2969" rx="2.5" ry="2.5" style="stroke:#181818;stroke-width:0.5;" width="71.0391" x="172.4854" y="910.0156"/><text fill="#000000" font-family="sans-serif" font-size="14" lengthAdjust="spacing" textLength="57.0391" x="179.4854" y="930.0107">Browser</text></g><g class="participant participant-head" data-entity-uid="part3" data-qualified-name="C" id="part3-head"><rect fill="#E2E2F0" height="30.2969" rx="2.5" ry="2.5" style="stroke:#181818;stroke-width:0.5;" width="116.5938" x="364.6328" y="89.5938"/><text fill="#000000" font-family="sans-serif" font-size="14" lengthAdjust="spacing" textLength="102.5938" x="371.6328" y="109.5889">MainController</text></g><g class="participant participant-tail" data-entity-uid="part3" data-qualified-name="C" id="part3-tail"><rect fill="#E2E2F0" height="30.2969" rx="2.5" ry="2.5" style="stroke:#181818;stroke-width:0.5;" width="116.5938" x="364.6328" y="910.0156"/><text fill="#000000" font-family="sans-serif" font-size="14" lengthAdjust="spacing" textLength="102.5938" x="371.6328" y="930.0107">MainController</text></g><g class="participant participant-head" data-entity-uid="part4" data-qualified-name="OR" id="part4-head"><rect fill="#E2E2F0" height="46.5938" rx="2.5" ry="2.5" style="stroke:#181818;stroke-width:0.5;" width="177.4404" x="564.2861" y="73.2969"/><text fill="#000000" font-family="sans-serif" font-size="14" lengthAdjust="spacing" textLength="163.4404" x="571.2861" y="93.292">ObservableClientsRepo</text><text fill="#000000" font-family="sans-serif" font-size="14" lengthAdjust="spacing" textLength="63.2598" x="621.3765" y="109.5889">(Subject)</text></g><g class="participant participant-tail" data-entity-uid="part4" data-qualified-name="OR" id="part4-tail"><rect fill="#E2E2F0" height="46.5938" rx="2.5" ry="2.5" style="stroke:#181818;stroke-width:0.5;" width="177.4404" x="564.2861" y="910.0156"/><text fill="#000000" font-family="sans-serif" font-size="14" lengthAdjust="spacing" textLength="163.4404" x="571.2861" y="930.0107">ObservableClientsRepo</text><text fill="#000000" font-family="sans-serif" font-size="14" lengthAdjust="spacing" textLength="63.2598" x="621.3765" y="946.3076">(Subject)</text></g><g class="participant participant-head" data-entity-uid="part5" data-qualified-name="AD" id="part5-head"><rect fill="#E2E2F0" height="30.2969" rx="2.5" ry="2.5" style="stroke:#181818;stroke-width:0.5;" width="165.2246" x="781.8379" y="89.5938"/><text fill="#000000" font-family="sans-serif" font-size="14" lengthAdjust="spacing" textLength="151.2246" x="788.8379" y="109.5889">ClientsRepDBAdapter</text></g><g class="participant participant-tail" data-entity-uid="part5" data-qualified-name="AD" id="part5-tail"><rect fill="#E2E2F0" height="30.2969" rx="2.5" ry="2.5" style="stroke:#181818;stroke-width:0.5;" width="165.2246" x="781.8379" y="910.0156"/><text fill="#000000" font-family="sans-serif" font-size="14" lengthAdjust="spacing" textLength="151.2246" x="788.8379" y="930.0107">ClientsRepDBAdapter</text></g><g class="participant participant-head" data-entity-uid="part6" data-qualified-name="DB" id="part6-head"><text fill="#000000" font-family="sans-serif" font-size="14" lengthAdjust="spacing" textLength="80.7529" x="1089.0015" y="101.292">PostgreSQL</text><text fill="#000000" font-family="sans-serif" font-size="14" lengthAdjust="spacing" textLength="48.6377" x="1105.0591" y="117.5889">(PgDB)</text><path d="M1114.3779,52.2969 C1114.3779,42.2969 1132.3779,42.2969 1132.3779,42.2969 C1132.3779,42.2969 1150.3779,42.2969 1150.3779,52.2969 L1150.3779,78.2969 C1150.3779,88.2969 1132.3779,88.2969 1132.3779,88.2969 C1132.3779,88.2969 1114.3779,88.2969 1114.3779,78.2969 L1114.3779,52.2969" fill="#E2E2F0" style="stroke:#181818;stroke-width:0.5;"/><path d="M1114.3779,52.2969 C1114.3779,62.2969 1132.3779,62.2969 1132.3779,62.2969 C1132.3779,62.2969 1150.3779,62.2969 1150.3779,52.2969" fill="none" style="stroke:#181818;stroke-width:0.5;"/></g><g class="participant participant-tail" data-entity-uid="part6" data-qualified-name="DB" id="part6-tail"><text fill="#000000" font-family="sans-serif" font-size="14" lengthAdjust="spacing" textLength="80.7529" x="1089.0015" y="923.0107">PostgreSQL</text><text fill="#000000" font-family="sans-serif" font-size="14" lengthAdjust="spacing" textLength="48.6377" x="1105.0591" y="939.3076">(PgDB)</text><path d="M1114.3779,952.6094 C1114.3779,942.6094 1132.3779,942.6094 1132.3779,942.6094 C1132.3779,942.6094 1150.3779,942.6094 1150.3779,952.6094 L1150.3779,978.6094 C1150.3779,988.6094 1132.3779,988.6094 1132.3779,988.6094 C1132.3779,988.6094 1114.3779,988.6094 1114.3779,978.6094 L1114.3779,952.6094" fill="#E2E2F0" style="stroke:#181818;stroke-width:0.5;"/><path d="M1114.3779,952.6094 C1114.3779,962.6094 1132.3779,962.6094 1132.3779,962.6094 C1132.3779,962.6094 1150.3779,962.6094 1150.3779,952.6094" fill="none" style="stroke:#181818;stroke-width:0.5;"/></g><g class="participant participant-head" data-entity-uid="part7" data-qualified-name="V" id="part7-head"><rect fill="#E2E2F0" height="30.2969" rx="2.5" ry="2.5" style="stroke:#181818;stroke-width:0.5;" width="180.127" x="1185.7544" y="89.5938"/><text fill="#000000" font-family="sans-serif" font-size="14" lengthAdjust="spacing" textLength="166.127" x="1192.7544" y="109.5889">WebViews.detail_view()</text></g><g class="participant participant-tail" data-entity-uid="part7" data-qualified-name="V" id="part7-tail"><rect fill="#E2E2F0" height="30.2969" rx="2.5" ry="2.5" style="stroke:#181818;stroke-width:0.5;" width="180.127" x="1185.7544" y="910.0156"/><text fill="#000000" font-family="sans-serif" font-size="14" lengthAdjust="spacing" textLength="166.127" x="1192.7544" y="930.0107">WebViews.detail_view()</text></g><g class="message" data-entity-1="part1" data-entity-2="part2" id="msg1"><polygon fill="#181818" points="196.0049,148.0234,206.0049,152.0234,196.0049,156.0234,200.0049,152.0234" style="stroke:#181818;stroke-width:1;"/><line style="stroke:#181818;stroke-width:1;" x1="23.9551" x2="202.0049" y1="152.0234" y2="152.0234"/><text fill="#000000" font-family="sans-serif" font-size="13" lengthAdjust="spacing" textLength="160.0498" x="30.9551" y="146.9575">Click "&#1054;&#1090;&#1082;&#1088;&#1099;&#1090;&#1100;" (id=42)</text></g><g class="message" data-entity-1="part2" data-entity-2="part3" id="msg2"><polygon fill="#181818" points="410.9297,177.1563,420.9297,181.1563,410.9297,185.1563,414.9297,181.1563" style="stroke:#181818;stroke-width:1;"/><line style="stroke:#181818;stroke-width:1;" x1="208.0049" x2="416.9297" y1="181.1563" y2="181.1563"/><text fill="#000000" font-family="sans-serif" font-size="13" lengthAdjust="spacing" textLength="159.6499" x="215.0049" y="176.0903">GET /client/select?id=42</text></g><g class="message" data-entity-1="part3" data-entity-2="part4" id="msg3"><polygon fill="#181818" points="641.0063,206.2891,651.0063,210.2891,641.0063,214.2891,645.0063,210.2891" style="stroke:#181818;stroke-width:1;"/><line style="stroke:#181818;stroke-width:1;" x1="422.9297" x2="647.0063" y1="210.2891" y2="210.2891"/><text fill="#000000" font-family="sans-serif" font-size="13" lengthAdjust="spacing" textLength="107.5166" x="429.9297" y="205.2231">select_client(42)</text></g><g class="message" data-entity-1="part4" data-entity-2="part5" id="msg4"><polygon fill="#181818" points="852.4502,235.4219,862.4502,239.4219,852.4502,243.4219,856.4502,239.4219" style="stroke:#181818;stroke-width:1;"/><line style="stroke:#181818;stroke-width:1;" x1="653.0063" x2="858.4502" y1="239.4219" y2="239.4219"/><text fill="#000000" font-family="sans-serif" font-size="13" lengthAdjust="spacing" textLength="88.8418" x="660.0063" y="234.356">get_by_id(42)</text></g><g class="message" data-entity-1="part5" data-entity-2="part6" id="msg5"><polygon fill="#181818" points="1120.3779,264.5547,1130.3779,268.5547,1120.3779,272.5547,1124.3779,268.5547" style="stroke:#181818;stroke-width:1;"/><line style="stroke:#181818;stroke-width:1;" x1="864.4502" x2="1126.3779" y1="268.5547" y2="268.5547"/><text fill="#000000" font-family="sans-serif" font-size="13" lengthAdjust="spacing" textLength="243.9277" x="871.4502" y="263.4888">SELECT * FROM clients WHERE id=42</text></g><g class="message" data-entity-1="part6" data-entity-2="part5" id="msg6"><polygon fill="#181818" points="875.4502,293.6875,865.4502,297.6875,875.4502,301.6875,871.4502,297.6875" style="stroke:#181818;stroke-width:1;"/><line style="stroke:#181818;stroke-width:1;stroke-dasharray:2,2;" x1="869.4502" x2="1131.3779" y1="297.6875" y2="297.6875"/><text fill="#000000" font-family="sans-serif" font-size="13" lengthAdjust="spacing" textLength="85.4141" x="881.4502" y="292.6216">row -&gt; Client</text></g><g class="message" data-entity-1="part5" data-entity-2="part4" id="msg7"><polygon fill="#181818" points="664.0063,322.8203,654.0063,326.8203,664.0063,330.8203,660.0063,326.8203" style="stroke:#181818;stroke-width:1;"/><line style="stroke:#181818;stroke-width:1;stroke-dasharray:2,2;" x1="658.0063" x2="863.4502" y1="326.8203" y2="326.8203"/><text fill="#000000" font-family="sans-serif" font-size="13" lengthAdjust="spacing" textLength="37.6353" x="670.0063" y="321.7544">Client</text></g><g class="message" data-entity-1="part4" data-entity-2="part4" id="msg8"><line style="stroke:#181818;stroke-width:1;" x1="653.0063" x2="695.0063" y1="355.9531" y2="355.9531"/><line style="stroke:#181818;stroke-width:1;" x1="695.0063" x2="695.0063" y1="355.9531" y2="368.9531"/><line style="stroke:#181818;stroke-width:1;" x1="654.0063" x2="695.0063" y1="368.9531" y2="368.9531"/><polygon fill="#181818" points="664.0063,364.9531,654.0063,368.9531,664.0063,372.9531,660.0063,368.9531" style="stroke:#181818;stroke-width:1;"/><text fill="#000000" font-family="sans-serif" font-size="13" lengthAdjust="spacing" textLength="197.4438" x="660.0063" y="350.8872">notify('client_selected', Client)</text></g><g class="message" data-entity-1="part4" data-entity-2="part3" id="msg9"><polygon fill="#181818" points="433.9297,394.0859,423.9297,398.0859,433.9297,402.0859,429.9297,398.0859" style="stroke:#181818;stroke-width:1;"/><line style="stroke:#181818;stroke-width:1;stroke-dasharray:2,2;" x1="427.9297" x2="652.0063" y1="398.0859" y2="398.0859"/><text fill="#000000" font-family="sans-serif" font-size="13" lengthAdjust="spacing" textLength="206.0767" x="439.9297" y="393.02">update('client_selected', Client)</text></g><g class="message" data-entity-1="part3" data-entity-2="part3" id="msg10"><line style="stroke:#181818;stroke-width:1;" x1="422.9297" x2="464.9297" y1="427.2188" y2="427.2188"/><line style="stroke:#181818;stroke-width:1;" x1="464.9297" x2="464.9297" y1="427.2188" y2="440.2188"/><line style="stroke:#181818;stroke-width:1;" x1="423.9297" x2="464.9297" y1="440.2188" y2="440.2188"/><polygon fill="#181818" points="433.9297,436.2188,423.9297,440.2188,433.9297,444.2188,429.9297,440.2188" style="stroke:#181818;stroke-width:1;"/><text fill="#000000" font-family="sans-serif" font-size="13" lengthAdjust="spacing" textLength="189.8521" x="429.9297" y="422.1528">_selected_cache[42] = Client</text></g><g class="message" data-entity-1="part3" data-entity-2="part2" id="msg11"><polygon fill="#181818" points="219.0049,480.4844,209.0049,484.4844,219.0049,488.4844,215.0049,484.4844" style="stroke:#181818;stroke-width:1;"/><line style="stroke:#181818;stroke-width:1;stroke-dasharray:2,2;" x1="213.0049" x2="421.9297" y1="484.4844" y2="484.4844"/><text fill="#000000" font-family="sans-serif" font-size="13" lengthAdjust="spacing" textLength="69.1069" x="225.0049" y="464.2856">302 Found</text><text fill="#000000" font-family="sans-serif" font-size="13" lengthAdjust="spacing" textLength="190.9248" x="225.0049" y="479.4185">Location: /client/detail?id=42</text></g><g class="message" data-entity-1="part2" data-entity-2="part3" id="msg12"><polygon fill="#181818" points="410.9297,509.6172,420.9297,513.6172,410.9297,517.6172,414.9297,513.6172" style="stroke:#181818;stroke-width:1;"/><line style="stroke:#181818;stroke-width:1;" x1="208.0049" x2="416.9297" y1="513.6172" y2="513.6172"/><text fill="#000000" font-family="sans-serif" font-size="13" lengthAdjust="spacing" textLength="157.5615" x="215.0049" y="508.5513">GET /client/detail?id=42</text></g><path d="M162.4854,528.6172 L226.9282,528.6172 L226.9282,535.75 L216.9282,545.75 L162.4854,545.75 L162.4854,528.6172" fill="#EEEEEE" style="stroke:#000000;stroke-width:1.5;"/><rect fill="none" height="365.3984" style="stroke:#000000;stroke-width:1.5;" width="1213.396" x="162.4854" y="528.6172"/><text fill="#000000" font-family="sans-serif" font-size="13" font-weight="bold" lengthAdjust="spacing" textLength="19.4429" x="177.4854" y="541.6841">alt</text><text fill="#000000" font-family="sans-serif" font-size="11" font-weight="bold" lengthAdjust="spacing" textLength="66.4995" x="241.9282" y="540.8276">[cache hit]</text><g class="message" data-entity-1="part3" data-entity-2="part3" id="msg13"><line style="stroke:#181818;stroke-width:1;" x1="422.9297" x2="464.9297" y1="566.8828" y2="566.8828"/><line style="stroke:#181818;stroke-width:1;" x1="464.9297" x2="464.9297" y1="566.8828" y2="579.8828"/><line style="stroke:#181818;stroke-width:1;" x1="423.9297" x2="464.9297" y1="579.8828" y2="579.8828"/><polygon fill="#181818" points="433.9297,575.8828,423.9297,579.8828,433.9297,583.8828,429.9297,579.8828" style="stroke:#181818;stroke-width:1;"/><text fill="#000000" font-family="sans-serif" font-size="13" lengthAdjust="spacing" textLength="159.3643" x="429.9297" y="561.8169">c = _selected_cache[42]</text></g><g class="message" data-entity-1="part3" data-entity-2="part7" id="msg14"><polygon fill="#181818" points="1263.8179,605.0156,1273.8179,609.0156,1263.8179,613.0156,1267.8179,609.0156" style="stroke:#181818;stroke-width:1;"/><line style="stroke:#181818;stroke-width:1;" x1="422.9297" x2="1269.8179" y1="609.0156" y2="609.0156"/><text fill="#000000" font-family="sans-serif" font-size="13" lengthAdjust="spacing" textLength="90.2637" x="429.9297" y="603.9497">detail_view(c)</text></g><g class="message" data-entity-1="part7" data-entity-2="part2" id="msg15"><polygon fill="#181818" points="219.0049,634.1484,209.0049,638.1484,219.0049,642.1484,215.0049,638.1484" style="stroke:#181818;stroke-width:1;"/><line style="stroke:#181818;stroke-width:1;stroke-dasharray:2,2;" x1="213.0049" x2="1274.8179" y1="638.1484" y2="638.1484"/><text fill="#000000" font-family="sans-serif" font-size="13" lengthAdjust="spacing" textLength="190.4614" x="225.0049" y="633.0825">HTML (&#1076;&#1077;&#1090;&#1072;&#1083;&#1100;&#1085;&#1072;&#1103; &#1082;&#1072;&#1088;&#1090;&#1086;&#1095;&#1082;&#1072;)</text></g><line style="stroke:#000000;stroke-width:1;stroke-dasharray:2,2;" x1="162.4854" x2="1375.8813" y1="647.1484" y2="647.1484"/><text fill="#000000" font-family="sans-serif" font-size="11" font-weight="bold" lengthAdjust="spacing" textLength="77.9668" x="167.4854" y="657.3589">[cache miss]</text><g class="message" data-entity-1="part3" data-entity-2="part4" id="msg16"><polygon fill="#181818" points="641.0063,678.0859,651.0063,682.0859,641.0063,686.0859,645.0063,682.0859" style="stroke:#181818;stroke-width:1;"/><line style="stroke:#181818;stroke-width:1;" x1="422.9297" x2="647.0063" y1="682.0859" y2="682.0859"/><text fill="#000000" font-family="sans-serif" font-size="13" lengthAdjust="spacing" textLength="88.8418" x="429.9297" y="677.02">get_by_id(42)</text></g><g class="message" data-entity-1="part4" data-entity-2="part5" id="msg17"><polygon fill="#181818" points="852.4502,707.2188,862.4502,711.2188,852.4502,715.2188,856.4502,711.2188" style="stroke:#181818;stroke-width:1;"/><line style="stroke:#181818;stroke-width:1;" x1="653.0063" x2="858.4502" y1="711.2188" y2="711.2188"/><text fill="#000000" font-family="sans-serif" font-size="13" lengthAdjust="spacing" textLength="88.8418" x="660.0063" y="706.1528">get_by_id(42)</text></g><g class="message" data-entity-1="part5" data-entity-2="part6" id="msg18"><polygon fill="#181818" points="1120.3779,736.3516,1130.3779,740.3516,1120.3779,744.3516,1124.3779,740.3516" style="stroke:#181818;stroke-width:1;"/><line style="stroke:#181818;stroke-width:1;" x1="864.4502" x2="1126.3779" y1="740.3516" y2="740.3516"/><text fill="#000000" font-family="sans-serif" font-size="13" lengthAdjust="spacing" textLength="243.9277" x="871.4502" y="735.2856">SELECT * FROM clients WHERE id=42</text></g><g class="message" data-entity-1="part6" data-entity-2="part5" id="msg19"><polygon fill="#181818" points="875.4502,765.4844,865.4502,769.4844,875.4502,773.4844,871.4502,769.4844" style="stroke:#181818;stroke-width:1;"/><line style="stroke:#181818;stroke-width:1;stroke-dasharray:2,2;" x1="869.4502" x2="1131.3779" y1="769.4844" y2="769.4844"/><text fill="#000000" font-family="sans-serif" font-size="13" lengthAdjust="spacing" textLength="85.4141" x="881.4502" y="764.4185">row -&gt; Client</text></g><g class="message" data-entity-1="part5" data-entity-2="part4" id="msg20"><polygon fill="#181818" points="664.0063,794.6172,654.0063,798.6172,664.0063,802.6172,660.0063,798.6172" style="stroke:#181818;stroke-width:1;"/><line style="stroke:#181818;stroke-width:1;stroke-dasharray:2,2;" x1="658.0063" x2="863.4502" y1="798.6172" y2="798.6172"/><text fill="#000000" font-family="sans-serif" font-size="13" lengthAdjust="spacing" textLength="37.6353" x="670.0063" y="793.5513">Client</text></g><g class="message" data-entity-1="part4" data-entity-2="part3" id="msg21"><polygon fill="#181818" points="433.9297,823.75,423.9297,827.75,433.9297,831.75,429.9297,827.75" style="stroke:#181818;stroke-width:1;"/><line style="stroke:#181818;stroke-width:1;stroke-dasharray:2,2;" x1="427.9297" x2="652.0063" y1="827.75" y2="827.75"/><text fill="#000000" font-family="sans-serif" font-size="13" lengthAdjust="spacing" textLength="37.6353" x="439.9297" y="822.6841">Client</text></g><g class="message" data-entity-1="part3" data-entity-2="part7" id="msg22"><polygon fill="#181818" points="1263.8179,852.8828,1273.8179,856.8828,1263.8179,860.8828,1267.8179,856.8828" style="stroke:#181818;stroke-width:1;"/><line style="stroke:#181818;stroke-width:1;" x1="422.9297" x2="1269.8179" y1="856.8828" y2="856.8828"/><text fill="#000000" font-family="sans-serif" font-size="13" lengthAdjust="spacing" textLength="120.7515" x="429.9297" y="851.8169">detail_view(Client)</text></g><g class="message" data-entity-1="part7" data-entity-2="part2" id="msg23"><polygon fill="#181818" points="219.0049,882.0156,209.0049,886.0156,219.0049,890.0156,215.0049,886.0156" style="stroke:#181818;stroke-width:1;"/><line style="stroke:#181818;stroke-width:1;stroke-dasharray:2,2;" x1="213.0049" x2="1274.8179" y1="886.0156" y2="886.0156"/><text fill="#000000" font-family="sans-serif" font-size="13" lengthAdjust="spacing" textLength="190.4614" x="225.0049" y="880.9497">HTML (&#1076;&#1077;&#1090;&#1072;&#1083;&#1100;&#1085;&#1072;&#1103; &#1082;&#1072;&#1088;&#1090;&#1086;&#1095;&#1082;&#1072;)</text></g><!--SRC=[dLJBRjD05DtxAwwoYOE0ej1Lf88IEwMBH6cTHnSKHHDxI0UC7TcJLjs5Ta6b5Y5-0FY4418rJMduXV4VSSTZfmsa25ZPllVCVPnpnfnnbu9LBfgWYx6OHCTYAAwYSt4jXj4743Dy330uZzx9zrm1GkfIc-ivUF047Ce9S_4zUelGw7rqAYRYkwOHc_i1D4CQ00cXgVL8m9dDUiJZa2a5_Y5cCZ9LMavL2VCCt-E1xxe9mbX6r3fuz81qN6guZ7eyj6ZFt_FqUh_p2iVAnMTgrlAX6wXPAZganvFQHLDp22ST4bB8RFiXxmQqlbF1SjjTiwHgcR-Ck4ixBKOFmuTgz_O1VkWAsjAqR5DITYMcaYp99cJ49wHlXYIUHSVHUGOaio2-8MWeHlWn5vTQKv9PAW0EQh_-_OZEd8trV4uhIPXHW6Vb1gpPyL9hIewdCGBx6o0kiF2FQ832dU8SesIEPAo9k9OIWvYgo52CeuyoFKe411HwWgSduW8KsJJG3DcuPgNYjrLlNSvKisIkQ1QWItcxSzHcJXn7Gs7SnANgvKhPQC0zsBHgLL17GzZTAbjbK6ERk5XI1BqHBncZuY99voIYsic0vtFsyaZFge9jDHbrilSJg1fD4TRleSxqJrWZeNQHQzl4tgVFr_ClO2DjhcN55oHcBAOnGJF9crHJMK7MK38-VfI7JR_lENjUnRS9PxvNM0Ycm0l1n6Tqm2Y-OGFKvanStYWubzVgQopb2GQbBCF4FxUlwYmwMMcDvKx4vH3l1FkCQm3fnZRkjsBh5D4gm6sdspbCjD95jnhLoj_zDpJguYLJ_T-mC4pBIoMNZGDmbwK0_iLK07VQIXLQDfPggoXPX5Ona3hcFsdmd9y0]--></g></svg>