<svg xmlns="http://www.w3.org/2000/svg" xmlns:xlink="http://www.w3.org/1999/xlink" contentStyleType="text/css" data-diagram-type="SEQUENCE" height="832px" preserveAspectRatio="none" style="width:1534px;height:832px;background:#FFFFFF;" version="1.1" viewBox="0 0 1534 832" width="1534px" zoomAndPan="magnify"><title>CRUD: UPDATE</title><defs/><g><text fill="#000000" font-family="sans-serif" font-size="14" font-weight="bold" lengthAdjust="spacing" textLength="117.7148" x="707.251" y="27.9951">CRUD: UPDATE</text><g class="participant-lifeline" data-entity-uid="part1" data-qualified-name="U" id="part1-lifeline"><g><title>User</title><rect fill="#000000" fill-opacity="0.00000" height="616.7891" width="8" x="19.9551" y="120.8906"/><line style="stroke:#181818;stroke-width:0.5;stroke-dasharray:5,5;" x1="23" x2="23" y1="120.8906" y2="737.6797"/></g></g><g class="participant-lifeline" data-entity-uid="part2" data-qualified-name="P" id="part2-lifeline"><g><title>Popup .client.edit.id...</title><rect fill="#000000" fill-opacity="0.00000" height="616.7891" width="8" x="286.1563" y="120.8906"/><line style="stroke:#181818;stroke-width:0.5;stroke-dasharray:5,5;" x1="289.3027" x2="289.3027" y1="120.8906" y2="737.6797"/></g></g><g class="participant-lifeline" data-entity-uid="part3" data-qualified-name="E" id="part3-lifeline"><g><title>EditClientController</title><rect fill="#000000" fill-opacity="0.00000" height="616.7891" width="8" x="640.9834" y="120.8906"/><line style="stroke:#181818;stroke-width:0.5;stroke-dasharray:5,5;" x1="644.5762" x2="644.5762" y1="120.8906" y2="737.6797"/></g></g><g class="participant-lifeline" data-entity-uid="part4" data-qualified-name="OR" id="part4-lifeline"><g><title>ObservableClientsRepo</title><rect fill="#000000" fill-opacity="0.00000" height="616.7891" width="8" x="840.7563" y="120.8906"/><line style="stroke:#181818;stroke-width:0.5;stroke-dasharray:5,5;" x1="844.0361" x2="844.0361" y1="120.8906" y2="737.6797"/></g></g><g class="participant-lifeline" data-entity-uid="part5" data-qualified-name="AD" id="part5-lifeline"><g><title>ClientsRepDBAdapter</title><rect fill="#000000" fill-opacity="0.00000" height="616.7891" width="8" x="1073.7949" y="120.8906"/><line style="stroke:#181818;stroke-width:0.5;stroke-dasharray:5,5;" x1="1077.1826" x2="1077.1826" y1="120.8906" y2="737.6797"/></g></g><g class="participant-lifeline" data-entity-uid="part6" data-qualified-name="DB" id="part6-lifeline"><g><title>PostgreSQL</title><rect fill="#000000" fill-opacity="0.00000" height="616.7891" width="8" x="1354.2466" y="120.8906"/><line style="stroke:#181818;stroke-width:0.5;stroke-dasharray:5,5;" x1="1357.8701" x2="1357.8701" y1="120.8906" y2="737.6797"/></g></g><g class="participant-lifeline" data-entity-uid="part7" data-qualified-name="C" id="part7-lifeline"><g><title>MainController</title><rect fill="#000000" fill-opacity="0.00000" height="616.7891" width="8" x="1465.9199" y="120.8906"/><line style="stroke:#181818;stroke-width:0.5;stroke-dasharray:5,5;" x1="1469.623" x2="1469.623" y1="120.8906" y2="737.6797"/></g></g><g class="participant participant-head" data-entity-uid="part1" data-qualified-name="U" id="part1-head"><text fill="#000000" font-family="sans-serif" font-size="14" lengthAdjust="spacing" textLength="31.9102" x="5" y="117.5889">User</text><ellipse cx="23.9551" cy="53.0938" fill="#E2E2F0" rx="8" ry="8" style="stroke:#181818;stroke-width:0.5;"/><path d="M23.9551,61.0938 L23.9551,88.0938 M10.9551,69.0938 L36.9551,69.0938 M23.9551,88.0938 L10.9551,103.0938 M23.9551,88.0938 L36.9551,103.0938" fill="none" style="stroke:#181818;stroke-width:0.5;"/></g><g class="participant participant-tail" data-entity-uid="part1" data-qualified-name="U" id="part1-tail"><text fill="#000000" font-family="sans-serif" font-size="14" lengthAdjust="spacing" textLength="31.9102" x="5" y="749.6748">User</text><ellipse cx="23.9551" cy="761.4766" fill="#E2E2F0" rx="8" ry="8" style="stroke:#181818;stroke-width:0.5;"/><path d="M23.9551,769.4766 L23.9551,796.4766 M10.9551,777.4766 L36.9551,777.4766 M23.9551,796.4766 L10.9551,811.4766 M23.9551,796.4766 L36.9551,811.4766" fill="none" style="stroke:#181818;stroke-width:0.5;"/></g><g class="participant participant-head" data-entity-uid="part2" data-qualified-name="P" id="part2-head"><rect fill="#E2E2F0" height="30.2969" rx="2.5" ry="2.5" style="stroke:#181818;stroke-width:0.5;" width="177.707" x="201.3027" y="89.5938"/><text fill="#000000" font-family="sans-serif" font-size="14" lengthAdjust="spacing" textLength="163.707" x="208.3027" y="109.5889">Popup /client/edit?id=..</text></g><g class="participant participant-tail" data-entity-uid="part2" data-qualified-name="P" id="part2-tail"><rect fill="#E2E2F0" height="30.2969" rx="2.5" ry="2.5" style="stroke:#181818;stroke-width:0.5;" width="177.707" x="201.3027" y="736.6797"/><text fill="#000000" font-family="sans-serif" font-size="14" lengthAdjust="spacing" textLength="163.707" x="208.3027" y="756.6748">Popup /client/edit?id=..</text></g><g class="participant participant-head" data-entity-uid="part3" data-qualified-name="E" id="part3-head"><rect fill="#E2E2F0" height="30.2969" rx="2.5" ry="2.5" style="stroke:#181818;stroke-width:0.5;" width="150.8145" x="569.5762" y="89.5938"/><text fill="#000000" font-family="sans-serif" font-size="14" lengthAdjust="spacing" textLength="136.8145" x="576.5762" y="109.5889">EditClientController</text></g><g class="participant participant-tail" data-entity-uid="part3" data-qualified-name="E" id="part3-tail"><rect fill="#E2E2F0" height="30.2969" rx="2.5" ry="2.5" style="stroke:#181818;stroke-width:0.5;" width="150.8145" x="569.5762" y="736.6797"/><text fill="#000000" font-family="sans-serif" font-size="14" lengthAdjust="spacing" textLength="136.8145" x="576.5762" y="756.6748">EditClientController</text></g><g class="participant participant-head" data-entity-uid="part4" data-qualified-name="OR" id="part4-head"><rect fill="#E2E2F0" height="46.5938" rx="2.5" ry="2.5" style="stroke:#181818;stroke-width:0.5;" width="177.4404" x="756.0361" y="73.2969"/><text fill="#000000" font-family="sans-serif" font-size="14" lengthAdjust="spacing" textLength="163.4404" x="763.0361" y="93.292">ObservableClientsRepo</text><text fill="#000000" font-family="sans-serif" font-size="14" lengthAdjust="spacing" textLength="63.2598" x="813.1265" y="109.5889">(Subject)</text></g><g class="participant participant-tail" data-entity-uid="part4" data-qualified-name="OR" id="part4-tail"><rect fill="#E2E2F0" height="46.5938" rx="2.5" ry="2.5" style="stroke:#181818;stroke-width:0.5;" width="177.4404" x="756.0361" y="736.6797"/><text fill="#000000" font-family="sans-serif" font-size="14" lengthAdjust="spacing" textLength="163.4404" x="763.0361" y="756.6748">ObservableClientsRepo</text><text fill="#000000" font-family="sans-serif" font-size="14" lengthAdjust="spacing" textLength="63.2598" x="813.1265" y="772.9717">(Subject)</text></g><g class="participant participant-head" data-entity-uid="part5" data-qualified-name="AD" id="part5-head"><rect fill="#E2E2F0" height="30.2969" rx="2.5" ry="2.5" style="stroke:#181818;stroke-width:0.5;" width="165.2246" x="995.1826" y="89.5938"/><text fill="#000000" font-family="sans-serif" font-size="14" lengthAdjust="spacing" textLength="151.2246" x="1002.1826" y="109.5889">ClientsRepDBAdapter</text></g><g class="participant participant-tail" data-entity-uid="part5" data-qualified-name="AD" id="part5-tail"><rect fill="#E2E2F0" height="30.2969" rx="2.5" ry="2.5" style="stroke:#181818;stroke-width:0.5;" width="165.2246" x="995.1826" y="736.6797"/><text fill="#000000" font-family="sans-serif" font-size="14" lengthAdjust="spacing" textLength="151.2246" x="1002.1826" y="756.6748">ClientsRepDBAdapter</text></g><g class="participant participant-head" data-entity-uid="part6" data-qualified-name="DB" id="part6-head"><text fill="#000000" font-family="sans-serif" font-size="14" lengthAdjust="spacing" textLength="80.7529" x="1314.8701" y="101.292">PostgreSQL</text><text fill="#000000" font-family="sans-serif" font-size="14" lengthAdjust="spacing" textLength="48.6377" x="1330.9277" y="117.5889">(PgDB)</text><path d="M1340.2466,52.2969 C1340.2466,42.2969 1358.2466,42.2969 1358.2466,42.2969 C1358.2466,42.2969 1376.2466,42.2969 1376.2466,52.2969 L1376.2466,78.2969 C1376.2466,88.2969 1358.2466,88.2969 1358.2466,88.2969 C1358.2466,88.2969 1340.2466,88.2969 1340.2466,78.2969 L1340.2466,52.2969" fill="#E2E2F0" style="stroke:#181818;stroke-width:0.5;"/><path d="M1340.2466,52.2969 C1340.2466,62.2969 1358.2466,62.2969 1358.2466,62.2969 C1358.2466,62.2969 1376.2466,62.2969 1376.2466,52.2969" fill="none" style="stroke:#181818;stroke-width:0.5;"/></g><g class="participant participant-tail" data-entity-uid="part6" data-qualified-name="DB" id="part6-tail"><text fill="#000000" font-family="sans-serif" font-size="14" lengthAdjust="spacing" textLength="80.7529" x="1314.8701" y="749.6748">PostgreSQL</text><text fill="#000000" font-family="sans-serif" font-size="14" lengthAdjust="spacing" textLength="48.6377" x="1330.9277" y="765.9717">(PgDB)</text><path d="M1340.2466,779.2734 C1340.2466,769.2734 1358.2466,769.2734 1358.2466,769.2734 C1358.2466,769.2734 1376.2466,769.2734 1376.2466,779.2734 L1376.2466,805.2734 C1376.2466,815.2734 1358.2466,815.2734 1358.2466,815.2734 C1358.2466,815.2734 1340.2466,815.2734 1340.2466,805.2734 L1340.2466,779.2734" fill="#E2E2F0" style="stroke:#181818;stroke-width:0.5;"/><path d="M1340.2466,779.2734 C1340.2466,789.2734 1358.2466,789.2734 1358.2466,789.2734 C1358.2466,789.2734 1376.2466,789.2734 1376.2466,779.2734" fill="none" style="stroke:#181818;stroke-width:0.5;"/></g><g class="participant participant-head" data-entity-uid="part7" data-qualified-name="C" id="part7-head"><rect fill="#E2E2F0" height="46.5938" rx="2.5" ry="2.5" style="stroke:#181818;stroke-width:0.5;" width="116.5938" x="1411.623" y="73.2969"/><text fill="#000000" font-family="sans-serif" font-size="14" lengthAdjust="spacing" textLength="102.5938" x="1418.623" y="93.292">MainController</text><text fill="#000000" font-family="sans-serif" font-size="14" lengthAdjust="spacing" textLength="75.1475" x="1432.3462" y="109.5889">(Observer)</text></g><g class="participant participant-tail" data-entity-uid="part7" data-qualified-name="C" id="part7-tail"><rect fill="#E2E2F0" height="46.5938" rx="2.5" ry="2.5" style="stroke:#181818;stroke-width:0.5;" width="116.5938" x="1411.623" y="736.6797"/><text fill="#000000" font-family="sans-serif" font-size="14" lengthAdjust="spacing" textLength="102.5938" x="1418.623" y="756.6748">MainController</text><text fill="#000000" font-family="sans-serif" font-size="14" lengthAdjust="spacing" textLength="75.1475" x="1432.3462" y="772.9717">(Observer)</text></g><g class="message" data-entity-1="part1" data-entity-2="part2" id="msg1"><polygon fill="#181818" points="278.1563,148.0234,288.1563,152.0234,278.1563,156.0234,282.1563,152.0234" style="stroke:#181818;stroke-width:1;"/><line style="stroke:#181818;stroke-width:1;" x1="23.9551" x2="284.1563" y1="152.0234" y2="152.0234"/><text fill="#000000" font-family="sans-serif" font-size="13" lengthAdjust="spacing" textLength="145.9834" x="30.9551" y="146.9575">GET /client/edit?id=42</text></g><g class="message" data-entity-1="part2" data-entity-2="part3" id="msg2"><polygon fill="#181818" points="632.9834,177.1563,642.9834,181.1563,632.9834,185.1563,636.9834,181.1563" style="stroke:#181818;stroke-width:1;"/><line style="stroke:#181818;stroke-width:1;" x1="290.1563" x2="638.9834" y1="181.1563" y2="181.1563"/><text fill="#000000" font-family="sans-serif" font-size="13" lengthAdjust="spacing" textLength="72.1411" x="297.1563" y="176.0903">edit_form()</text></g><g class="message" data-entity-1="part3" data-entity-2="part4" id="msg3"><polygon fill="#181818" points="832.7563,206.2891,842.7563,210.2891,832.7563,214.2891,836.7563,210.2891" style="stroke:#181818;stroke-width:1;"/><line style="stroke:#181818;stroke-width:1;" x1="644.9834" x2="838.7563" y1="210.2891" y2="210.2891"/><text fill="#000000" font-family="sans-serif" font-size="13" lengthAdjust="spacing" textLength="88.8418" x="651.9834" y="205.2231">get_by_id(42)</text></g><g class="message" data-entity-1="part4" data-entity-2="part5" id="msg4"><polygon fill="#181818" points="1065.7949,235.4219,1075.7949,239.4219,1065.7949,243.4219,1069.7949,239.4219" style="stroke:#181818;stroke-width:1;"/><line style="stroke:#181818;stroke-width:1;" x1="844.7563" x2="1071.7949" y1="239.4219" y2="239.4219"/><text fill="#000000" font-family="sans-serif" font-size="13" lengthAdjust="spacing" textLength="88.8418" x="851.7563" y="234.356">get_by_id(42)</text></g><g class="message" data-entity-1="part5" data-entity-2="part6" id="msg5"><polygon fill="#181818" points="1346.2466,264.5547,1356.2466,268.5547,1346.2466,272.5547,1350.2466,268.5547" style="stroke:#181818;stroke-width:1;"/><line style="stroke:#181818;stroke-width:1;" x1="1077.7949" x2="1352.2466" y1="268.5547" y2="268.5547"/><text fill="#000000" font-family="sans-serif" font-size="13" lengthAdjust="spacing" textLength="161.1226" x="1084.7949" y="263.4888">SELECT ... WHERE id=42</text></g><g class="message" data-entity-1="part6" data-entity-2="part5" id="msg6"><polygon fill="#181818" points="1088.7949,293.6875,1078.7949,297.6875,1088.7949,301.6875,1084.7949,297.6875" style="stroke:#181818;stroke-width:1;"/><line style="stroke:#181818;stroke-width:1;stroke-dasharray:2,2;" x1="1082.7949" x2="1357.2466" y1="297.6875" y2="297.6875"/><text fill="#000000" font-family="sans-serif" font-size="13" lengthAdjust="spacing" textLength="85.4141" x="1094.7949" y="292.6216">row -&gt; Client</text></g><g class="message" data-entity-1="part5" data-entity-2="part4" id="msg7"><polygon fill="#181818" points="855.7563,322.8203,845.7563,326.8203,855.7563,330.8203,851.7563,326.8203" style="stroke:#181818;stroke-width:1;"/><line style="stroke:#181818;stroke-width:1;stroke-dasharray:2,2;" x1="849.7563" x2="1076.7949" y1="326.8203" y2="326.8203"/><text fill="#000000" font-family="sans-serif" font-size="13" lengthAdjust="spacing" textLength="37.6353" x="861.7563" y="321.7544">Client</text></g><g class="message" data-entity-1="part4" data-entity-2="part3" id="msg8"><polygon fill="#181818" points="655.9834,351.9531,645.9834,355.9531,655.9834,359.9531,651.9834,355.9531" style="stroke:#181818;stroke-width:1;"/><line style="stroke:#181818;stroke-width:1;stroke-dasharray:2,2;" x1="649.9834" x2="843.7563" y1="355.9531" y2="355.9531"/><text fill="#000000" font-family="sans-serif" font-size="13" lengthAdjust="spacing" textLength="37.6353" x="661.9834" y="350.8872">Client</text></g><g class="message" data-entity-1="part3" data-entity-2="part2" id="msg9"><polygon fill="#181818" points="301.1563,381.0859,291.1563,385.0859,301.1563,389.0859,297.1563,385.0859" style="stroke:#181818;stroke-width:1;"/><line style="stroke:#181818;stroke-width:1;stroke-dasharray:2,2;" x1="295.1563" x2="643.9834" y1="385.0859" y2="385.0859"/><text fill="#000000" font-family="sans-serif" font-size="13" lengthAdjust="spacing" textLength="229.0615" x="307.1563" y="380.02">HTML (ClientFormView.render edit)</text></g><g class="message" data-entity-1="part1" data-entity-2="part2" id="msg10"><polygon fill="#181818" points="278.1563,410.2188,288.1563,414.2188,278.1563,418.2188,282.1563,414.2188" style="stroke:#181818;stroke-width:1;"/><line style="stroke:#181818;stroke-width:1;" x1="23.9551" x2="284.1563" y1="414.2188" y2="414.2188"/><text fill="#000000" font-family="sans-serif" font-size="13" lengthAdjust="spacing" textLength="242.2012" x="30.9551" y="409.1528">POST /client/update (id=42, payload)</text></g><g class="message" data-entity-1="part2" data-entity-2="part3" id="msg11"><polygon fill="#181818" points="632.9834,439.3516,642.9834,443.3516,632.9834,447.3516,636.9834,443.3516" style="stroke:#181818;stroke-width:1;"/><line style="stroke:#181818;stroke-width:1;" x1="290.1563" x2="638.9834" y1="443.3516" y2="443.3516"/><text fill="#000000" font-family="sans-serif" font-size="13" lengthAdjust="spacing" textLength="107.6436" x="297.1563" y="438.2856">update(payload)</text></g><g class="message" data-entity-1="part3" data-entity-2="part4" id="msg12"><polygon fill="#181818" points="832.7563,468.4844,842.7563,472.4844,832.7563,476.4844,836.7563,472.4844" style="stroke:#181818;stroke-width:1;"/><line style="stroke:#181818;stroke-width:1;" x1="644.9834" x2="838.7563" y1="472.4844" y2="472.4844"/><text fill="#000000" font-family="sans-serif" font-size="13" lengthAdjust="spacing" textLength="175.7729" x="651.9834" y="467.4185">replace_by_id(42, payload)</text></g><g class="message" data-entity-1="part4" data-entity-2="part5" id="msg13"><polygon fill="#181818" points="1065.7949,497.6172,1075.7949,501.6172,1065.7949,505.6172,1069.7949,501.6172" style="stroke:#181818;stroke-width:1;"/><line style="stroke:#181818;stroke-width:1;" x1="844.7563" x2="1071.7949" y1="501.6172" y2="501.6172"/><text fill="#000000" font-family="sans-serif" font-size="13" lengthAdjust="spacing" textLength="175.7729" x="851.7563" y="496.5513">replace_by_id(42, payload)</text></g><g class="message" data-entity-1="part5" data-entity-2="part6" id="msg14"><polygon fill="#181818" points="1346.2466,526.75,1356.2466,530.75,1346.2466,534.75,1350.2466,530.75" style="stroke:#181818;stroke-width:1;"/><line style="stroke:#181818;stroke-width:1;" x1="1077.7949" x2="1352.2466" y1="530.75" y2="530.75"/><text fill="#000000" font-family="sans-serif" font-size="13" lengthAdjust="spacing" textLength="256.4517" x="1084.7949" y="525.6841">UPDATE ... WHERE id=42 RETURNING *</text></g><g class="message" data-entity-1="part6" data-entity-2="part5" id="msg15"><polygon fill="#181818" points="1088.7949,555.8828,1078.7949,559.8828,1088.7949,563.8828,1084.7949,559.8828" style="stroke:#181818;stroke-width:1;"/><line style="stroke:#181818;stroke-width:1;stroke-dasharray:2,2;" x1="1082.7949" x2="1357.2466" y1="559.8828" y2="559.8828"/><text fill="#000000" font-family="sans-serif" font-size="13" lengthAdjust="spacing" textLength="149.6143" x="1094.7949" y="554.8169">row -&gt; Client(updated)</text></g><g class="message" data-entity-1="part5" data-entity-2="part4" id="msg16"><polygon fill="#181818" points="855.7563,585.0156,845.7563,589.0156,855.7563,593.0156,851.7563,589.0156" style="stroke:#181818;stroke-width:1;"/><line style="stroke:#181818;stroke-width:1;stroke-dasharray:2,2;" x1="849.7563" x2="1076.7949" y1="589.0156" y2="589.0156"/><text fill="#000000" font-family="sans-serif" font-size="13" lengthAdjust="spacing" textLength="101.8354" x="861.7563" y="583.9497">Client(updated)</text></g><g class="message" data-entity-1="part4" data-entity-2="part4" id="msg17"><line style="stroke:#181818;stroke-width:1;" x1="844.7563" x2="886.7563" y1="633.2813" y2="633.2813"/><line style="stroke:#181818;stroke-width:1;" x1="886.7563" x2="886.7563" y1="633.2813" y2="646.2813"/><line style="stroke:#181818;stroke-width:1;" x1="845.7563" x2="886.7563" y1="646.2813" y2="646.2813"/><polygon fill="#181818" points="855.7563,642.2813,845.7563,646.2813,855.7563,650.2813,851.7563,646.2813" style="stroke:#181818;stroke-width:1;"/><text fill="#000000" font-family="sans-serif" font-size="13" lengthAdjust="spacing" textLength="196.625" x="851.7563" y="613.0825">notify('client_updated', Client)</text><text fill="#000000" font-family="sans-serif" font-size="13" lengthAdjust="spacing" textLength="219.0386" x="851.7563" y="628.2153">list_all_short()+notify('list_ready')</text></g><g class="message" data-entity-1="part4" data-entity-2="part7" id="msg18"><polygon fill="#181818" points="1457.9199,686.5469,1467.9199,690.5469,1457.9199,694.5469,1461.9199,690.5469" style="stroke:#181818;stroke-width:1;"/><line style="stroke:#181818;stroke-width:1;" x1="844.7563" x2="1463.9199" y1="690.5469" y2="690.5469"/><text fill="#000000" font-family="sans-serif" font-size="13" lengthAdjust="spacing" textLength="205.2578" x="851.7563" y="670.3481">update('client_updated', Client)</text><text fill="#000000" font-family="sans-serif" font-size="13" lengthAdjust="spacing" textLength="174.3892" x="851.7563" y="685.481">update('list_ready', shorts)</text></g><g class="message" data-entity-1="part3" data-entity-2="part2" id="msg19"><polygon fill="#181818" points="301.1563,715.6797,291.1563,719.6797,301.1563,723.6797,297.1563,719.6797" style="stroke:#181818;stroke-width:1;"/><line style="stroke:#181818;stroke-width:1;stroke-dasharray:2,2;" x1="295.1563" x2="643.9834" y1="719.6797" y2="719.6797"/><text fill="#000000" font-family="sans-serif" font-size="13" lengthAdjust="spacing" textLength="330.8271" x="307.1563" y="714.6138">success_and_close(event='client_updated', id=42)</text></g><!--SRC=[VL9DRvmm5BppAvvoMMWtH8foMYcD-72JIfj0MMWlaP21bwqh5oFRcsZ_VJ5c8IHAZioRDszcZ6QQ8qHP4M-WIECW9uv3Qoqa50ebK0M5qr6fMSqwsceuIqLtwE2YvWnRVO4DqpUikVRzCyDDbrpIJwE168bMIy4voe57bhoawcyzqugZPQiCE_7Okhj3zHThxGqxIRPScgbn63IqqwDs43iDrRIY2erRfVSITp-tlLowZqEh5OTBhNlAsjbYJxMEK5fwv3W5d7-3T0Et97yN_khIISsORC10vPEG_rpF8GPBiWtiKPVLiMIDUtNfEKbcy21-YmUnmUDm0pko9L4Elk_3xpkI4R0tuX3EnqqfNWpPLZ1iZgT6nDomXaQ03D-z_xlyVWkkHR_tFdynVF4bjat_sCQyDqTDazsSzT3rfIAuWvKrTFJ81MsyARYTknC-XPVOSLhZ5FJLxjp49wIv5ljxlgq5Cf8NsSEFXrluyc55hhKtoYswcaUZ7pDgXMPFHtTbmvSZPRKUTxp7bZEbIyfvgVu8gLtlwsbb64YapN5rIXXDzNmYU6Aysb_38AvwQzFxgKDTer8bRPkovaAXYy-zmFLxvQ4Txpy0]--></g></svg>