<svg xmlns="http://www.w3.org/2000/svg" xmlns:xlink="http://www.w3.org/1999/xlink" contentStyleType="text/css" data-diagram-type="SEQUENCE" height="832px" preserveAspectRatio="none" style="width:1492px;height:832px;background:#FFFFFF;" version="1.1" viewBox="0 0 1492 832" width="1492px" zoomAndPan="magnify"><title>CRUD: DELETE</title><defs/><g><text fill="#000000" font-family="sans-serif" font-size="14" font-weight="bold" lengthAdjust="spacing" textLength="113.2988" x="688.355" y="27.9951">CRUD: DELETE</text><g class="participant-lifeline" data-entity-uid="part1" data-qualified-name="U" id="part1-lifeline"><g><title>User</title><rect fill="#000000" fill-opacity="0.00000" height="616.7891" width="8" x="19.9551" y="120.8906"/><line style="stroke:#181818;stroke-width:0.5;stroke-dasharray:5,5;" x1="23" x2="23" y1="120.8906" y2="737.6797"/></g></g><g class="participant-lifeline" data-entity-uid="part2" data-qualified-name="P" id="part2-lifeline"><g><title>Popup .client.delete.id...</title><rect fill="#000000" fill-opacity="0.00000" height="616.7891" width="8" x="275.2637" y="120.8906"/><line style="stroke:#181818;stroke-width:0.5;stroke-dasharray:5,5;" x1="278.7969" x2="278.7969" y1="120.8906" y2="737.6797"/></g></g><g class="participant-lifeline" data-entity-uid="part3" data-qualified-name="DCtrl" id="part3-lifeline"><g><title>DeleteClientController</title><rect fill="#000000" fill-opacity="0.00000" height="616.7891" width="8" x="625.2412" y="120.8906"/><line style="stroke:#181818;stroke-width:0.5;stroke-dasharray:5,5;" x1="628.3901" x2="628.3901" y1="120.8906" y2="737.6797"/></g></g><g class="participant-lifeline" data-entity-uid="part4" data-qualified-name="OR" id="part4-lifeline"><g><title>ObservableClientsRepo</title><rect fill="#000000" fill-opacity="0.00000" height="616.7891" width="8" x="808.8125" y="120.8906"/><line style="stroke:#181818;stroke-width:0.5;stroke-dasharray:5,5;" x1="812.0923" x2="812.0923" y1="120.8906" y2="737.6797"/></g></g><g class="participant-lifeline" data-entity-uid="part5" data-qualified-name="AD" id="part5-lifeline"><g><title>ClientsRepDBAdapter</title><rect fill="#000000" fill-opacity="0.00000" height="616.7891" width="8" x="1083.9297" y="120.8906"/><line style="stroke:#181818;stroke-width:0.5;stroke-dasharray:5,5;" x1="1087.3174" x2="1087.3174" y1="120.8906" y2="737.6797"/></g></g><g class="participant-lifeline" data-entity-uid="part6" data-qualified-name="DB" id="part6-lifeline"><g><title>PostgreSQL</title><rect fill="#000000" fill-opacity="0.00000" height="616.7891" width="8" x="1312.0386" y="120.8906"/><line style="stroke:#181818;stroke-width:0.5;stroke-dasharray:5,5;" x1="1315.6621" x2="1315.6621" y1="120.8906" y2="737.6797"/></g></g><g class="participant-lifeline" data-entity-uid="part7" data-qualified-name="C" id="part7-lifeline"><g><title>MainController</title><rect fill="#000000" fill-opacity="0.00000" height="616.7891" width="8" x="1423.7119" y="120.8906"/><line style="stroke:#181818;stroke-width:0.5;stroke-dasharray:5,5;" x1="1427.415" x2="1427.415" y1="120.8906" y2="737.6797"/></g></g><g class="participant participant-head" data-entity-uid="part1" data-qualified-name="U" id="part1-head"><text fill="#000000" font-family="sans-serif" font-size="14" lengthAdjust="spacing" textLength="31.9102" x="5" y="117.5889">User</text><ellipse cx="23.9551" cy="53.0938" fill="#E2E2F0" rx="8" ry="8" style="stroke:#181818;stroke-width:0.5;"/><path d="M23.9551,61.0938 L23.9551,88.0938 M10.9551,69.0938 L36.9551,69.0938 M23.9551,88.0938 L10.9551,103.0938 M23.9551,88.0938 L36.9551,103.0938" fill="none" style="stroke:#181818;stroke-width:0.5;"/></g><g class="participant participant-tail" data-entity-uid="part1" data-qualified-name="U" id="part1-tail"><text fill="#000000" font-family="sans-serif" font-size="14" lengthAdjust="spacing" textLength="31.9102" x="5" y="749.6748">User</text><ellipse cx="23.9551" cy="761.4766" fill="#E2E2F0" rx="8" ry="8" style="stroke:#181818;stroke-width:0.5;"/><path d="M23.9551,769.4766 L23.9551,796.4766 M10.9551,777.4766 L36.9551,777.4766 M23.9551,796.4766 L10.9551,811.4766 M23.9551,796.4766 L36.9551,811.4766" fill="none" style="stroke:#181818;stroke-width:0.5;"/></g><g class="participant participant-head" data-entity-uid="part2" data-qualified-name="P" id="part2-head"><rect fill="#E2E2F0" height="30.2969" rx="2.5" ry="2.5" style="stroke:#181818;stroke-width:0.5;" width="194.9336" x="181.7969" y="89.5938"/><text fill="#000000" font-family="sans-serif" font-size="14" lengthAdjust="spacing" textLength="180.9336" x="188.7969" y="109.5889">Popup /client/delete?id=..</text></g><g class="participant participant-tail" data-entity-uid="part2" data-qualified-name="P" id="part2-tail"><rect fill="#E2E2F0" height="30.2969" rx="2.5" ry="2.5" style="stroke:#181818;stroke-width:0.5;" width="194.9336" x="181.7969" y="736.6797"/><text fill="#000000" font-family="sans-serif" font-size="14" lengthAdjust="spacing" textLength="180.9336" x="188.7969" y="756.6748">Popup /client/delete?id=..</text></g><g class="participant participant-head" data-entity-uid="part3" data-qualified-name="DCtrl" id="part3-head"><rect fill="#E2E2F0" height="30.2969" rx="2.5" ry="2.5" style="stroke:#181818;stroke-width:0.5;" width="169.7021" x="544.3901" y="89.5938"/><text fill="#000000" font-family="sans-serif" font-size="14" lengthAdjust="spacing" textLength="155.7021" x="551.3901" y="109.5889">DeleteClientController</text></g><g class="participant participant-tail" data-entity-uid="part3" data-qualified-name="DCtrl" id="part3-tail"><rect fill="#E2E2F0" height="30.2969" rx="2.5" ry="2.5" style="stroke:#181818;stroke-width:0.5;" width="169.7021" x="544.3901" y="736.6797"/><text fill="#000000" font-family="sans-serif" font-size="14" lengthAdjust="spacing" textLength="155.7021" x="551.3901" y="756.6748">DeleteClientController</text></g><g class="participant participant-head" data-entity-uid="part4" data-qualified-name="OR" id="part4-head"><rect fill="#E2E2F0" height="46.5938" rx="2.5" ry="2.5" style="stroke:#181818;stroke-width:0.5;" width="177.4404" x="724.0923" y="73.2969"/><text fill="#000000" font-family="sans-serif" font-size="14" lengthAdjust="spacing" textLength="163.4404" x="731.0923" y="93.292">ObservableClientsRepo</text><text fill="#000000" font-family="sans-serif" font-size="14" lengthAdjust="spacing" textLength="63.2598" x="781.1826" y="109.5889">(Subject)</text></g><g class="participant participant-tail" data-entity-uid="part4" data-qualified-name="OR" id="part4-tail"><rect fill="#E2E2F0" height="46.5938" rx="2.5" ry="2.5" style="stroke:#181818;stroke-width:0.5;" width="177.4404" x="724.0923" y="736.6797"/><text fill="#000000" font-family="sans-serif" font-size="14" lengthAdjust="spacing" textLength="163.4404" x="731.0923" y="756.6748">ObservableClientsRepo</text><text fill="#000000" font-family="sans-serif" font-size="14" lengthAdjust="spacing" textLength="63.2598" x="781.1826" y="772.9717">(Subject)</text></g><g class="participant participant-head" data-entity-uid="part5" data-qualified-name="AD" id="part5-head"><rect fill="#E2E2F0" height="30.2969" rx="2.5" ry="2.5" style="stroke:#181818;stroke-width:0.5;" width="165.2246" x="1005.3174" y="89.5938"/><text fill="#000000" font-family="sans-serif" font-size="14" lengthAdjust="spacing" textLength="151.2246" x="1012.3174" y="109.5889">ClientsRepDBAdapter</text></g><g class="participant participant-tail" data-entity-uid="part5" data-qualified-name="AD" id="part5-tail"><rect fill="#E2E2F0" height="30.2969" rx="2.5" ry="2.5" style="stroke:#181818;stroke-width:0.5;" width="165.2246" x="1005.3174" y="736.6797"/><text fill="#000000" font-family="sans-serif" font-size="14" lengthAdjust="spacing" textLength="151.2246" x="1012.3174" y="756.6748">ClientsRepDBAdapter</text></g><g class="participant participant-head" data-entity-uid="part6" data-qualified-name="DB" id="part6-head"><text fill="#000000" font-family="sans-serif" font-size="14" lengthAdjust="spacing" textLength="80.7529" x="1272.6621" y="101.292">PostgreSQL</text><text fill="#000000" font-family="sans-serif" font-size="14" lengthAdjust="spacing" textLength="48.6377" x="1288.7197" y="117.5889">(PgDB)</text><path d="M1298.0386,52.2969 C1298.0386,42.2969 1316.0386,42.2969 1316.0386,42.2969 C1316.0386,42.2969 1334.0386,42.2969 1334.0386,52.2969 L1334.0386,78.2969 C1334.0386,88.2969 1316.0386,88.2969 1316.0386,88.2969 C1316.0386,88.2969 1298.0386,88.2969 1298.0386,78.2969 L1298.0386,52.2969" fill="#E2E2F0" style="stroke:#181818;stroke-width:0.5;"/><path d="M1298.0386,52.2969 C1298.0386,62.2969 1316.0386,62.2969 1316.0386,62.2969 C1316.0386,62.2969 1334.0386,62.2969 1334.0386,52.2969" fill="none" style="stroke:#181818;stroke-width:0.5;"/></g><g class="participant participant-tail" data-entity-uid="part6" data-qualified-name="DB" id="part6-tail"><text fill="#000000" font-family="sans-serif" font-size="14" lengthAdjust="spacing" textLength="80.7529" x="1272.6621" y="749.6748">PostgreSQL</text><text fill="#000000" font-family="sans-serif" font-size="14" lengthAdjust="spacing" textLength="48.6377" x="1288.7197" y="765.9717">(PgDB)</text><path d="M1298.0386,779.2734 C1298.0386,769.2734 1316.0386,769.2734 1316.0386,769.2734 C1316.0386,769.2734 1334.0386,769.2734 1334.0386,779.2734 L1334.0386,805.2734 C1334.0386,815.2734 1316.0386,815.2734 1316.0386,815.2734 C1316.0386,815.2734 1298.0386,815.2734 1298.0386,805.2734 L1298.0386,779.2734" fill="#E2E2F0" style="stroke:#181818;stroke-width:0.5;"/><path d="M1298.0386,779.2734 C1298.0386,789.2734 1316.0386,789.2734 1316.0386,789.2734 C1316.0386,789.2734 1334.0386,789.2734 1334.0386,779.2734" fill="none" style="stroke:#181818;stroke-width:0.5;"/></g><g class="participant participant-head" data-entity-uid="part7" data-qualified-name="C" id="part7-head"><rect fill="#E2E2F0" height="46.5938" rx="2.5" ry="2.5" style="stroke:#181818;stroke-width:0.5;" width="116.5938" x="1369.415" y="73.2969"/><text fill="#000000" font-family="sans-serif" font-size="14" lengthAdjust="spacing" textLength="102.5938" x="1376.415" y="93.292">MainController</text><text fill="#000000" font-family="sans-serif" font-size="14" lengthAdjust="spacing" textLength="75.1475" x="1390.1382" y="109.5889">(Observer)</text></g><g class="participant participant-tail" data-entity-uid="part7" data-qualified-name="C" id="part7-tail"><rect fill="#E2E2F0" height="46.5938" rx="2.5" ry="2.5" style="stroke:#181818;stroke-width:0.5;" width="116.5938" x="1369.415" y="736.6797"/><text fill="#000000" font-family="sans-serif" font-size="14" lengthAdjust="spacing" textLength="102.5938" x="1376.415" y="756.6748">MainController</text><text fill="#000000" font-family="sans-serif" font-size="14" lengthAdjust="spacing" textLength="75.1475" x="1390.1382" y="772.9717">(Observer)</text></g><g class="message" data-entity-1="part1" data-entity-2="part2" id="msg1"><polygon fill="#181818" points="267.2637,148.0234,277.2637,152.0234,267.2637,156.0234,271.2637,152.0234" style="stroke:#181818;stroke-width:1;"/><line style="stroke:#181818;stroke-width:1;" x1="23.9551" x2="273.2637" y1="152.0234" y2="152.0234"/><text fill="#000000" font-family="sans-serif" font-size="13" lengthAdjust="spacing" textLength="161.9795" x="30.9551" y="146.9575">GET /client/delete?id=42</text></g><g class="message" data-entity-1="part2" data-entity-2="part3" id="msg2"><polygon fill="#181818" points="617.2412,177.1563,627.2412,181.1563,617.2412,185.1563,621.2412,181.1563" style="stroke:#181818;stroke-width:1;"/><line style="stroke:#181818;stroke-width:1;" x1="279.2637" x2="623.2412" y1="181.1563" y2="181.1563"/><text fill="#000000" font-family="sans-serif" font-size="13" lengthAdjust="spacing" textLength="59.6807" x="286.2637" y="176.0903">confirm()</text></g><g class="message" data-entity-1="part3" data-entity-2="part4" id="msg3"><polygon fill="#181818" points="800.8125,206.2891,810.8125,210.2891,800.8125,214.2891,804.8125,210.2891" style="stroke:#181818;stroke-width:1;"/><line style="stroke:#181818;stroke-width:1;" x1="629.2412" x2="806.8125" y1="210.2891" y2="210.2891"/><text fill="#000000" font-family="sans-serif" font-size="13" lengthAdjust="spacing" textLength="88.8418" x="636.2412" y="205.2231">get_by_id(42)</text></g><g class="message" data-entity-1="part4" data-entity-2="part5" id="msg4"><polygon fill="#181818" points="1075.9297,235.4219,1085.9297,239.4219,1075.9297,243.4219,1079.9297,239.4219" style="stroke:#181818;stroke-width:1;"/><line style="stroke:#181818;stroke-width:1;" x1="812.8125" x2="1081.9297" y1="239.4219" y2="239.4219"/><text fill="#000000" font-family="sans-serif" font-size="13" lengthAdjust="spacing" textLength="88.8418" x="819.8125" y="234.356">get_by_id(42)</text></g><g class="message" data-entity-1="part5" data-entity-2="part6" id="msg5"><polygon fill="#181818" points="1304.0386,264.5547,1314.0386,268.5547,1304.0386,272.5547,1308.0386,268.5547" style="stroke:#181818;stroke-width:1;"/><line style="stroke:#181818;stroke-width:1;" x1="1087.9297" x2="1310.0386" y1="268.5547" y2="268.5547"/><text fill="#000000" font-family="sans-serif" font-size="13" lengthAdjust="spacing" textLength="161.1226" x="1094.9297" y="263.4888">SELECT ... WHERE id=42</text></g><g class="message" data-entity-1="part6" data-entity-2="part5" id="msg6"><polygon fill="#181818" points="1098.9297,293.6875,1088.9297,297.6875,1098.9297,301.6875,1094.9297,297.6875" style="stroke:#181818;stroke-width:1;"/><line style="stroke:#181818;stroke-width:1;stroke-dasharray:2,2;" x1="1092.9297" x2="1315.0386" y1="297.6875" y2="297.6875"/><text fill="#000000" font-family="sans-serif" font-size="13" lengthAdjust="spacing" textLength="85.4141" x="1104.9297" y="292.6216">row -&gt; Client</text></g><g class="message" data-entity-1="part5" data-entity-2="part4" id="msg7"><polygon fill="#181818" points="823.8125,322.8203,813.8125,326.8203,823.8125,330.8203,819.8125,326.8203" style="stroke:#181818;stroke-width:1;"/><line style="stroke:#181818;stroke-width:1;stroke-dasharray:2,2;" x1="817.8125" x2="1086.9297" y1="326.8203" y2="326.8203"/><text fill="#000000" font-family="sans-serif" font-size="13" lengthAdjust="spacing" textLength="37.6353" x="829.8125" y="321.7544">Client</text></g><g class="message" data-entity-1="part4" data-entity-2="part3" id="msg8"><polygon fill="#181818" points="640.2412,351.9531,630.2412,355.9531,640.2412,359.9531,636.2412,355.9531" style="stroke:#181818;stroke-width:1;"/><line style="stroke:#181818;stroke-width:1;stroke-dasharray:2,2;" x1="634.2412" x2="811.8125" y1="355.9531" y2="355.9531"/><text fill="#000000" font-family="sans-serif" font-size="13" lengthAdjust="spacing" textLength="37.6353" x="646.2412" y="350.8872">Client</text></g><g class="message" data-entity-1="part3" data-entity-2="part2" id="msg9"><polygon fill="#181818" points="290.2637,381.0859,280.2637,385.0859,290.2637,389.0859,286.2637,385.0859" style="stroke:#181818;stroke-width:1;"/><line style="stroke:#181818;stroke-width:1;stroke-dasharray:2,2;" x1="284.2637" x2="628.2412" y1="385.0859" y2="385.0859"/><text fill="#000000" font-family="sans-serif" font-size="13" lengthAdjust="spacing" textLength="183.8789" x="296.2637" y="380.02">HTML (confirm_delete_view)</text></g><g class="message" data-entity-1="part1" data-entity-2="part2" id="msg10"><polygon fill="#181818" points="267.2637,410.2188,277.2637,414.2188,267.2637,418.2188,271.2637,414.2188" style="stroke:#181818;stroke-width:1;"/><line style="stroke:#181818;stroke-width:1;" x1="23.9551" x2="273.2637" y1="414.2188" y2="414.2188"/><text fill="#000000" font-family="sans-serif" font-size="13" lengthAdjust="spacing" textLength="231.3086" x="30.9551" y="409.1528">POST /client/delete/confirm (id=42)</text></g><g class="message" data-entity-1="part2" data-entity-2="part3" id="msg11"><polygon fill="#181818" points="617.2412,439.3516,627.2412,443.3516,617.2412,447.3516,621.2412,443.3516" style="stroke:#181818;stroke-width:1;"/><line style="stroke:#181818;stroke-width:1;" x1="279.2637" x2="623.2412" y1="443.3516" y2="443.3516"/><text fill="#000000" font-family="sans-serif" font-size="13" lengthAdjust="spacing" textLength="59.7949" x="286.2637" y="438.2856">remove()</text></g><g class="message" data-entity-1="part3" data-entity-2="part4" id="msg12"><polygon fill="#181818" points="800.8125,468.4844,810.8125,472.4844,800.8125,476.4844,804.8125,472.4844" style="stroke:#181818;stroke-width:1;"/><line style="stroke:#181818;stroke-width:1;" x1="629.2412" x2="806.8125" y1="472.4844" y2="472.4844"/><text fill="#000000" font-family="sans-serif" font-size="13" lengthAdjust="spacing" textLength="108.4497" x="636.2412" y="467.4185">delete_by_id(42)</text></g><g class="message" data-entity-1="part4" data-entity-2="part5" id="msg13"><polygon fill="#181818" points="1075.9297,497.6172,1085.9297,501.6172,1075.9297,505.6172,1079.9297,501.6172" style="stroke:#181818;stroke-width:1;"/><line style="stroke:#181818;stroke-width:1;" x1="812.8125" x2="1081.9297" y1="501.6172" y2="501.6172"/><text fill="#000000" font-family="sans-serif" font-size="13" lengthAdjust="spacing" textLength="108.4497" x="819.8125" y="496.5513">delete_by_id(42)</text></g><g class="message" data-entity-1="part5" data-entity-2="part6" id="msg14"><polygon fill="#181818" points="1304.0386,526.75,1314.0386,530.75,1304.0386,534.75,1308.0386,530.75" style="stroke:#181818;stroke-width:1;"/><line style="stroke:#181818;stroke-width:1;" x1="1087.9297" x2="1310.0386" y1="530.75" y2="530.75"/><text fill="#000000" font-family="sans-serif" font-size="13" lengthAdjust="spacing" textLength="204.1089" x="1094.9297" y="525.6841">DELETE FROM ... WHERE id=42</text></g><g class="message" data-entity-1="part6" data-entity-2="part5" id="msg15"><polygon fill="#181818" points="1098.9297,555.8828,1088.9297,559.8828,1098.9297,563.8828,1094.9297,559.8828" style="stroke:#181818;stroke-width:1;"/><line style="stroke:#181818;stroke-width:1;stroke-dasharray:2,2;" x1="1092.9297" x2="1315.0386" y1="559.8828" y2="559.8828"/><text fill="#000000" font-family="sans-serif" font-size="13" lengthAdjust="spacing" textLength="15.4819" x="1104.9297" y="554.8169">ok</text></g><g class="message" data-entity-1="part5" data-entity-2="part4" id="msg16"><polygon fill="#181818" points="823.8125,585.0156,813.8125,589.0156,823.8125,593.0156,819.8125,589.0156" style="stroke:#181818;stroke-width:1;"/><line style="stroke:#181818;stroke-width:1;stroke-dasharray:2,2;" x1="817.8125" x2="1086.9297" y1="589.0156" y2="589.0156"/><text fill="#000000" font-family="sans-serif" font-size="13" lengthAdjust="spacing" textLength="199.0815" x="829.8125" y="583.9497">(deleted: Client | None, errors)</text></g><g class="message" data-entity-1="part4" data-entity-2="part4" id="msg17"><line style="stroke:#181818;stroke-width:1;" x1="812.8125" x2="854.8125" y1="633.2813" y2="633.2813"/><line style="stroke:#181818;stroke-width:1;" x1="854.8125" x2="854.8125" y1="633.2813" y2="646.2813"/><line style="stroke:#181818;stroke-width:1;" x1="813.8125" x2="854.8125" y1="646.2813" y2="646.2813"/><polygon fill="#181818" points="823.8125,642.2813,813.8125,646.2813,823.8125,650.2813,819.8125,646.2813" style="stroke:#181818;stroke-width:1;"/><text fill="#000000" font-family="sans-serif" font-size="13" lengthAdjust="spacing" textLength="261.1172" x="819.8125" y="613.0825">notify('client_deleted', {id:42, ok:True})</text><text fill="#000000" font-family="sans-serif" font-size="13" lengthAdjust="spacing" textLength="219.0386" x="819.8125" y="628.2153">list_all_short()+notify('list_ready')</text></g><g class="message" data-entity-1="part4" data-entity-2="part7" id="msg18"><polygon fill="#181818" points="1415.7119,686.5469,1425.7119,690.5469,1415.7119,694.5469,1419.7119,690.5469" style="stroke:#181818;stroke-width:1;"/><line style="stroke:#181818;stroke-width:1;" x1="812.8125" x2="1421.7119" y1="690.5469" y2="690.5469"/><text fill="#000000" font-family="sans-serif" font-size="13" lengthAdjust="spacing" textLength="191.7119" x="819.8125" y="670.3481">update('client_deleted', {...})</text><text fill="#000000" font-family="sans-serif" font-size="13" lengthAdjust="spacing" textLength="174.3892" x="819.8125" y="685.481">update('list_ready', shorts)</text></g><g class="message" data-entity-1="part3" data-entity-2="part2" id="msg19"><polygon fill="#181818" points="290.2637,715.6797,280.2637,719.6797,290.2637,723.6797,286.2637,719.6797" style="stroke:#181818;stroke-width:1;"/><line style="stroke:#181818;stroke-width:1;stroke-dasharray:2,2;" x1="284.2637" x2="628.2412" y1="719.6797" y2="719.6797"/><text fill="#000000" font-family="sans-serif" font-size="13" lengthAdjust="spacing" textLength="325.9775" x="296.2637" y="714.6138">success_and_close(event='client_deleted', id=42)</text></g><!--SRC=[VLB1Zfim5Bpp5Kzx2QXP8aKv8Msh1DFk8IcK4FMo4dBWRUhMYv5jiehQ_dl1TfGb6_NwtioycR4rqnmXpdSa0fAiaoBnF5ff8M6dK09LiFDQAZMhM4iR3NUPQBiMPXLdsEXPZHmrVcBrGnZU3UXiZ2Pc7njmB1ej1USe3PB4Ml8nEjttDuzqpnr3vTYAfyRVTlkVMEd0yD9yJBf0oMfPqrOx_INnQghfdYeSN2jzaBZzjkxbiWDPMIso6cjjA6ikDdkeTOJImcFFsy7zHyWY-98KDqfOpBri09Xi4LIYUMRonGyyCnWsQHx10NMvFvMizXVpm4lpORuar_CbCKgh2BRzkyG5X648tn-JF05xYQpWtZ6bU1t0jWh3TAVSPBXniUM6pfFDyrXirk0xmwLDL1uPlWQNp5cwlGuzSmpmZQTW55_YYpZYTNgdVQk0TwjB1_PlmkSytVol2F7hRNhV2jRdoF07lee6fu1I2gdwQFRsW6s4PiydVsBZkGRgoHH-ipfQpAUzT5J83ly6JmrdIfUKyrBz45BxmOSpsImaqleqEUUA8-ZQ_YFYBUa-oQ1t1hoXJy5e3nv7xwIwgaAbIjhKPSM5GX-FlUZ3Ut7x8Fy0]--></g></svg>