<svg xmlns="http://www.w3.org/2000/svg" xmlns:xlink="http://www.w3.org/1999/xlink" contentStyleType="text/css" data-diagram-type="SEQUENCE" height="758px" preserveAspectRatio="none" style="width:1647px;height:758px;background:#FFFFFF;" version="1.1" viewBox="0 0 1647 758" width="1647px" zoomAndPan="magnify"><title>CRUD: READ (Index + &#1092;&#1080;&#1083;&#1100;&#1090;&#1088;&#1072;&#1094;&#1080;&#1103;/&#1089;&#1086;&#1088;&#1090;&#1080;&#1088;&#1086;&#1074;&#1082;&#1072;)</title><defs/><g><text fill="#000000" font-family="sans-serif" font-size="14" font-weight="bold" lengthAdjust="spacing" textLength="378.1777" x="633.4502" y="27.9951">CRUD: READ (Index + &#1092;&#1080;&#1083;&#1100;&#1090;&#1088;&#1072;&#1094;&#1080;&#1103;/&#1089;&#1086;&#1088;&#1090;&#1080;&#1088;&#1086;&#1074;&#1082;&#1072;)</text><g class="participant-lifeline" data-entity-uid="part1" data-qualified-name="U" id="part1-lifeline"><g><title>User</title><rect fill="#000000" fill-opacity="0.00000" height="543.3906" width="8" x="19.9551" y="120.8906"/><line style="stroke:#181818;stroke-width:0.5;stroke-dasharray:5,5;" x1="23" x2="23" y1="120.8906" y2="664.2813"/></g></g><g class="participant-lifeline" data-entity-uid="part2" data-qualified-name="B" id="part2-lifeline"><g><title>Browser</title><rect fill="#000000" fill-opacity="0.00000" height="543.3906" width="8" x="396.9292" y="120.8906"/><line style="stroke:#181818;stroke-width:0.5;stroke-dasharray:5,5;" x1="400.4097" x2="400.4097" y1="120.8906" y2="664.2813"/></g></g><g class="participant-lifeline" data-entity-uid="part3" data-qualified-name="C" id="part3-lifeline"><g><title>MainController</title><rect fill="#000000" fill-opacity="0.00000" height="543.3906" width="8" x="500.7456" y="120.8906"/><line style="stroke:#181818;stroke-width:0.5;stroke-dasharray:5,5;" x1="504.4487" x2="504.4487" y1="120.8906" y2="664.2813"/></g></g><g class="participant-lifeline" data-entity-uid="part4" data-qualified-name="OR" id="part4-lifeline"><g><title>ObservableClientsRepo</title><rect fill="#000000" fill-opacity="0.00000" height="543.3906" width="8" x="845.2705" y="120.8906"/><line style="stroke:#181818;stroke-width:0.5;stroke-dasharray:5,5;" x1="848.5503" x2="848.5503" y1="120.8906" y2="664.2813"/></g></g><g class="participant-lifeline" data-entity-uid="part5" data-qualified-name="D" id="part5-lifeline"><g><title>DBFilterSortDecorator</title><rect fill="#000000" fill-opacity="0.00000" height="543.3906" width="8" x="1065.8037" y="120.8906"/><line style="stroke:#181818;stroke-width:0.5;stroke-dasharray:5,5;" x1="1068.9907" x2="1068.9907" y1="120.8906" y2="664.2813"/></g></g><g class="participant-lifeline" data-entity-uid="part6" data-qualified-name="DB" id="part6-lifeline"><g><title>PostgreSQL</title><rect fill="#000000" fill-opacity="0.00000" height="543.3906" width="8" x="1404.3745" y="120.8906"/><line style="stroke:#181818;stroke-width:0.5;stroke-dasharray:5,5;" x1="1407.998" x2="1407.998" y1="120.8906" y2="664.2813"/></g></g><g class="participant-lifeline" data-entity-uid="part7" data-qualified-name="V" id="part7-lifeline"><g><title>WebViews.index_view..</title><rect fill="#000000" fill-opacity="0.00000" height="543.3906" width="8" x="1547.4146" y="120.8906"/><line style="stroke:#181818;stroke-width:0.5;stroke-dasharray:5,5;" x1="1550.751" x2="1550.751" y1="120.8906" y2="664.2813"/></g></g><g class="participant participant-head" data-entity-uid="part1" data-qualified-name="U" id="part1-head"><text fill="#000000" font-family="sans-serif" font-size="14" lengthAdjust="spacing" textLength="31.9102" x="5" y="117.5889">User</text><ellipse cx="23.9551" cy="53.0938" fill="#E2E2F0" rx="8" ry="8" style="stroke:#181818;stroke-width:0.5;"/><path d="M23.9551,61.0938 L23.9551,88.0938 M10.9551,69.0938 L36.9551,69.0938 M23.9551,88.0938 L10.9551,103.0938 M23.9551,88.0938 L36.9551,103.0938" fill="none" style="stroke:#181818;stroke-width:0.5;"/></g><g class="participant participant-tail" data-entity-uid="part1" data-qualified-name="U" id="part1-tail"><text fill="#000000" font-family="sans-serif" font-size="14" lengthAdjust="spacing" textLength="31.9102" x="5" y="676.2764">User</text><ellipse cx="23.9551" cy="688.0781" fill="#E2E2F0" rx="8" ry="8" style="stroke:#181818;stroke-width:0.5;"/><path d="M23.9551,696.0781 L23.9551,723.0781 M10.9551,704.0781 L36.9551,704.0781 M23.9551,723.0781 L10.9551,738.0781 M23.9551,723.0781 L36.9551,738.0781" fill="none" style="stroke:#181818;stroke-width:0.5;"/></g><g class="participant participant-head" data-entity-uid="part2" data-qualified-name="B" id="part2-head"><rect fill="#E2E2F0" height="30.2969" rx="2.5" ry="2.5" style="stroke:#181818;stroke-width:0.5;" width="71.0391" x="365.4097" y="89.5938"/><text fill="#000000" font-family="sans-serif" font-size="14" lengthAdjust="spacing" textLength="57.0391" x="372.4097" y="109.5889">Browser</text></g><g class="participant participant-tail" data-entity-uid="part2" data-qualified-name="B" id="part2-tail"><rect fill="#E2E2F0" height="30.2969" rx="2.5" ry="2.5" style="stroke:#181818;stroke-width:0.5;" width="71.0391" x="365.4097" y="663.2813"/><text fill="#000000" font-family="sans-serif" font-size="14" lengthAdjust="spacing" textLength="57.0391" x="372.4097" y="683.2764">Browser</text></g><g class="participant participant-head" data-entity-uid="part3" data-qualified-name="C" id="part3-head"><rect fill="#E2E2F0" height="30.2969" rx="2.5" ry="2.5" style="stroke:#181818;stroke-width:0.5;" width="116.5938" x="446.4487" y="89.5938"/><text fill="#000000" font-family="sans-serif" font-size="14" lengthAdjust="spacing" textLength="102.5938" x="453.4487" y="109.5889">MainController</text></g><g class="participant participant-tail" data-entity-uid="part3" data-qualified-name="C" id="part3-tail"><rect fill="#E2E2F0" height="30.2969" rx="2.5" ry="2.5" style="stroke:#181818;stroke-width:0.5;" width="116.5938" x="446.4487" y="663.2813"/><text fill="#000000" font-family="sans-serif" font-size="14" lengthAdjust="spacing" textLength="102.5938" x="453.4487" y="683.2764">MainController</text></g><g class="participant participant-head" data-entity-uid="part4" data-qualified-name="OR" id="part4-head"><rect fill="#E2E2F0" height="46.5938" rx="2.5" ry="2.5" style="stroke:#181818;stroke-width:0.5;" width="177.4404" x="760.5503" y="73.2969"/><text fill="#000000" font-family="sans-serif" font-size="14" lengthAdjust="spacing" textLength="163.4404" x="767.5503" y="93.292">ObservableClientsRepo</text><text fill="#000000" font-family="sans-serif" font-size="14" lengthAdjust="spacing" textLength="63.2598" x="817.6406" y="109.5889">(Subject)</text></g><g class="participant participant-tail" data-entity-uid="part4" data-qualified-name="OR" id="part4-tail"><rect fill="#E2E2F0" height="46.5938" rx="2.5" ry="2.5" style="stroke:#181818;stroke-width:0.5;" width="177.4404" x="760.5503" y="663.2813"/><text fill="#000000" font-family="sans-serif" font-size="14" lengthAdjust="spacing" textLength="163.4404" x="767.5503" y="683.2764">ObservableClientsRepo</text><text fill="#000000" font-family="sans-serif" font-size="14" lengthAdjust="spacing" textLength="63.2598" x="817.6406" y="699.5732">(Subject)</text></g><g class="participant participant-head" data-entity-uid="part5" data-qualified-name="D" id="part5-head"><rect fill="#E2E2F0" height="46.5938" rx="2.5" ry="2.5" style="stroke:#181818;stroke-width:0.5;" width="243.626" x="947.9907" y="73.2969"/><text fill="#000000" font-family="sans-serif" font-size="14" lengthAdjust="spacing" textLength="154.5742" x="992.5166" y="93.292">DBFilterSortDecorator</text><text fill="#000000" font-family="sans-serif" font-size="14" lengthAdjust="spacing" textLength="229.626" x="954.9907" y="109.5889">ClientsRepDBFilterSortDecorator</text></g><g class="participant participant-tail" data-entity-uid="part5" data-qualified-name="D" id="part5-tail"><rect fill="#E2E2F0" height="46.5938" rx="2.5" ry="2.5" style="stroke:#181818;stroke-width:0.5;" width="243.626" x="947.9907" y="663.2813"/><text fill="#000000" font-family="sans-serif" font-size="14" lengthAdjust="spacing" textLength="154.5742" x="992.5166" y="683.2764">DBFilterSortDecorator</text><text fill="#000000" font-family="sans-serif" font-size="14" lengthAdjust="spacing" textLength="229.626" x="954.9907" y="699.5732">ClientsRepDBFilterSortDecorator</text></g><g class="participant participant-head" data-entity-uid="part6" data-qualified-name="DB" id="part6-head"><text fill="#000000" font-family="sans-serif" font-size="14" lengthAdjust="spacing" textLength="80.7529" x="1364.998" y="101.292">PostgreSQL</text><text fill="#000000" font-family="sans-serif" font-size="14" lengthAdjust="spacing" textLength="48.6377" x="1381.0557" y="117.5889">(PgDB)</text><path d="M1390.3745,52.2969 C1390.3745,42.2969 1408.3745,42.2969 1408.3745,42.2969 C1408.3745,42.2969 1426.3745,42.2969 1426.3745,52.2969 L1426.3745,78.2969 C1426.3745,88.2969 1408.3745,88.2969 1408.3745,88.2969 C1408.3745,88.2969 1390.3745,88.2969 1390.3745,78.2969 L1390.3745,52.2969" fill="#E2E2F0" style="stroke:#181818;stroke-width:0.5;"/><path d="M1390.3745,52.2969 C1390.3745,62.2969 1408.3745,62.2969 1408.3745,62.2969 C1408.3745,62.2969 1426.3745,62.2969 1426.3745,52.2969" fill="none" style="stroke:#181818;stroke-width:0.5;"/></g><g class="participant participant-tail" data-entity-uid="part6" data-qualified-name="DB" id="part6-tail"><text fill="#000000" font-family="sans-serif" font-size="14" lengthAdjust="spacing" textLength="80.7529" x="1364.998" y="676.2764">PostgreSQL</text><text fill="#000000" font-family="sans-serif" font-size="14" lengthAdjust="spacing" textLength="48.6377" x="1381.0557" y="692.5732">(PgDB)</text><path d="M1390.3745,705.875 C1390.3745,695.875 1408.3745,695.875 1408.3745,695.875 C1408.3745,695.875 1426.3745,695.875 1426.3745,705.875 L1426.3745,731.875 C1426.3745,741.875 1408.3745,741.875 1408.3745,741.875 C1408.3745,741.875 1390.3745,741.875 1390.3745,731.875 L1390.3745,705.875" fill="#E2E2F0" style="stroke:#181818;stroke-width:0.5;"/><path d="M1390.3745,705.875 C1390.3745,715.875 1408.3745,715.875 1408.3745,715.875 C1408.3745,715.875 1426.3745,715.875 1426.3745,705.875" fill="none" style="stroke:#181818;stroke-width:0.5;"/></g><g class="participant participant-head" data-entity-uid="part7" data-qualified-name="V" id="part7-head"><rect fill="#E2E2F0" height="30.2969" rx="2.5" ry="2.5" style="stroke:#181818;stroke-width:0.5;" width="179.3271" x="1461.751" y="89.5938"/><text fill="#000000" font-family="sans-serif" font-size="14" lengthAdjust="spacing" textLength="165.3271" x="1468.751" y="109.5889">WebViews.index_view()</text></g><g class="participant participant-tail" data-entity-uid="part7" data-qualified-name="V" id="part7-tail"><rect fill="#E2E2F0" height="30.2969" rx="2.5" ry="2.5" style="stroke:#181818;stroke-width:0.5;" width="179.3271" x="1461.751" y="663.2813"/><text fill="#000000" font-family="sans-serif" font-size="14" lengthAdjust="spacing" textLength="165.3271" x="1468.751" y="683.2764">WebViews.index_view()</text></g><g class="message" data-entity-1="part1" data-entity-2="part2" id="msg1"><polygon fill="#181818" points="388.9292,148.0234,398.9292,152.0234,388.9292,156.0234,392.9292,152.0234" style="stroke:#181818;stroke-width:1;"/><line style="stroke:#181818;stroke-width:1;" x1="23.9551" x2="394.9292" y1="152.0234" y2="152.0234"/><text fill="#000000" font-family="sans-serif" font-size="13" lengthAdjust="spacing" textLength="352.9741" x="30.9551" y="146.9575">&#1054;&#1090;&#1082;&#1088;&#1099;&#1090;&#1100; "/?ln=&amp;sb=last_name&amp;sd=asc&amp;k=1&amp;n=10"</text></g><g class="message" data-entity-1="part2" data-entity-2="part3" id="msg2"><polygon fill="#181818" points="492.7456,177.1563,502.7456,181.1563,492.7456,185.1563,496.7456,181.1563" style="stroke:#181818;stroke-width:1;"/><line style="stroke:#181818;stroke-width:1;" x1="400.9292" x2="498.7456" y1="181.1563" y2="181.1563"/><text fill="#000000" font-family="sans-serif" font-size="13" lengthAdjust="spacing" textLength="34.7407" x="407.9292" y="176.0903">GET /</text></g><g class="message" data-entity-1="part3" data-entity-2="part3" id="msg3"><line style="stroke:#181818;stroke-width:1;" x1="504.7456" x2="546.7456" y1="225.4219" y2="225.4219"/><line style="stroke:#181818;stroke-width:1;" x1="546.7456" x2="546.7456" y1="225.4219" y2="238.4219"/><line style="stroke:#181818;stroke-width:1;" x1="505.7456" x2="546.7456" y1="238.4219" y2="238.4219"/><polygon fill="#181818" points="515.7456,234.4219,505.7456,238.4219,515.7456,242.4219,511.7456,238.4219" style="stroke:#181818;stroke-width:1;"/><text fill="#000000" font-family="sans-serif" font-size="13" lengthAdjust="spacing" textLength="189.4014" x="511.7456" y="205.2231">_parse_filters(), _parse_sort()</text><text fill="#000000" font-family="sans-serif" font-size="13" lengthAdjust="spacing" textLength="97.4111" x="511.7456" y="220.356">page/per_page</text></g><g class="message" data-entity-1="part3" data-entity-2="part4" id="msg4"><polygon fill="#181818" points="837.2705,263.5547,847.2705,267.5547,837.2705,271.5547,841.2705,267.5547" style="stroke:#181818;stroke-width:1;"/><line style="stroke:#181818;stroke-width:1;" x1="504.7456" x2="843.2705" y1="267.5547" y2="267.5547"/><text fill="#000000" font-family="sans-serif" font-size="13" lengthAdjust="spacing" textLength="104.9077" x="511.7456" y="262.4888">get_count(filter)</text></g><g class="message" data-entity-1="part4" data-entity-2="part5" id="msg5"><polygon fill="#181818" points="1057.8037,292.6875,1067.8037,296.6875,1057.8037,300.6875,1061.8037,296.6875" style="stroke:#181818;stroke-width:1;"/><line style="stroke:#181818;stroke-width:1;" x1="849.2705" x2="1063.8037" y1="296.6875" y2="296.6875"/><text fill="#000000" font-family="sans-serif" font-size="13" lengthAdjust="spacing" textLength="104.9077" x="856.2705" y="291.6216">get_count(filter)</text></g><g class="message" data-entity-1="part5" data-entity-2="part6" id="msg6"><polygon fill="#181818" points="1396.3745,321.8203,1406.3745,325.8203,1396.3745,329.8203,1400.3745,325.8203" style="stroke:#181818;stroke-width:1;"/><line style="stroke:#181818;stroke-width:1;" x1="1069.8037" x2="1402.3745" y1="325.8203" y2="325.8203"/><text fill="#000000" font-family="sans-serif" font-size="13" lengthAdjust="spacing" textLength="201.4873" x="1076.8037" y="320.7544">SELECT COUNT(*) ... WHERE ...</text></g><g class="message" data-entity-1="part6" data-entity-2="part5" id="msg7"><polygon fill="#181818" points="1080.8037,350.9531,1070.8037,354.9531,1080.8037,358.9531,1076.8037,354.9531" style="stroke:#181818;stroke-width:1;"/><line style="stroke:#181818;stroke-width:1;stroke-dasharray:2,2;" x1="1074.8037" x2="1407.3745" y1="354.9531" y2="354.9531"/><text fill="#000000" font-family="sans-serif" font-size="13" lengthAdjust="spacing" textLength="20.4839" x="1086.8037" y="349.8872">cnt</text></g><g class="message" data-entity-1="part5" data-entity-2="part4" id="msg8"><polygon fill="#181818" points="860.2705,380.0859,850.2705,384.0859,860.2705,388.0859,856.2705,384.0859" style="stroke:#181818;stroke-width:1;"/><line style="stroke:#181818;stroke-width:1;stroke-dasharray:2,2;" x1="854.2705" x2="1068.8037" y1="384.0859" y2="384.0859"/><text fill="#000000" font-family="sans-serif" font-size="13" lengthAdjust="spacing" textLength="20.4839" x="866.2705" y="379.02">cnt</text></g><g class="message" data-entity-1="part4" data-entity-2="part3" id="msg9"><polygon fill="#181818" points="515.7456,409.2188,505.7456,413.2188,515.7456,417.2188,511.7456,413.2188" style="stroke:#181818;stroke-width:1;"/><line style="stroke:#181818;stroke-width:1;stroke-dasharray:2,2;" x1="509.7456" x2="848.2705" y1="413.2188" y2="413.2188"/><text fill="#000000" font-family="sans-serif" font-size="13" lengthAdjust="spacing" textLength="64.4858" x="521.7456" y="408.1528">cnt (total)</text></g><g class="message" data-entity-1="part3" data-entity-2="part4" id="msg10"><polygon fill="#181818" points="837.2705,438.3516,847.2705,442.3516,837.2705,446.3516,841.2705,442.3516" style="stroke:#181818;stroke-width:1;"/><line style="stroke:#181818;stroke-width:1;" x1="504.7456" x2="843.2705" y1="442.3516" y2="442.3516"/><text fill="#000000" font-family="sans-serif" font-size="13" lengthAdjust="spacing" textLength="320.5249" x="511.7456" y="437.2856">get_k_n_short_list(k,n, filter, sort, prefer_contact)</text></g><g class="message" data-entity-1="part4" data-entity-2="part5" id="msg11"><polygon fill="#181818" points="1057.8037,467.4844,1067.8037,471.4844,1057.8037,475.4844,1061.8037,471.4844" style="stroke:#181818;stroke-width:1;"/><line style="stroke:#181818;stroke-width:1;" x1="849.2705" x2="1063.8037" y1="471.4844" y2="471.4844"/><text fill="#000000" font-family="sans-serif" font-size="13" lengthAdjust="spacing" textLength="138.1567" x="856.2705" y="466.4185">get_k_n_short_list(...)</text></g><g class="message" data-entity-1="part5" data-entity-2="part6" id="msg12"><polygon fill="#181818" points="1396.3745,496.6172,1406.3745,500.6172,1396.3745,504.6172,1400.3745,500.6172" style="stroke:#181818;stroke-width:1;"/><line style="stroke:#181818;stroke-width:1;" x1="1069.8037" x2="1402.3745" y1="500.6172" y2="500.6172"/><text fill="#000000" font-family="sans-serif" font-size="13" lengthAdjust="spacing" textLength="314.5708" x="1076.8037" y="495.5513">SELECT ... WHERE ... ORDER BY ... LIMIT/OFFSET</text></g><g class="message" data-entity-1="part6" data-entity-2="part5" id="msg13"><polygon fill="#181818" points="1080.8037,525.75,1070.8037,529.75,1080.8037,533.75,1076.8037,529.75" style="stroke:#181818;stroke-width:1;"/><line style="stroke:#181818;stroke-width:1;stroke-dasharray:2,2;" x1="1074.8037" x2="1407.3745" y1="529.75" y2="529.75"/><text fill="#000000" font-family="sans-serif" font-size="13" lengthAdjust="spacing" textLength="30.7036" x="1086.8037" y="524.6841">rows</text></g><g class="message" data-entity-1="part5" data-entity-2="part4" id="msg14"><polygon fill="#181818" points="860.2705,554.8828,850.2705,558.8828,860.2705,562.8828,856.2705,558.8828" style="stroke:#181818;stroke-width:1;"/><line style="stroke:#181818;stroke-width:1;stroke-dasharray:2,2;" x1="854.2705" x2="1068.8037" y1="558.8828" y2="558.8828"/><text fill="#000000" font-family="sans-serif" font-size="13" lengthAdjust="spacing" textLength="95.0625" x="866.2705" y="553.8169">[ClientShort...]</text></g><g class="message" data-entity-1="part4" data-entity-2="part3" id="msg15"><polygon fill="#181818" points="515.7456,584.0156,505.7456,588.0156,515.7456,592.0156,511.7456,588.0156" style="stroke:#181818;stroke-width:1;"/><line style="stroke:#181818;stroke-width:1;stroke-dasharray:2,2;" x1="509.7456" x2="848.2705" y1="588.0156" y2="588.0156"/><text fill="#000000" font-family="sans-serif" font-size="13" lengthAdjust="spacing" textLength="95.0625" x="521.7456" y="582.9497">[ClientShort...]</text></g><g class="message" data-entity-1="part3" data-entity-2="part7" id="msg16"><polygon fill="#181818" points="1539.4146,613.1484,1549.4146,617.1484,1539.4146,621.1484,1543.4146,617.1484" style="stroke:#181818;stroke-width:1;"/><line style="stroke:#181818;stroke-width:1;" x1="504.7456" x2="1545.4146" y1="617.1484" y2="617.1484"/><text fill="#000000" font-family="sans-serif" font-size="13" lengthAdjust="spacing" textLength="285.3335" x="511.7456" y="612.0825">index_view(shorts, filters, sort, total, pager)</text></g><g class="message" data-entity-1="part7" data-entity-2="part2" id="msg17"><polygon fill="#181818" points="411.9292,642.2813,401.9292,646.2813,411.9292,650.2813,407.9292,646.2813" style="stroke:#181818;stroke-width:1;"/><line style="stroke:#181818;stroke-width:1;stroke-dasharray:2,2;" x1="405.9292" x2="1550.4146" y1="646.2813" y2="646.2813"/><text fill="#000000" font-family="sans-serif" font-size="13" lengthAdjust="spacing" textLength="36.1753" x="417.9292" y="641.2153">HTML</text></g><!--SRC=[RL9DRzD04BtxLunoY6m82Rr62WXx7HefmSLsKY62hBMp3IPcRUrkFuwXGboen3_WDrISgYBrDzZ_Y5ax4KdQsuxVl7dlZKUbAcFW-5FI1zzzGy0SyGMxWkTGVI_loh_LJNLThSlRwaTvL_tgLT_AXsfTNMEnBX_AF-LzUMiP1arKBc0gcG0gOMeKLAWqIGlA5RHiaLyYqjAGlGzDQCgTd2kHPzccmzdly6AaNj0uOqwMCgwapufypitWFFx24cNL7C_V9n5xc6QAYI0NYh0a5nJjpVd_2KysrAE8iQ2AnbGoQ9taKYq52zwFKV1aIUn6ZHo4E6NnB6MNiflgpKKN-3QRpfbXJE75Ax3xKFx6fTtZwdxYFc-WrNkTyK5RneECIXLn-fMrvM90PT9U3OxQV73qicNOcklquQqRGizmDbM4uf95PtK0QLgTxHU9OKnhpWkwPBs2YKW_6fhdzs79L9JavroP3TKoF5zZv2c8r0Zw3jonwuJWUDDteVdCWcwt2wV7hk_gbq7GOZCYuKgJDbgwqjCRnrY1gN95CpoLFJ-hY4VoC_gEibGgSzNX7MWiT437wK0Xs1b6IV18yCWEF1_GqT5Zvtk6KPYuFjWVwc8ycep2dZSS1cwu4qMVwqwMZytP15e7MPzsWZs2cdIpFkoSGcrGRdF9RR1w7vWF_n7kUrQFHDV7uMJy3m00]--></g></svg>