<svg xmlns="http://www.w3.org/2000/svg" xmlns:xlink="http://www.w3.org/1999/xlink" contentStyleType="text/css" data-diagram-type="CLASS" height="1581px" preserveAspectRatio="none" style="width:1753px;height:1581px;background:#FFFFFF;" version="1.1" viewBox="0 0 1753 1581" width="1753px" zoomAndPan="magnify"><title>&#1060;&#1080;&#1085;&#1072;&#1083;&#1100;&#1085;&#1072;&#1103; &#1076;&#1080;&#1072;&#1075;&#1088;&#1072;&#1084;&#1084;&#1072; &#1082;&#1083;&#1072;&#1089;&#1089;&#1086;&#1074; (MVC + Observer + Repo/DB + &#1044;&#1077;&#1082;&#1086;&#1088;&#1072;&#1090;&#1086;&#1088;)</title><defs/><g><g class="title" data-source-line="1"><text fill="#000000" font-family="sans-serif" font-size="14" font-weight="bold" lengthAdjust="spacing" textLength="598.6914" x="570.1543" y="22.9951">&#1060;&#1080;&#1085;&#1072;&#1083;&#1100;&#1085;&#1072;&#1103; &#1076;&#1080;&#1072;&#1075;&#1088;&#1072;&#1084;&#1084;&#1072; &#1082;&#1083;&#1072;&#1089;&#1089;&#1086;&#1074; (MVC + Observer + Repo/DB + &#1044;&#1077;&#1082;&#1086;&#1088;&#1072;&#1090;&#1086;&#1088;)</text></g><!--cluster MVC / Controllers--><g class="cluster" data-qualified-name="MVC . Controllers" data-source-line="6" id="ent0002"><path d="M8.5,258.7769 L146.8066,258.7769 A3.75,3.75 0 0 1 149.3066,261.2769 L156.3066,281.0738 L1184.5,281.0738 A2.5,2.5 0 0 1 1187,283.5738 L1187,461.3269 A2.5,2.5 0 0 1 1184.5,463.8269 L8.5,463.8269 A2.5,2.5 0 0 1 6,461.3269 L6,261.2769 A2.5,2.5 0 0 1 8.5,258.7769" fill="none" style="stroke:#000000;stroke-width:1.5;"/><line style="stroke:#000000;stroke-width:1.5;" x1="6" x2="156.3066" y1="281.0738" y2="281.0738"/><text fill="#000000" font-family="sans-serif" font-size="14" font-weight="bold" lengthAdjust="spacing" textLength="137.3066" x="10" y="273.772">MVC / Controllers</text></g><!--cluster Views--><g class="cluster" data-qualified-name="Views" data-source-line="37" id="ent0007"><path d="M1053.5,545.4169 L1100.8955,545.4169 A3.75,3.75 0 0 1 1103.3955,547.9169 L1110.3955,567.7138 L1743.5,567.7138 A2.5,2.5 0 0 1 1746,570.2138 L1746,731.6669 A2.5,2.5 0 0 1 1743.5,734.1669 L1053.5,734.1669 A2.5,2.5 0 0 1 1051,731.6669 L1051,547.9169 A2.5,2.5 0 0 1 1053.5,545.4169" fill="none" style="stroke:#000000;stroke-width:1.5;"/><line style="stroke:#000000;stroke-width:1.5;" x1="1051" x2="1110.3955" y1="567.7138" y2="567.7138"/><text fill="#000000" font-family="sans-serif" font-size="14" font-weight="bold" lengthAdjust="spacing" textLength="46.3955" x="1055" y="560.412">Views</text></g><!--cluster Observer--><g class="cluster" data-qualified-name="Observer" data-source-line="50" id="ent0010"><path d="M749.5,43.2969 L822.6807,43.2969 A3.75,3.75 0 0 1 825.1807,45.7969 L832.1807,65.5938 L1245.5,65.5938 A2.5,2.5 0 0 1 1248,68.0938 L1248,215.2769 A2.5,2.5 0 0 1 1245.5,217.7769 L749.5,217.7769 A2.5,2.5 0 0 1 747,215.2769 L747,45.7969 A2.5,2.5 0 0 1 749.5,43.2969" fill="none" style="stroke:#000000;stroke-width:1.5;"/><line style="stroke:#000000;stroke-width:1.5;" x1="747" x2="832.1807" y1="65.5938" y2="65.5938"/><text fill="#000000" font-family="sans-serif" font-size="14" font-weight="bold" lengthAdjust="spacing" textLength="72.1807" x="751" y="58.292">Observer</text></g><!--cluster Repository / Model--><g class="cluster" data-qualified-name="Repository . Model" data-source-line="62" id="ent0013"><path d="M123.5,512.8269 L272.6143,512.8269 A3.75,3.75 0 0 1 275.1143,515.3269 L282.1143,535.1238 L1024.5,535.1238 A2.5,2.5 0 0 1 1027,537.6238 L1027,1571.7769 A2.5,2.5 0 0 1 1024.5,1574.2769 L123.5,1574.2769 A2.5,2.5 0 0 1 121,1571.7769 L121,515.3269 A2.5,2.5 0 0 1 123.5,512.8269" fill="none" style="stroke:#000000;stroke-width:1.5;"/><line style="stroke:#000000;stroke-width:1.5;" x1="121" x2="282.1143" y1="535.1238" y2="535.1238"/><text fill="#000000" font-family="sans-serif" font-size="14" font-weight="bold" lengthAdjust="spacing" textLength="148.1143" x="125" y="527.822">Repository / Model</text></g><!--class MainController--><g class="entity" data-qualified-name="MVC . Controllers.MainController" data-source-line="7" id="ent0003"><rect fill="#F1F1F1" height="154.0469" rx="2.5" ry="2.5" style="stroke:#181818;stroke-width:0.5;" width="257.8818" x="311.06" y="293.7769"/><text fill="#000000" font-family="sans-serif" font-size="12" font-style="italic" lengthAdjust="spacing" textLength="132.8379" x="373.582" y="309.9155">&#171;Controller,Observer&#187;</text><text fill="#000000" font-family="sans-serif" font-size="14" lengthAdjust="spacing" textLength="102.5938" x="388.704" y="325.7407">MainController</text><line style="stroke:#181818;stroke-width:0.5;" x1="312.06" x2="567.9418" y1="334.0425" y2="334.0425"/><text fill="#000000" font-family="sans-serif" font-size="14" lengthAdjust="spacing" textLength="209.4805" x="317.06" y="351.0376">-repo: ObservableClientsRepo</text><text fill="#000000" font-family="sans-serif" font-size="14" lengthAdjust="spacing" textLength="245.8818" x="317.06" y="367.3345">-_selected_cache: dict&lt;int, Client&gt;</text><line style="stroke:#181818;stroke-width:0.5;" x1="312.06" x2="567.9418" y1="374.6363" y2="374.6363"/><text fill="#000000" font-family="sans-serif" font-size="14" lengthAdjust="spacing" textLength="226.4609" x="317.06" y="391.6314">+index(environ, start_response)</text><text fill="#000000" font-family="sans-serif" font-size="14" lengthAdjust="spacing" textLength="229.5098" x="317.06" y="407.9282">+select(environ, start_response)</text><text fill="#000000" font-family="sans-serif" font-size="14" lengthAdjust="spacing" textLength="227.2607" x="317.06" y="424.2251">+detail(environ, start_response)</text><text fill="#000000" font-family="sans-serif" font-size="14" lengthAdjust="spacing" textLength="176.4287" x="317.06" y="440.522">+update(event, payload)</text></g><!--class AddClientController--><g class="entity" data-qualified-name="MVC . Controllers.AddClientController" data-source-line="16" id="ent0004"><rect fill="#F1F1F1" height="121.4531" rx="2.5" ry="2.5" style="stroke:#181818;stroke-width:0.5;" width="266.1533" x="603.92" y="310.0769"/><text fill="#000000" font-family="sans-serif" font-size="12" font-style="italic" lengthAdjust="spacing" textLength="73.9746" x="700.0094" y="326.2155">&#171;Controller&#187;</text><text fill="#000000" font-family="sans-serif" font-size="14" lengthAdjust="spacing" textLength="137.0537" x="668.4698" y="342.0407">AddClientController</text><line style="stroke:#181818;stroke-width:0.5;" x1="604.92" x2="869.0733" y1="350.3425" y2="350.3425"/><text fill="#000000" font-family="sans-serif" font-size="14" lengthAdjust="spacing" textLength="209.4805" x="609.92" y="367.3376">-repo: ObservableClientsRepo</text><text fill="#000000" font-family="sans-serif" font-size="14" lengthAdjust="spacing" textLength="156.5293" x="609.92" y="383.6345">-view: ClientFormView</text><line style="stroke:#181818;stroke-width:0.5;" x1="604.92" x2="869.0733" y1="390.9363" y2="390.9363"/><text fill="#000000" font-family="sans-serif" font-size="14" lengthAdjust="spacing" textLength="254.1533" x="609.92" y="407.9314">+add_form(environ, start_response)</text><text fill="#000000" font-family="sans-serif" font-size="14" lengthAdjust="spacing" textLength="232.6611" x="609.92" y="424.2282">+create(environ, start_response)</text></g><!--class EditClientController--><g class="entity" data-qualified-name="MVC . Controllers.EditClientController" data-source-line="23" id="ent0005"><rect fill="#F1F1F1" height="121.4531" rx="2.5" ry="2.5" style="stroke:#181818;stroke-width:0.5;" width="266.6797" x="904.66" y="310.0769"/><text fill="#000000" font-family="sans-serif" font-size="12" font-style="italic" lengthAdjust="spacing" textLength="73.9746" x="1001.0125" y="326.2155">&#171;Controller&#187;</text><text fill="#000000" font-family="sans-serif" font-size="14" lengthAdjust="spacing" textLength="136.8145" x="969.5926" y="342.0407">EditClientController</text><line style="stroke:#181818;stroke-width:0.5;" x1="905.66" x2="1170.3397" y1="350.3425" y2="350.3425"/><text fill="#000000" font-family="sans-serif" font-size="14" lengthAdjust="spacing" textLength="209.4805" x="910.66" y="367.3376">-repo: ObservableClientsRepo</text><text fill="#000000" font-family="sans-serif" font-size="14" lengthAdjust="spacing" textLength="156.5293" x="910.66" y="383.6345">-view: ClientFormView</text><line style="stroke:#181818;stroke-width:0.5;" x1="905.66" x2="1170.3397" y1="390.9363" y2="390.9363"/><text fill="#000000" font-family="sans-serif" font-size="14" lengthAdjust="spacing" textLength="254.6797" x="910.66" y="407.9314">+edit_form(environ, start_response)</text><text fill="#000000" font-family="sans-serif" font-size="14" lengthAdjust="spacing" textLength="237.2412" x="910.66" y="424.2282">+update(environ, start_response)</text></g><!--class DeleteClientController--><g class="entity" data-qualified-name="MVC . Controllers.DeleteClientController" data-source-line="30" id="ent0006"><rect fill="#F1F1F1" height="105.1563" rx="2.5" ry="2.5" style="stroke:#181818;stroke-width:0.5;" width="253.3838" x="22.31" y="318.2269"/><text fill="#000000" font-family="sans-serif" font-size="12" font-style="italic" lengthAdjust="spacing" textLength="73.9746" x="112.0146" y="334.3655">&#171;Controller&#187;</text><text fill="#000000" font-family="sans-serif" font-size="14" lengthAdjust="spacing" textLength="155.7021" x="71.1508" y="350.1907">DeleteClientController</text><line style="stroke:#181818;stroke-width:0.5;" x1="23.31" x2="274.6938" y1="358.4925" y2="358.4925"/><text fill="#000000" font-family="sans-serif" font-size="14" lengthAdjust="spacing" textLength="209.4805" x="28.31" y="375.4876">-repo: ObservableClientsRepo</text><line style="stroke:#181818;stroke-width:0.5;" x1="23.31" x2="274.6938" y1="382.7894" y2="382.7894"/><text fill="#000000" font-family="sans-serif" font-size="14" lengthAdjust="spacing" textLength="241.2607" x="28.31" y="399.7845">+confirm(environ, start_response)</text><text fill="#000000" font-family="sans-serif" font-size="14" lengthAdjust="spacing" textLength="241.3838" x="28.31" y="416.0814">+remove(environ, start_response)</text></g><!--class ClientFormView--><g class="entity" data-qualified-name="Views.ClientFormView" data-source-line="38" id="ent0008"><rect fill="#F1F1F1" height="72.5625" rx="2.5" ry="2.5" style="stroke:#181818;stroke-width:0.5;" width="248.0107" x="1481.99" y="613.0069"/><text fill="#000000" font-family="sans-serif" font-size="12" font-style="italic" lengthAdjust="spacing" textLength="43.4238" x="1584.2835" y="629.1455">&#171;View&#187;</text><text fill="#000000" font-family="sans-serif" font-size="14" lengthAdjust="spacing" textLength="110.0723" x="1550.9592" y="644.9707">ClientFormView</text><line style="stroke:#181818;stroke-width:0.5;" x1="1482.99" x2="1729.0007" y1="653.2725" y2="653.2725"/><line style="stroke:#181818;stroke-width:0.5;" x1="1482.99" x2="1729.0007" y1="661.2725" y2="661.2725"/><text fill="#000000" font-family="sans-serif" font-size="14" lengthAdjust="spacing" textLength="236.0107" x="1487.99" y="678.2676">+render(mode, cid, values, error)</text></g><!--class WebViews--><g class="entity" data-qualified-name="Views.WebViews" data-source-line="41" id="ent0009"><rect fill="#F1F1F1" height="137.75" rx="2.5" ry="2.5" style="stroke:#181818;stroke-width:0.5;" width="380.3545" x="1066.82" y="580.4169"/><text fill="#000000" font-family="sans-serif" font-size="12" font-style="italic" lengthAdjust="spacing" textLength="101.5723" x="1206.2111" y="596.5555">&#171;View (module)&#187;</text><text fill="#000000" font-family="sans-serif" font-size="14" lengthAdjust="spacing" textLength="72.167" x="1220.9138" y="612.3807">WebViews</text><line style="stroke:#181818;stroke-width:0.5;" x1="1067.82" x2="1446.1745" y1="620.6825" y2="620.6825"/><line style="stroke:#181818;stroke-width:0.5;" x1="1067.82" x2="1446.1745" y1="628.6825" y2="628.6825"/><text fill="#000000" font-family="sans-serif" font-size="14" lengthAdjust="spacing" textLength="113.791" x="1072.82" y="645.6776">+index_view(...)</text><text fill="#000000" font-family="sans-serif" font-size="14" lengthAdjust="spacing" textLength="158.6348" x="1072.82" y="661.9745">+detail_view(c: Client)</text><text fill="#000000" font-family="sans-serif" font-size="14" lengthAdjust="spacing" textLength="358.9688" x="1072.82" y="678.2714">+confirm_delete_view(c: Client, error, form_action)</text><text fill="#000000" font-family="sans-serif" font-size="14" lengthAdjust="spacing" textLength="368.3545" x="1072.82" y="694.5682">+success_and_close(message, event_type, payload)</text><text fill="#000000" font-family="sans-serif" font-size="14" lengthAdjust="spacing" textLength="161.7656" x="1072.82" y="710.8651">+not_found_view(msg)</text></g><!--class Observer--><g class="entity" data-qualified-name="Observer.Observer" data-source-line="51" id="ent0011"><rect fill="#F1F1F1" height="58.5938" rx="2.5" ry="2.5" style="stroke:#181818;stroke-width:0.5;" width="188.4287" x="790.79" y="110.7369"/><text fill="#000000" font-family="sans-serif" font-size="14" font-style="italic" lengthAdjust="spacing" textLength="64.2236" x="852.8925" y="128.732">Observer</text><line style="stroke:#181818;stroke-width:0.5;" x1="791.79" x2="978.2187" y1="137.0338" y2="137.0338"/><line style="stroke:#181818;stroke-width:0.5;" x1="791.79" x2="978.2187" y1="145.0338" y2="145.0338"/><text fill="#000000" font-family="sans-serif" font-size="14" lengthAdjust="spacing" textLength="176.4287" x="796.79" y="162.0289">+update(event, payload)</text></g><!--class Subject--><g class="entity" data-qualified-name="Observer.Subject" data-source-line="54" id="ent0012"><rect fill="#F1F1F1" height="107.4844" rx="2.5" ry="2.5" style="stroke:#181818;stroke-width:0.5;" width="210.5293" x="1013.74" y="86.2969"/><text fill="#000000" font-family="sans-serif" font-size="14" lengthAdjust="spacing" textLength="52.3359" x="1092.8367" y="104.292">Subject</text><line style="stroke:#181818;stroke-width:0.5;" x1="1014.74" x2="1223.2693" y1="112.5938" y2="112.5938"/><text fill="#000000" font-family="sans-serif" font-size="14" lengthAdjust="spacing" textLength="198.5293" x="1019.74" y="129.5889">-_observers: list&lt;Observer&gt;</text><line style="stroke:#181818;stroke-width:0.5;" x1="1014.74" x2="1223.2693" y1="136.8906" y2="136.8906"/><text fill="#000000" font-family="sans-serif" font-size="14" lengthAdjust="spacing" textLength="92.1074" x="1019.74" y="153.8857">+attach(obs)</text><text fill="#000000" font-family="sans-serif" font-size="14" lengthAdjust="spacing" textLength="95.5391" x="1019.74" y="170.1826">+detach(obs)</text><text fill="#000000" font-family="sans-serif" font-size="14" lengthAdjust="spacing" textLength="167.1318" x="1019.74" y="186.4795">+notify(event, payload)</text></g><!--class BaseClientsRepo--><g class="entity" data-qualified-name="Repository . Model.BaseClientsRepo" data-source-line="63" id="ent0014"><rect fill="#F1F1F1" height="172.6719" rx="2.5" ry="2.5" style="stroke:#181818;stroke-width:0.5;" width="291.4395" x="344.28" y="1130.9769"/><text fill="#000000" font-family="sans-serif" font-size="14" font-style="italic" lengthAdjust="spacing" textLength="117.708" x="431.1457" y="1148.972">BaseClientsRepo</text><line style="stroke:#181818;stroke-width:0.5;" x1="345.28" x2="634.7195" y1="1157.2738" y2="1157.2738"/><line style="stroke:#181818;stroke-width:0.5;" x1="345.28" x2="634.7195" y1="1165.2738" y2="1165.2738"/><text fill="#000000" font-family="sans-serif" font-size="14" lengthAdjust="spacing" textLength="279.4395" x="350.28" y="1182.2689">+get_k_n_short_list(k,n, prefer_contact)</text><text fill="#000000" font-family="sans-serif" font-size="14" lengthAdjust="spacing" textLength="92.1416" x="350.28" y="1198.5657">+get_count()</text><text fill="#000000" font-family="sans-serif" font-size="14" lengthAdjust="spacing" textLength="102.3682" x="350.28" y="1214.8626">+get_by_id(id)</text><text fill="#000000" font-family="sans-serif" font-size="14" lengthAdjust="spacing" textLength="177.4131" x="350.28" y="1231.1595">+add_client(data, pretty)</text><text fill="#000000" font-family="sans-serif" font-size="14" lengthAdjust="spacing" textLength="223.2686" x="350.28" y="1247.4564">+replace_by_id(id, data, pretty)</text><text fill="#000000" font-family="sans-serif" font-size="14" lengthAdjust="spacing" textLength="174.9043" x="350.28" y="1263.7532">+delete_by_id(id, pretty)</text><text fill="#000000" font-family="sans-serif" font-size="14" lengthAdjust="spacing" textLength="133.1025" x="350.28" y="1280.0501">+read_all(tolerant)</text><text fill="#000000" font-family="sans-serif" font-size="14" lengthAdjust="spacing" textLength="118.2344" x="350.28" y="1296.347">+write_all_ok(...)</text></g><!--class ClientsRepDBAdapter--><g class="entity" data-qualified-name="Repository . Model.ClientsRepDBAdapter" data-source-line="74" id="ent0015"><rect fill="#F1F1F1" height="186.6406" rx="2.5" ry="2.5" style="stroke:#181818;stroke-width:0.5;" width="178.2363" x="271.88" y="827.7569"/><text fill="#000000" font-family="sans-serif" font-size="12" font-style="italic" lengthAdjust="spacing" textLength="62.502" x="329.7472" y="843.8955">&#171;Adapter&#187;</text><text fill="#000000" font-family="sans-serif" font-size="14" lengthAdjust="spacing" textLength="151.2246" x="285.3859" y="859.7207">ClientsRepDBAdapter</text><line style="stroke:#181818;stroke-width:0.5;" x1="272.88" x2="449.1163" y1="868.0225" y2="868.0225"/><text fill="#000000" font-family="sans-serif" font-size="14" lengthAdjust="spacing" textLength="134.4287" x="277.88" y="885.0176">-_db: ClientsRepDB</text><line style="stroke:#181818;stroke-width:0.5;" x1="272.88" x2="449.1163" y1="892.3194" y2="892.3194"/><text fill="#000000" font-family="sans-serif" font-size="14" lengthAdjust="spacing" textLength="160.5146" x="277.88" y="909.3145">+get_k_n_short_list(...)</text><text fill="#000000" font-family="sans-serif" font-size="14" lengthAdjust="spacing" textLength="92.1416" x="277.88" y="925.6114">+get_count()</text><text fill="#000000" font-family="sans-serif" font-size="14" lengthAdjust="spacing" textLength="102.9424" x="277.88" y="941.9082">+get_by_id(...)</text><text fill="#000000" font-family="sans-serif" font-size="14" lengthAdjust="spacing" textLength="107.8096" x="277.88" y="958.2051">+add_client(...)</text><text fill="#000000" font-family="sans-serif" font-size="14" lengthAdjust="spacing" textLength="131.9883" x="277.88" y="974.502">+replace_by_id(...)</text><text fill="#000000" font-family="sans-serif" font-size="14" lengthAdjust="spacing" textLength="124.0586" x="277.88" y="990.7989">+delete_by_id(...)</text><text fill="#000000" font-family="sans-serif" font-size="14" lengthAdjust="spacing" textLength="166.2363" x="277.88" y="1007.0957">+sort_by_last_name(...)</text></g><!--class ClientsRepDBFilterSortDecorator--><g class="entity" data-qualified-name="Repository . Model.ClientsRepDBFilterSortDecorator" data-source-line="85" id="ent0016"><rect fill="#F1F1F1" height="105.1563" rx="2.5" ry="2.5" style="stroke:#181818;stroke-width:0.5;" width="526.2471" x="484.88" y="868.5069"/><text fill="#000000" font-family="sans-serif" font-size="12" font-style="italic" lengthAdjust="spacing" textLength="74.5137" x="710.7467" y="884.6455">&#171;Decorator&#187;</text><text fill="#000000" font-family="sans-serif" font-size="14" lengthAdjust="spacing" textLength="229.626" x="633.1905" y="900.4707">ClientsRepDBFilterSortDecorator</text><line style="stroke:#181818;stroke-width:0.5;" x1="485.88" x2="1010.1271" y1="908.7725" y2="908.7725"/><text fill="#000000" font-family="sans-serif" font-size="14" lengthAdjust="spacing" textLength="81.3271" x="490.88" y="925.7676">-_base: Any</text><line style="stroke:#181818;stroke-width:0.5;" x1="485.88" x2="1010.1271" y1="933.0694" y2="933.0694"/><text fill="#000000" font-family="sans-serif" font-size="14" lengthAdjust="spacing" textLength="514.2471" x="490.88" y="950.0645">+get_k_n_short_list(k,n, filter: ClientFilter, sort: SortSpec, prefer_contact)</text><text fill="#000000" font-family="sans-serif" font-size="14" lengthAdjust="spacing" textLength="210.0957" x="490.88" y="966.3614">+get_count(filter: ClientFilter)</text></g><!--class ObservableClientsRepo--><g class="entity" data-qualified-name="Repository . Model.ObservableClientsRepo" data-source-line="91" id="ent0017"><rect fill="#F1F1F1" height="202.9375" rx="2.5" ry="2.5" style="stroke:#181818;stroke-width:0.5;" width="383.7725" x="320.11" y="547.8269"/><text fill="#000000" font-family="sans-serif" font-size="12" font-style="italic" lengthAdjust="spacing" textLength="59.543" x="482.2247" y="563.9655">&#171;Subject&#187;</text><text fill="#000000" font-family="sans-serif" font-size="14" lengthAdjust="spacing" textLength="163.4404" x="430.276" y="579.7907">ObservableClientsRepo</text><line style="stroke:#181818;stroke-width:0.5;" x1="321.11" x2="702.8825" y1="588.0925" y2="588.0925"/><text fill="#000000" font-family="sans-serif" font-size="14" lengthAdjust="spacing" textLength="172.2998" x="326.11" y="605.0876">-_base: BaseClientsRepo</text><line style="stroke:#181818;stroke-width:0.5;" x1="321.11" x2="702.8825" y1="612.3894" y2="612.3894"/><text fill="#000000" font-family="sans-serif" font-size="14" lengthAdjust="spacing" textLength="211.4971" x="326.11" y="629.3845">+list_all_short(prefer_contact)</text><text fill="#000000" font-family="sans-serif" font-size="14" lengthAdjust="spacing" textLength="122.4795" x="326.11" y="645.6814">+select_client(id)</text><text fill="#000000" font-family="sans-serif" font-size="14" lengthAdjust="spacing" textLength="371.7725" x="326.11" y="661.9782">+get_k_n_short_list(k,n, filter?, sort?, prefer_contact)</text><text fill="#000000" font-family="sans-serif" font-size="14" lengthAdjust="spacing" textLength="132.1387" x="326.11" y="678.2751">+get_count(filter?)</text><text fill="#000000" font-family="sans-serif" font-size="14" lengthAdjust="spacing" textLength="177.4131" x="326.11" y="694.572">+add_client(data, pretty)</text><text fill="#000000" font-family="sans-serif" font-size="14" lengthAdjust="spacing" textLength="223.2686" x="326.11" y="710.8689">+replace_by_id(id, data, pretty)</text><text fill="#000000" font-family="sans-serif" font-size="14" lengthAdjust="spacing" textLength="174.9043" x="326.11" y="727.1657">+delete_by_id(id, pretty)</text><text fill="#000000" font-family="sans-serif" font-size="14" lengthAdjust="spacing" textLength="102.3682" x="326.11" y="743.4626">+get_by_id(id)</text></g><!--class ClientsRepDB--><g class="entity" data-qualified-name="Repository . Model.ClientsRepDB" data-source-line="103" id="ent0018"><rect fill="#F1F1F1" height="154.0469" rx="2.5" ry="2.5" style="stroke:#181818;stroke-width:0.5;" width="172.5146" x="136.74" y="1140.2969"/><text fill="#000000" font-family="sans-serif" font-size="12" font-style="italic" lengthAdjust="spacing" textLength="66.0762" x="189.9592" y="1156.4355">&#171;DB layer&#187;</text><text fill="#000000" font-family="sans-serif" font-size="14" lengthAdjust="spacing" textLength="95.4365" x="175.2791" y="1172.2607">ClientsRepDB</text><line style="stroke:#181818;stroke-width:0.5;" x1="137.74" x2="308.2546" y1="1180.5625" y2="1180.5625"/><line style="stroke:#181818;stroke-width:0.5;" x1="137.74" x2="308.2546" y1="1188.5625" y2="1188.5625"/><text fill="#000000" font-family="sans-serif" font-size="14" lengthAdjust="spacing" textLength="160.5146" x="142.74" y="1205.5576">+get_k_n_short_list(...)</text><text fill="#000000" font-family="sans-serif" font-size="14" lengthAdjust="spacing" textLength="92.1416" x="142.74" y="1221.8545">+get_count()</text><text fill="#000000" font-family="sans-serif" font-size="14" lengthAdjust="spacing" textLength="102.9424" x="142.74" y="1238.1514">+get_by_id(...)</text><text fill="#000000" font-family="sans-serif" font-size="14" lengthAdjust="spacing" textLength="107.8096" x="142.74" y="1254.4482">+add_client(...)</text><text fill="#000000" font-family="sans-serif" font-size="14" lengthAdjust="spacing" textLength="131.9883" x="142.74" y="1270.7451">+replace_by_id(...)</text><text fill="#000000" font-family="sans-serif" font-size="14" lengthAdjust="spacing" textLength="124.0586" x="142.74" y="1287.042">+delete_by_id(...)</text></g><!--class PgDB--><g class="entity" data-qualified-name="Repository . Model.PgDB" data-source-line="112" id="ent0019"><rect fill="#F1F1F1" height="154.0469" rx="2.5" ry="2.5" style="stroke:#181818;stroke-width:0.5;" width="244.5518" x="136.72" y="1404.2269"/><text fill="#000000" font-family="sans-serif" font-size="12" font-style="italic" lengthAdjust="spacing" textLength="71.2266" x="223.3826" y="1420.3655">&#171;Singleton&#187;</text><text fill="#000000" font-family="sans-serif" font-size="14" lengthAdjust="spacing" textLength="37.7139" x="240.1389" y="1436.1907">PgDB</text><line style="stroke:#181818;stroke-width:0.5;" x1="137.72" x2="380.2718" y1="1444.4925" y2="1444.4925"/><line style="stroke:#181818;stroke-width:0.5;" x1="137.72" x2="380.2718" y1="1452.4925" y2="1452.4925"/><text fill="#000000" font-family="sans-serif" font-size="14" lengthAdjust="spacing" textLength="58.1465" x="142.72" y="1469.4876">+init(...)</text><text fill="#000000" font-family="sans-serif" font-size="14" lengthAdjust="spacing" textLength="92.5244" x="142.72" y="1485.7845">+get(): PgDB</text><text fill="#000000" font-family="sans-serif" font-size="14" lengthAdjust="spacing" textLength="173.0107" x="142.72" y="1502.0814">+fetch_one(sql, params)</text><text fill="#000000" font-family="sans-serif" font-size="14" lengthAdjust="spacing" textLength="163.3174" x="142.72" y="1518.3782">+fetch_all(sql, params)</text><text fill="#000000" font-family="sans-serif" font-size="14" lengthAdjust="spacing" textLength="160.542" x="142.72" y="1534.6751">+execute(sql, params)</text><text fill="#000000" font-family="sans-serif" font-size="14" lengthAdjust="spacing" textLength="232.5518" x="142.72" y="1550.972">+execute_returning(sql, params)</text></g><!--class Client--><g class="entity" data-qualified-name="Repository . Model.Client" data-source-line="121" id="ent0020"><rect fill="#F1F1F1" height="251.8281" rx="2.5" ry="2.5" style="stroke:#181818;stroke-width:0.5;" width="146.1211" x="681.94" y="1091.3969"/><text fill="#000000" font-family="sans-serif" font-size="12" font-style="italic" lengthAdjust="spacing" textLength="49.7168" x="730.1421" y="1107.5355">&#171;Entity&#187;</text><text fill="#000000" font-family="sans-serif" font-size="14" lengthAdjust="spacing" textLength="40.5303" x="734.7354" y="1123.3607">Client</text><line style="stroke:#181818;stroke-width:0.5;" x1="682.94" x2="827.0611" y1="1131.6625" y2="1131.6625"/><text fill="#000000" font-family="sans-serif" font-size="14" lengthAdjust="spacing" textLength="51.9258" x="687.94" y="1148.6576">+id: int</text><text fill="#000000" font-family="sans-serif" font-size="14" lengthAdjust="spacing" textLength="83.6855" x="687.94" y="1164.9545">+last_name</text><text fill="#000000" font-family="sans-serif" font-size="14" lengthAdjust="spacing" textLength="85.791" x="687.94" y="1181.2514">+first_name</text><text fill="#000000" font-family="sans-serif" font-size="14" lengthAdjust="spacing" textLength="106.2373" x="687.94" y="1197.5482">+middle_name</text><text fill="#000000" font-family="sans-serif" font-size="14" lengthAdjust="spacing" textLength="120.9414" x="687.94" y="1213.8451">+passport_series</text><text fill="#000000" font-family="sans-serif" font-size="14" lengthAdjust="spacing" textLength="134.1211" x="687.94" y="1230.142">+passport_number</text><text fill="#000000" font-family="sans-serif" font-size="14" lengthAdjust="spacing" textLength="83.1934" x="687.94" y="1246.4389">+birth_date</text><text fill="#000000" font-family="sans-serif" font-size="14" lengthAdjust="spacing" textLength="55.542" x="687.94" y="1262.7357">+phone</text><text fill="#000000" font-family="sans-serif" font-size="14" lengthAdjust="spacing" textLength="50.3398" x="687.94" y="1279.0326">+email</text><text fill="#000000" font-family="sans-serif" font-size="14" lengthAdjust="spacing" textLength="67.04" x="687.94" y="1295.3295">+address</text><line style="stroke:#181818;stroke-width:0.5;" x1="682.94" x2="827.0611" y1="1302.6313" y2="1302.6313"/><text fill="#000000" font-family="sans-serif" font-size="14" lengthAdjust="spacing" textLength="112.4785" x="687.94" y="1319.6264">+to_full_string()</text><text fill="#000000" font-family="sans-serif" font-size="14" lengthAdjust="spacing" textLength="105.4512" x="687.94" y="1335.9232">+__eq__(other)</text></g><!--class ClientShort--><g class="entity" data-qualified-name="Repository . Model.ClientShort" data-source-line="136" id="ent0021"><rect fill="#F1F1F1" height="219.2344" rx="2.5" ry="2.5" style="stroke:#181818;stroke-width:0.5;" width="118.2373" x="872.88" y="1107.6969"/><text fill="#000000" font-family="sans-serif" font-size="12" font-style="italic" lengthAdjust="spacing" textLength="91.4648" x="886.2662" y="1123.8355">&#171;Value Object&#187;</text><text fill="#000000" font-family="sans-serif" font-size="14" lengthAdjust="spacing" textLength="78.1006" x="892.9484" y="1139.6607">ClientShort</text><line style="stroke:#181818;stroke-width:0.5;" x1="873.88" x2="990.1173" y1="1147.9625" y2="1147.9625"/><text fill="#000000" font-family="sans-serif" font-size="14" lengthAdjust="spacing" textLength="51.9258" x="878.88" y="1164.9576">+id: int</text><text fill="#000000" font-family="sans-serif" font-size="14" lengthAdjust="spacing" textLength="83.6855" x="878.88" y="1181.2545">+last_name</text><text fill="#000000" font-family="sans-serif" font-size="14" lengthAdjust="spacing" textLength="85.791" x="878.88" y="1197.5514">+first_name</text><text fill="#000000" font-family="sans-serif" font-size="14" lengthAdjust="spacing" textLength="106.2373" x="878.88" y="1213.8482">+middle_name</text><text fill="#000000" font-family="sans-serif" font-size="14" lengthAdjust="spacing" textLength="83.1934" x="878.88" y="1230.1451">+birth_date</text><text fill="#000000" font-family="sans-serif" font-size="14" lengthAdjust="spacing" textLength="72.4814" x="878.88" y="1246.442">+passport</text><text fill="#000000" font-family="sans-serif" font-size="14" lengthAdjust="spacing" textLength="64.1211" x="878.88" y="1262.7389">+contact</text><text fill="#000000" font-family="sans-serif" font-size="14" lengthAdjust="spacing" textLength="102.3955" x="878.88" y="1279.0357">+contact_type</text><text fill="#000000" font-family="sans-serif" font-size="14" lengthAdjust="spacing" textLength="57.5244" x="878.88" y="1295.3326">+initials</text><line style="stroke:#181818;stroke-width:0.5;" x1="873.88" x2="990.1173" y1="1302.6344" y2="1302.6344"/><text fill="#000000" font-family="sans-serif" font-size="14" lengthAdjust="spacing" textLength="69.1934" x="878.88" y="1319.6295">+__str__()</text></g><!--class ClientFilter--><g class="entity" data-qualified-name="Repository . Model.ClientFilter" data-source-line="149" id="ent0022"><rect fill="#F1F1F1" height="188.9688" rx="2.5" ry="2.5" style="stroke:#181818;stroke-width:0.5;" width="168.8301" x="738.58" y="554.8069"/><text fill="#000000" font-family="sans-serif" font-size="14" lengthAdjust="spacing" textLength="76.2207" x="784.8847" y="572.802">ClientFilter</text><line style="stroke:#181818;stroke-width:0.5;" x1="739.58" x2="906.4101" y1="581.1038" y2="581.1038"/><text fill="#000000" font-family="sans-serif" font-size="14" lengthAdjust="spacing" textLength="134.2783" x="744.58" y="598.0989">+last_name_substr</text><text fill="#000000" font-family="sans-serif" font-size="14" lengthAdjust="spacing" textLength="136.3838" x="744.58" y="614.3957">+first_name_substr</text><text fill="#000000" font-family="sans-serif" font-size="14" lengthAdjust="spacing" textLength="156.8301" x="744.58" y="630.6926">+middle_name_substr</text><text fill="#000000" font-family="sans-serif" font-size="14" lengthAdjust="spacing" textLength="106.1348" x="744.58" y="646.9895">+phone_substr</text><text fill="#000000" font-family="sans-serif" font-size="14" lengthAdjust="spacing" textLength="100.9326" x="744.58" y="663.2864">+email_substr</text><text fill="#000000" font-family="sans-serif" font-size="14" lengthAdjust="spacing" textLength="120.9414" x="744.58" y="679.5832">+passport_series</text><text fill="#000000" font-family="sans-serif" font-size="14" lengthAdjust="spacing" textLength="134.1211" x="744.58" y="695.8801">+passport_number</text><text fill="#000000" font-family="sans-serif" font-size="14" lengthAdjust="spacing" textLength="123.0811" x="744.58" y="712.177">+birth_date_from</text><text fill="#000000" font-family="sans-serif" font-size="14" lengthAdjust="spacing" textLength="104.248" x="744.58" y="728.4739">+birth_date_to</text><line style="stroke:#181818;stroke-width:0.5;" x1="739.58" x2="906.4101" y1="735.7756" y2="735.7756"/></g><!--class SortSpec--><g class="entity" data-qualified-name="Repository . Model.SortSpec" data-source-line="161" id="ent0023"><rect fill="#F1F1F1" height="74.8906" rx="2.5" ry="2.5" style="stroke:#181818;stroke-width:0.5;" width="68.7813" x="942.61" y="611.8469"/><text fill="#000000" font-family="sans-serif" font-size="14" lengthAdjust="spacing" textLength="62.7813" x="945.61" y="629.842">SortSpec</text><line style="stroke:#181818;stroke-width:0.5;" x1="943.61" x2="1010.3913" y1="638.1438" y2="638.1438"/><text fill="#000000" font-family="sans-serif" font-size="14" lengthAdjust="spacing" textLength="28.9023" x="948.61" y="655.1389">+by</text><text fill="#000000" font-family="sans-serif" font-size="14" lengthAdjust="spacing" textLength="35.3008" x="948.61" y="671.4357">+asc</text><line style="stroke:#181818;stroke-width:0.5;" x1="943.61" x2="1010.3913" y1="678.7375" y2="678.7375"/></g><!--reverse link Observer to MainController--><g class="link" data-entity-1="ent0010" data-entity-2="ent0003" data-link-type="extension" data-source-line="168" id="lnk24"><path codeLine="168" d="M731.4911,155.1108 C731.257,155.2513 746.106,146.343 745.8631,146.4889 C745.3773,146.7808 744.8739,147.0834 744.3533,147.3966 C742.2712,148.6495 739.9148,150.0717 737.3125,151.6489 C726.9031,157.9578 712.5575,166.7475 696.0775,177.1056 C663.1175,197.8219 621.62,224.8119 586,250.7769 C567.77,264.0669 548.75,278.8469 530.71,293.3369" fill="none" id="Observer-backto-MainController" style="stroke:#181818;stroke-width:1;stroke-dasharray:7,7;"/><polygon fill="none" points="746.9264,145.8506,728.4043,149.9657,734.5778,160.2559,746.9264,145.8506" style="stroke:#181818;stroke-width:1;"/></g><!--reverse link Subject to ObservableClientsRepo--><g class="link" data-entity-1="ent0012" data-entity-2="ent0017" data-link-type="extension" data-source-line="169" id="lnk25"><path codeLine="169" d="M1169.7012,209.1953 C1180.6712,226.3653 1181.35,230.9469 1187,250.7769 C1213.9,345.2669 1253.97,399.9469 1187,471.8269 C1151.62,509.8069 770,487.7069 721,504.8269 C691.81,515.0169 662.91,530.4269 636.32,547.4169" fill="none" id="Subject-backto-ObservableClientsRepo" style="stroke:#181818;stroke-width:1;"/><polygon fill="none" points="1160.01,194.0269,1164.645,212.4257,1174.7573,205.9649,1160.01,194.0269" style="stroke:#181818;stroke-width:1;"/></g><!--link MainController to ObservableClientsRepo--><g class="link" data-entity-1="ent0003" data-entity-2="ent0017" data-link-type="dependency" data-source-line="172" id="lnk26"><path codeLine="172" d="M459.86,448.0869 C467.86,478.7769 475.6782,508.7905 484.2182,541.5905" fill="none" id="MainController-to-ObservableClientsRepo" style="stroke:#181818;stroke-width:1;"/><polygon fill="#181818" points="485.73,547.3969,487.3333,537.6794,484.4702,542.5582,479.5914,539.6951,485.73,547.3969" style="stroke:#181818;stroke-width:1;"/></g><!--link AddClientController to ObservableClientsRepo--><g class="link" data-entity-1="ent0004" data-entity-2="ent0017" data-link-type="dependency" data-source-line="173" id="lnk27"><path codeLine="173" d="M688.18,431.7969 C660.71,465.5469 629.4874,503.9233 597.9174,542.7133" fill="none" id="AddClientController-to-ObservableClientsRepo" style="stroke:#181818;stroke-width:1;"/><polygon fill="#181818" points="594.13,547.3669,602.9135,542.9115,597.2862,543.4889,596.7087,537.8616,594.13,547.3669" style="stroke:#181818;stroke-width:1;"/></g><!--link EditClientController to ObservableClientsRepo--><g class="link" data-entity-1="ent0005" data-entity-2="ent0017" data-link-type="dependency" data-source-line="174" id="lnk28"><path codeLine="174" d="M960.33,431.9569 C937.97,446.8869 912.88,461.5469 888,471.8269 C818.07,500.6969 790.73,475.4769 721,504.8269 C694.02,516.1769 672.0132,528.0719 646.7232,544.2619" fill="none" id="EditClientController-to-ObservableClientsRepo" style="stroke:#181818;stroke-width:1;"/><polygon fill="#181818" points="641.67,547.4969,651.4065,546.0133,645.881,544.8011,647.0932,539.2756,641.67,547.4969" style="stroke:#181818;stroke-width:1;"/></g><!--link DeleteClientController to ObservableClientsRepo--><g class="link" data-entity-1="ent0006" data-entity-2="ent0017" data-link-type="dependency" data-source-line="175" id="lnk29"><path codeLine="175" d="M217.28,423.8069 C262.97,458.6169 319.837,501.9212 374.937,543.8912" fill="none" id="DeleteClientController-to-ObservableClientsRepo" style="stroke:#181818;stroke-width:1;"/><polygon fill="#181818" points="379.71,547.5269,374.9742,538.8914,375.7325,544.4972,370.1267,545.2554,379.71,547.5269" style="stroke:#181818;stroke-width:1;"/></g><!--link MainController to WebViews--><g class="link" data-entity-1="ent0003" data-entity-2="ent0009" data-link-type="dependency" data-source-line="178" id="lnk30"><path codeLine="178" d="M534.79,448.1469 C551.06,457.8269 568.42,466.2669 586,471.8269 C604.62,477.7069 1275.27,465.9369 1289,479.8269 C1314.75,505.8669 1310.5615,540.1953 1296.9815,574.6253" fill="none" id="MainController-to-WebViews" style="stroke:#181818;stroke-width:1;stroke-dasharray:7,7;"/><polygon fill="#181818" points="1294.78,580.2069,1301.8032,573.3022,1296.6146,575.5556,1294.3612,570.3669,1294.78,580.2069" style="stroke:#181818;stroke-width:1;"/><text fill="#000000" font-family="sans-serif" font-size="13" lengthAdjust="spacing" textLength="29.7832" x="1300" y="492.8938">uses</text></g><!--link AddClientController to ClientFormView--><g class="link" data-entity-1="ent0004" data-entity-2="ent0008" data-link-type="dependency" data-source-line="179" id="lnk31"><path codeLine="179" d="M808.97,431.7769 C832.41,447.8969 859.51,463.2369 887,471.8269 C934.84,486.7769 1288.16,474.5169 1338,479.8269 C1395.2,485.9169 1414.36,477.5369 1465,504.8269 C1513.58,530.9969 1552.2718,574.7381 1577.5618,608.0481" fill="none" id="AddClientController-to-ClientFormView" style="stroke:#181818;stroke-width:1;stroke-dasharray:7,7;"/><polygon fill="#181818" points="1581.19,612.8269,1578.9336,603.24,1578.1665,608.8446,1572.5619,608.0775,1581.19,612.8269" style="stroke:#181818;stroke-width:1;"/><text fill="#000000" font-family="sans-serif" font-size="13" lengthAdjust="spacing" textLength="29.7832" x="1449" y="492.8938">uses</text></g><!--link EditClientController to ClientFormView--><g class="link" data-entity-1="ent0005" data-entity-2="ent0008" data-link-type="dependency" data-source-line="180" id="lnk32"><path codeLine="180" d="M1171.64,374.9769 C1272.14,383.4869 1408.71,408.7369 1506,479.8269 C1551.59,513.1369 1578.0069,568.4538 1592.4269,607.1938" fill="none" id="EditClientController-to-ClientFormView" style="stroke:#181818;stroke-width:1;stroke-dasharray:7,7;"/><polygon fill="#181818" points="1594.52,612.8169,1595.1291,602.9869,1592.7758,608.131,1587.6317,605.7776,1594.52,612.8169" style="stroke:#181818;stroke-width:1;"/><text fill="#000000" font-family="sans-serif" font-size="13" lengthAdjust="spacing" textLength="29.7832" x="1523" y="492.8938">uses</text></g><!--link DeleteClientController to WebViews--><g class="link" data-entity-1="ent0006" data-entity-2="ent0009" data-link-type="dependency" data-source-line="181" id="lnk33"><path codeLine="181" d="M208.01,423.6769 C232.85,442.3869 263.13,461.4369 294,471.8269 C371.27,497.8069 949.15,480.6269 1027,504.8269 C1078.57,520.8569 1125.2005,547.902 1166.3905,576.662" fill="none" id="DeleteClientController-to-WebViews" style="stroke:#181818;stroke-width:1;stroke-dasharray:7,7;"/><polygon fill="#181818" points="1171.31,580.0969,1166.2207,571.6648,1167.2104,577.2344,1161.6408,578.2242,1171.31,580.0969" style="stroke:#181818;stroke-width:1;"/><text fill="#000000" font-family="sans-serif" font-size="13" lengthAdjust="spacing" textLength="29.7832" x="956" y="492.8938">uses</text></g><!--link ObservableClientsRepo to BaseClientsRepo--><g class="link" data-entity-1="ent0017" data-entity-2="ent0014" data-link-type="dependency" data-source-line="184" id="lnk34"><path codeLine="184" d="M319.79,713.7569 C268.3,740.5369 218.73,777.5069 189,827.7569 C146.77,899.1569 147,942.8669 189,1014.3969 C224.56,1074.9669 268.31,1052.8269 327,1091.3969 C345.47,1103.5369 359.7449,1113.5471 378.0649,1127.1671" fill="none" id="ObservableClientsRepo-to-BaseClientsRepo" style="stroke:#181818;stroke-width:1;"/><polygon fill="#181818" points="382.88,1130.7469,378.0439,1122.1671,378.8674,1127.7637,373.2708,1128.5873,382.88,1130.7469" style="stroke:#181818;stroke-width:1;"/><text fill="#000000" font-family="sans-serif" font-size="13" lengthAdjust="spacing" textLength="63.9463" x="190" y="925.6438">delegates</text></g><!--link ClientsRepDBAdapter to BaseClientsRepo--><g class="link" data-entity-1="ent0015" data-entity-2="ent0014" data-link-type="extension" data-source-line="185" id="lnk35"><path codeLine="185" d="M401.64,1014.7769 C417.89,1051.8369 429.2617,1077.772 445.1917,1114.102" fill="none" id="ClientsRepDBAdapter-to-BaseClientsRepo" style="stroke:#181818;stroke-width:1;stroke-dasharray:7,7;"/><polygon fill="none" points="452.42,1130.5869,450.6867,1111.6925,439.6967,1116.5114,452.42,1130.5869" style="stroke:#181818;stroke-width:1;"/></g><!--link ClientsRepDBFilterSortDecorator to BaseClientsRepo--><g class="link" data-entity-1="ent0016" data-entity-2="ent0014" data-link-type="dependency" data-source-line="186" id="lnk36"><path codeLine="186" d="M702.47,974.0069 C664.5,1017.3169 613.5656,1075.3954 569.0956,1126.1154" fill="none" id="ClientsRepDBFilterSortDecorator-to-BaseClientsRepo" style="stroke:#181818;stroke-width:1;stroke-dasharray:7,7;"/><polygon fill="#181818" points="565.14,1130.6269,574.081,1126.4967,568.4363,1126.8673,568.0657,1121.2226,565.14,1130.6269" style="stroke:#181818;stroke-width:1;"/><text fill="#000000" font-family="sans-serif" font-size="13" lengthAdjust="spacing" textLength="38.9683" x="635" y="1057.4638">wraps</text></g><!--link ObservableClientsRepo to ClientsRepDBFilterSortDecorator--><g class="link" data-entity-1="ent0017" data-entity-2="ent0016" data-link-type="dependency" data-source-line="187" id="lnk37"><path codeLine="187" d="M600.21,751.1369 C635.04,790.9469 669.6196,830.4808 698.5996,863.6108" fill="none" id="ObservableClientsRepo-to-ClientsRepDBFilterSortDecorator" style="stroke:#181818;stroke-width:1;stroke-dasharray:7,7;"/><polygon fill="#181818" points="702.55,868.1269,699.6352,858.7192,699.258,864.3635,693.6138,863.9864,702.55,868.1269" style="stroke:#181818;stroke-width:1;"/><text fill="#000000" font-family="sans-serif" font-size="13" lengthAdjust="spacing" textLength="179.3848" x="638" y="793.8238">when DATA_BACKEND='db'</text></g><!--link ClientsRepDBAdapter to ClientsRepDB--><g class="link" data-entity-1="ent0015" data-entity-2="ent0018" data-link-type="dependency" data-source-line="189" id="lnk38"><path codeLine="189" d="M317.53,1014.7769 C298.64,1055.0369 279.3377,1096.1947 261.4077,1134.4247" fill="none" id="ClientsRepDBAdapter-to-ClientsRepDB" style="stroke:#181818;stroke-width:1;"/><polygon fill="#181818" points="258.86,1139.8569,266.3031,1133.407,260.9831,1135.33,259.0601,1130.0101,258.86,1139.8569" style="stroke:#181818;stroke-width:1;"/></g><!--link ClientsRepDB to PgDB--><g class="link" data-entity-1="ent0018" data-entity-2="ent0019" data-link-type="dependency" data-source-line="190" id="lnk39"><path codeLine="190" d="M233.51,1294.7869 C238.24,1329.2169 242.9925,1363.8128 247.7225,1398.2028" fill="none" id="ClientsRepDB-to-PgDB" style="stroke:#181818;stroke-width:1;"/><polygon fill="#181818" points="248.54,1404.1469,251.2764,1394.6858,247.8587,1399.1935,243.351,1395.7758,248.54,1404.1469" style="stroke:#181818;stroke-width:1;"/></g><!--link ClientsRepDBAdapter to Client--><g class="link" data-entity-1="ent0015" data-entity-2="ent0020" data-link-type="dependency" data-source-line="193" id="lnk40"><path codeLine="193" d="M450.6,1005.7569 C455.97,1008.9569 461.45,1011.8769 467,1014.3969 C554.8,1054.4069 605.42,985.7069 682,1044.3969 C698.08,1056.7269 707.7918,1068.0223 717.6218,1086.0023" fill="none" id="ClientsRepDBAdapter-to-Client" style="stroke:#181818;stroke-width:1;stroke-dasharray:7,7;"/><polygon fill="#181818" points="720.5,1091.2669,719.6924,1081.4512,718.1015,1086.8797,712.6729,1085.2888,720.5,1091.2669" style="stroke:#181818;stroke-width:1;"/></g><!--link ClientsRepDBFilterSortDecorator to ClientShort--><g class="link" data-entity-1="ent0016" data-entity-2="ent0021" data-link-type="dependency" data-source-line="194" id="lnk41"><path codeLine="194" d="M780.47,974.0069 C805.9,1014.6769 838.7885,1067.2598 869.3585,1116.1398" fill="none" id="ClientsRepDBFilterSortDecorator-to-ClientShort" style="stroke:#181818;stroke-width:1;stroke-dasharray:7,7;"/><polygon fill="#181818" points="872.54,1121.2269,871.1591,1111.4753,869.8888,1116.9877,864.3764,1115.7173,872.54,1121.2269" style="stroke:#181818;stroke-width:1;"/></g><!--link WebViews to Client--><g class="link" data-entity-1="ent0009" data-entity-2="ent0020" data-link-type="dependency" data-source-line="195" id="lnk42"><path codeLine="195" d="M1220.58,718.6069 C1170.05,811.4369 1079.24,970.8769 1029,1014.3969 C965.09,1069.7769 922.01,1039.8069 855,1091.3969 C845.76,1098.5169 841.0376,1102.3699 832.6176,1111.0099" fill="none" id="WebViews-to-Client" style="stroke:#181818;stroke-width:1;stroke-dasharray:7,7;"/><polygon fill="#181818" points="828.43,1115.3069,837.576,1111.6531,831.9197,1111.726,831.8467,1106.0697,828.43,1115.3069" style="stroke:#181818;stroke-width:1;"/></g><!--link WebViews to ClientShort--><g class="link" data-entity-1="ent0009" data-entity-2="ent0021" data-link-type="dependency" data-source-line="196" id="lnk43"><path codeLine="196" d="M1253.66,718.4369 C1246.42,805.1569 1223.5,956.2769 1151,1061.3969 C1110.81,1119.6769 1046.4683,1160.6084 996.4983,1186.4784" fill="none" id="WebViews-to-ClientShort" style="stroke:#181818;stroke-width:1;stroke-dasharray:7,7;"/><polygon fill="#181818" points="991.17,1189.2369,1001.0014,1188.6513,995.6102,1186.9381,997.3234,1181.5469,991.17,1189.2369" style="stroke:#181818;stroke-width:1;"/></g><!--SRC=[pLVDRkCs4BxhAOYzHC4wtfuDDu4JPu6YI5lKnVP8KDBOPYEBMf9srjqiiDjpWLxw2Btr4lG7A9fs3_i4oXjrIFrHiXIdnM9H18YbuP3yleypmv7cEWQI_PJzaVsTtMItTz-RtxiVIFORccwoN-zUu_-_yE-6P7zcjpZsvkvDzZRxXVWNpyx8O_9ve41kGEBZbv2A9zDJVCf-p7v7zxTczjrtvlVGyzGbJr8csOg4CLDgehNamLh39w58PlnR81zvInu12RaCO_2yb8MNR07aaTde2JaJYPOYZa6gH-IbH_9Lo0NZIJr4nkFwPL1YEpws4mWv8X8nZWhGB8ZXBEQGQ6MW5nvKGGoXXeY6B5p2Y4Gyr6EUw079dO-jusF2amXU-91ik1J9W2ZDfAOIL2eI1OU5KxxOFgy8DEFnFgzr6Z4DFcp0W4dPDXOiCeEll4gEIHJbA7iq-LTIR3XSZGhMJuLSFSFt0WkB8Zf7qpxCeGIBkT_B0NyUSVr1q0Dkz23ufUGFWZ_5izRmlWYWTYAPy_qO9Qp4PW_6Lquw6HqQATIK2F6QdmgfsG0ZNVeh4S40ipCQa0sBrw061AGKCj-XNEnh2Em6nJB4J5l7SEYiPnE7ckFnXyDXCmToSrYUss5J2XfPYLjE1Ou1CITAMQYvIAhyMuSXA4LPWlaS2mN-2bzH1vnayeZgRGgDP3Ap4c72Ourpx4uhjTYLiImkkP9O7q3EMGXrGNovFsrBqMRhu1ii4rLiK54ieaOavagFgqfMff_MM9nyT7FbQrgG19zlE_TrUPY0KrmBkSKYUu5d7EUCMA2qH34BYATCkI5QiLk0ffSqeMefCEeCMFzoW56OIfY3f7XmYAiwH-CTeh3QTot1blB8vvNyfhY4TYyVfMDsCQstTS2dCIfTJHkGBgyYL6gdzY8ieYoEVIqmBraTQbUIupGSeUAoZ4ydoMiDfgUJYANQPdZnvAGtZO9HmxbVBoS9xjF7SNC4SgnDNHgfvKZXs9M1W5Oafcd2Lh27xrCU8yaPpff2A2J3e47krRFBFi1m6P59ijqJ9dExP5McxTl00XiHiz4iXN1_C7MjqkBHMMWHVP5wkzXR0L_iQP3RuB14_6vW-QLVdb0Tr_UBS9BpFdaetPCFcIxjDEs941CEfoHcMoSN_Zynxu3-Oc71pdYoG3-HDAudtiRd7uxiZC8o1nqkgKZ0LyzZKrgngQtARZveAal78Bo045lUUuRmujPhcI2kjjEEv8Z_FD5SRrtmqSZSHMMqbebTOkEoQLZnA8h1jQIuVcgE2TE5WsfRa_Kg05bO0oxrafhRhNHReYWbdnLUv_NPOJzIBgO5dQzD2k470D8i1Q0KdbFg2xtSITwSxyo4Z-ahJFU12Tt8s_T0VPTEmRfkGam-Djzi0-543cUngWWXGsJKIIOlKXNu2YvLQtFnxg1ksXtmpG5x0asJFOYMrtywP3gNOhLhrQB9hopR5RUWl0IO2ilsuw3kawwu2GElUXzV3uUjppglR936rqT7FJqpBkaqtKV7zdFKQtqU7g6zUthNXrE_T-UNIhzxpvT1_uG66MNOsAQwJMSuFAuRxX5PAppBBYB6hzNb5zwTHFhTUuXquK0Azegrbq5zmEqRs6ZGxYr7jdelCBYKrzLl3OVNEvEyVOsAmRYxqRkVhoHBrRlR7dYr5FqhZyZL4X8odNmreQUJiq_FFvj-V1051rudU4EuqHSsxaypQcyQb6-ArpGnvKKPHQCUAShL7YI0KqYzwi2SDJfirlaV]--></g></svg>